<?xml version="1.0" encoding="UTF-8"?> <svg xmlns="http://www.w3.org/2000/svg" xmlns:xlink="http://www.w3.org/1999/xlink" width="1160.000000" height="420.000000" viewBox="0 0 1160 420" fill="none"><desc> Created with Pixso. </desc><defs><clipPath id="clip420_4626"><rect id="инвестиционный спрос" width="1160.000000" height="420.000000" fill="white" fill-opacity="0"></rect></clipPath></defs><g clip-path="url(#clip420_4626)"><rect id="Frame 141044" width="591.000000" height="304.829956" transform="translate(98.000000 12.750000)" fill="#FFFFFF" fill-opacity="0"></rect><rect id="Frame 141024" width="51.000000" height="304.829956" transform="translate(638.000000 12.750000)" fill="#FFFFFF" fill-opacity="0"></rect><path id="июнь" d="M651.68 301.99L651.68 312.57L653.49 312.57L653.49 307.89L655.46 307.89Q655.59 309.52 656.39 310.7Q656.66 311.1 657.01 311.44Q657.55 311.98 658.2 312.31Q659.2 312.81 660.44 312.81Q661.87 312.81 662.94 312.2Q663.56 311.84 664.07 311.27Q664.32 310.99 664.52 310.67Q665.43 309.28 665.43 307.28Q665.43 305.29 664.52 303.89Q664.32 303.58 664.07 303.3Q663.56 302.73 662.94 302.37Q661.87 301.76 660.44 301.76Q659.2 301.76 658.22 302.25Q657.64 302.54 657.14 303Q656.81 303.3 656.55 303.66Q655.73 304.74 655.5 306.26L653.49 306.26L653.49 301.99L651.68 301.99ZM639.57 301.99L639.57 312.57L641.36 312.57L646.75 304.78L646.75 312.57L648.54 312.57L648.54 301.99L646.75 301.99L641.36 309.81L641.36 301.99L639.57 301.99ZM667.96 301.99L667.96 312.57L669.76 312.57L669.76 307.89L674.99 307.89L674.99 312.57L676.8 312.57L676.8 301.99L674.99 301.99L674.99 306.26L669.76 306.26L669.76 301.99L667.96 301.99ZM679.94 301.99L679.94 312.57L684.1 312.57Q685.35 312.57 686.25 312.01Q686.55 311.81 686.81 311.55Q687.19 311.18 687.43 310.73Q687.84 309.96 687.84 308.97Q687.84 307.97 687.42 307.2Q687.18 306.77 686.81 306.41Q686.58 306.18 686.3 306Q685.4 305.42 684.12 305.42L681.75 305.42L681.75 301.99L679.94 301.99ZM658.12 304.49Q658.13 304.48 658.14 304.47Q658.51 304.01 658.98 303.75Q659.62 303.4 660.44 303.4Q661.27 303.4 661.9 303.75Q662.37 304.01 662.74 304.47Q662.74 304.47 662.74 304.48Q663.59 305.55 663.59 307.28Q663.59 309.02 662.74 310.09Q662.74 310.09 662.74 310.1Q662.37 310.56 661.9 310.82Q661.27 311.17 660.44 311.17Q659.62 311.17 658.98 310.82Q658.51 310.56 658.14 310.1Q658.13 310.09 658.12 310.07Q657.28 309.01 657.28 307.28Q657.28 305.56 658.12 304.49ZM683.89 310.98L681.75 310.98L681.75 307.01L683.89 307.01Q684.83 307.01 685.39 307.47Q685.43 307.51 685.47 307.54Q685.64 307.71 685.76 307.91Q686.04 308.35 686.04 308.97Q686.04 309.55 685.79 309.99Q685.66 310.22 685.47 310.41Q685.39 310.49 685.3 310.56Q684.76 310.98 683.89 310.98Z" fill="#FFFFFF" fill-opacity="1.000000" fill-rule="evenodd"></path><rect id="Rectangle 1004526" x="638.500000" y="114.352539" width="50.000000" height="165.227448" fill="#9173FA" fill-opacity="1.000000"></rect><rect id="Rectangle 1004542" x="638.500000" y="49.741211" width="50.000000" height="66.090981" fill="#C3B6FF" fill-opacity="1.000000"></rect><rect id="Rectangle 1004528" x="638.500000" y="12.750000" width="50.000000" height="47.348759" fill="#AAF0F0" fill-opacity="1.000000"></rect><rect id="Frame 141025" width="50.000000" height="302.830017" transform="translate(530.000000 12.750000)" fill="#FFFFFF" fill-opacity="0"></rect><path id="май" d="M566.47 296.14L564.85 296.14Q564.87 297.2 565.36 297.97Q565.54 298.26 565.8 298.51Q566.04 298.75 566.33 298.93Q567.11 299.41 568.19 299.41Q569.27 299.41 570.06 298.93Q570.34 298.75 570.59 298.51Q570.84 298.26 571.03 297.97Q571.51 297.2 571.53 296.14L569.91 296.14Q569.91 296.74 569.65 297.19Q569.57 297.33 569.46 297.46Q569.34 297.6 569.19 297.71Q568.79 297.99 568.19 297.99Q567.59 297.99 567.19 297.71Q567.04 297.6 566.92 297.46Q566.81 297.33 566.73 297.19Q566.47 296.74 566.47 296.14ZM552.3 306.95Q551.9 307.63 551.9 308.55Q551.9 309.48 552.3 310.17Q552.54 310.59 552.93 310.92Q553.15 311.11 553.39 311.25Q554.3 311.81 555.55 311.81Q556.4 311.81 557.15 311.55Q557.31 311.49 557.47 311.43Q558.04 311.18 558.49 310.79Q558.74 310.57 558.95 310.31L558.95 311.57L560.65 311.57L560.65 304.56Q560.65 303.29 560.07 302.41Q559.84 302.07 559.53 301.78Q559.39 301.65 559.24 301.54Q558.17 300.76 556.52 300.76Q554.84 300.76 553.75 301.56Q553.71 301.58 553.68 301.61Q553 302.12 552.64 302.81Q552.4 303.25 552.3 303.76L554.04 303.76Q554.13 303.53 554.27 303.32Q554.51 302.98 554.89 302.74Q555.5 302.36 556.48 302.36Q557.43 302.36 558.05 302.8Q558.13 302.86 558.21 302.93Q558.36 303.05 558.47 303.21Q558.87 303.74 558.87 304.56L558.87 305.28L556.06 305.28Q554.12 305.28 553.01 306.15Q552.57 306.5 552.3 306.95ZM537.34 300.99L537.34 311.57L539.1 311.57L539.1 303.89L542.63 311.57L544.14 311.57L547.64 303.89L547.64 311.57L549.41 311.57L549.41 300.99L547.22 300.99L543.38 309.43L539.54 300.99L537.34 300.99ZM563.7 300.99L563.7 311.57L565.49 311.57L570.88 303.78L570.88 311.57L572.66 311.57L572.66 300.99L570.88 300.99L565.49 308.81L565.49 300.99L563.7 300.99ZM553.96 309.42Q553.72 309.05 553.72 308.53Q553.72 308.08 553.92 307.74Q554.08 307.46 554.39 307.25Q555.05 306.81 556.16 306.81L558.87 306.81L558.87 307.59Q558.87 308.23 558.61 308.74Q558.39 309.17 557.98 309.5Q557.77 309.68 557.54 309.81Q556.78 310.23 555.78 310.23Q554.89 310.23 554.32 309.8Q554.31 309.79 554.3 309.79Q554.09 309.62 553.96 309.42Z" fill="#FFFFFF" fill-opacity="1.000000" fill-rule="evenodd"></path><rect id="Rectangle 1004526" width="50.000000" height="163.747787" transform="matrix(1 0 0 -1 530 279.58)" fill="#9173FA" fill-opacity="1.000000"></rect><rect id="Rectangle 1004542" x="530.000000" y="37.410645" width="50.000000" height="78.421387" fill="#C3B6FF" fill-opacity="1.000000"></rect><rect id="Rectangle 1004528" x="530.000000" y="12.750000" width="50.000000" height="31.072624" fill="#AAF0F0" fill-opacity="1.000000"></rect><rect id="Frame 141026" width="50.000000" height="302.830017" transform="translate(422.000000 12.750000)" fill="#FFFFFF" fill-opacity="0"></rect><path id="апр" d="M430.54 306.95Q430.14 307.63 430.14 308.55Q430.14 309.48 430.54 310.17Q430.78 310.59 431.17 310.92Q431.39 311.11 431.63 311.25Q432.54 311.81 433.79 311.81Q434.63 311.81 435.39 311.55Q435.55 311.49 435.71 311.43Q436.28 311.18 436.73 310.79Q436.98 310.57 437.19 310.31L437.19 311.57L438.89 311.57L438.89 304.56Q438.89 303.29 438.31 302.41Q438.08 302.07 437.77 301.78Q437.63 301.65 437.48 301.54Q436.41 300.76 434.76 300.76Q433.08 300.76 431.99 301.56Q431.95 301.58 431.92 301.61Q431.24 302.12 430.88 302.81Q430.64 303.25 430.54 303.76L432.28 303.76Q432.37 303.53 432.51 303.32Q432.75 302.98 433.13 302.74Q433.74 302.36 434.72 302.36Q435.67 302.36 436.29 302.8Q436.37 302.86 436.45 302.93Q436.6 303.05 436.71 303.21Q437.11 303.74 437.11 304.56L437.11 305.28L434.3 305.28Q432.36 305.28 431.25 306.15Q430.81 306.5 430.54 306.95ZM453.87 300.99L453.87 315.58L455.67 315.58L455.67 310.27Q456.08 310.93 456.94 311.37Q457.8 311.81 459 311.81Q459.58 311.81 460.12 311.68Q460.46 311.6 460.79 311.47Q460.99 311.39 461.18 311.29Q461.8 310.97 462.33 310.46Q463.01 309.8 463.42 308.72Q463.83 307.64 463.83 306.28Q463.83 304.94 463.43 303.86Q463.02 302.79 462.35 302.12Q461.81 301.6 461.18 301.27Q461.01 301.18 460.83 301.11Q460.42 300.94 460 300.85Q459.55 300.76 459.07 300.76Q457.8 300.76 456.92 301.26Q456.03 301.76 455.61 302.5L455.61 300.99L453.87 300.99ZM441.94 300.99L441.94 311.57L443.75 311.57L443.75 302.61L448.91 302.61L448.91 311.57L450.72 311.57L450.72 300.99L441.94 300.99ZM456.44 309.06Q455.61 308.03 455.61 306.32L455.61 306.24Q455.61 304.54 456.44 303.51Q456.46 303.48 456.49 303.44Q456.85 303.02 457.3 302.77Q457.96 302.4 458.84 302.4Q459.59 302.4 460.19 302.7Q460.71 302.97 461.12 303.47Q461.15 303.51 461.18 303.56Q461.99 304.62 461.99 306.28Q461.99 307.95 461.18 309.01Q461.15 309.05 461.12 309.09Q460.71 309.6 460.19 309.87Q459.59 310.17 458.84 310.17Q457.96 310.17 457.3 309.8Q456.85 309.55 456.49 309.12Q456.46 309.09 456.44 309.06ZM432.2 309.42Q431.96 309.05 431.96 308.53Q431.96 308.08 432.16 307.74Q432.32 307.46 432.62 307.25Q433.29 306.81 434.4 306.81L437.11 306.81L437.11 307.59Q437.11 308.23 436.85 308.74Q436.63 309.17 436.22 309.5Q436.01 309.68 435.78 309.81Q435.02 310.23 434.02 310.23Q433.13 310.23 432.55 309.8Q432.55 309.79 432.54 309.79Q432.33 309.62 432.2 309.42Z" fill="#FFFFFF" fill-opacity="1.000000" fill-rule="evenodd"></path><rect id="Rectangle 1004526" x="422.000000" y="110.406738" width="50.000000" height="169.173172" fill="#9173FA" fill-opacity="1.000000"></rect><rect id="Rectangle 1004542" x="422.000000" y="39.876953" width="50.000000" height="83.846764" fill="#C3B6FF" fill-opacity="1.000000"></rect><rect id="Rectangle 1004528" x="422.000000" y="12.750000" width="50.000000" height="29.099758" fill="#AAF0F0" fill-opacity="1.000000"></rect><rect id="Frame 141027" width="50.000000" height="302.830017" transform="translate(314.000000 12.750000)" fill="#FFFFFF" fill-opacity="0"></rect><path id="март" d="M331.24 306.95Q330.84 307.63 330.84 308.55Q330.84 309.48 331.24 310.17Q331.48 310.59 331.87 310.92Q332.09 311.11 332.33 311.25Q333.24 311.81 334.49 311.81Q335.34 311.81 336.09 311.55Q336.25 311.49 336.41 311.43Q336.98 311.18 337.43 310.79Q337.68 310.57 337.89 310.31L337.89 311.57L339.6 311.57L339.6 304.56Q339.6 303.29 339.01 302.41Q338.78 302.07 338.47 301.78Q338.33 301.65 338.18 301.54Q337.11 300.76 335.46 300.76Q333.78 300.76 332.69 301.56Q332.65 301.58 332.62 301.61Q331.94 302.12 331.58 302.81Q331.34 303.25 331.24 303.76L332.98 303.76Q333.07 303.53 333.21 303.32Q333.45 302.98 333.83 302.74Q334.44 302.36 335.42 302.36Q336.37 302.36 336.99 302.8Q337.07 302.86 337.15 302.93Q337.3 303.05 337.41 303.21Q337.81 303.74 337.81 304.56L337.81 305.28L335 305.28Q333.06 305.28 331.95 306.15Q331.51 306.5 331.24 306.95ZM342.64 300.99L342.64 315.58L344.45 315.58L344.45 310.27Q344.86 310.93 345.72 311.37Q346.58 311.81 347.78 311.81Q348.35 311.81 348.89 311.68Q349.23 311.6 349.56 311.47Q349.76 311.39 349.96 311.29Q350.58 310.97 351.1 310.46Q351.79 309.8 352.2 308.72Q352.61 307.64 352.61 306.28Q352.61 304.94 352.2 303.86Q351.8 302.79 351.12 302.12Q350.59 301.6 349.95 301.27Q349.78 301.18 349.6 301.11Q349.2 300.94 348.77 300.85Q348.32 300.76 347.85 300.76Q346.58 300.76 345.69 301.26Q344.8 301.76 344.38 302.5L344.38 300.99L342.64 300.99ZM316.28 300.99L316.28 311.57L318.04 311.57L318.04 303.89L321.57 311.57L323.08 311.57L326.58 303.89L326.58 311.57L328.35 311.57L328.35 300.99L326.16 300.99L322.32 309.43L318.48 300.99L316.28 300.99ZM353.7 300.99L353.7 302.61L357.25 302.61L357.25 311.57L359.06 311.57L359.06 302.61L362.63 302.61L362.63 300.99L353.7 300.99ZM345.21 309.06Q344.38 308.03 344.38 306.32L344.38 306.24Q344.38 304.54 345.21 303.51Q345.24 303.48 345.27 303.44Q345.62 303.02 346.07 302.77Q346.74 302.4 347.61 302.4Q348.37 302.4 348.96 302.7Q349.49 302.97 349.9 303.47Q349.93 303.51 349.96 303.56Q350.76 304.62 350.76 306.28Q350.76 307.95 349.96 309.01Q349.93 309.05 349.9 309.09Q349.49 309.6 348.96 309.87Q348.37 310.17 347.61 310.17Q346.74 310.17 346.07 309.8Q345.62 309.55 345.27 309.12Q345.24 309.09 345.21 309.06ZM332.9 309.42Q332.66 309.05 332.66 308.53Q332.66 308.08 332.86 307.74Q333.02 307.46 333.33 307.25Q333.99 306.81 335.1 306.81L337.81 306.81L337.81 307.59Q337.81 308.23 337.55 308.74Q337.33 309.17 336.92 309.5Q336.71 309.68 336.48 309.81Q335.72 310.23 334.72 310.23Q333.83 310.23 333.26 309.8Q333.25 309.79 333.24 309.79Q333.03 309.62 332.9 309.42Z" fill="#FFFFFF" fill-opacity="1.000000" fill-rule="evenodd"></path><rect id="Rectangle 1004526" x="314.000000" y="115.832031" width="50.000000" height="163.747787" fill="#9173FA" fill-opacity="1.000000"></rect><rect id="Rectangle 1004542" x="314.000000" y="34.944824" width="50.000000" height="83.353546" fill="#C3B6FF" fill-opacity="1.000000"></rect><rect id="Rectangle 1004528" x="314.000000" y="12.750000" width="50.000000" height="24.660812" fill="#AAF0F0" fill-opacity="1.000000"></rect><rect id="Frame 141028" width="50.000000" height="302.830017" transform="translate(206.000000 12.750000)" fill="#FFFFFF" fill-opacity="0"></rect><path id="фев" d="M214.2 309.11Q214.54 309.7 215.04 310.19Q215.5 310.64 216.04 310.97Q217.3 311.72 218.98 311.78L218.98 315.58L220.75 315.58L220.75 311.78Q222.43 311.72 223.69 310.96Q224.23 310.64 224.68 310.19Q225.18 309.7 225.52 309.12Q226.22 307.91 226.22 306.28Q226.22 304.9 225.68 303.77Q225.6 303.61 225.51 303.45Q225.12 302.78 224.58 302.26Q224.13 301.83 223.56 301.52Q223.48 301.48 223.41 301.44Q222.22 300.83 220.75 300.78L220.75 296.79L218.98 296.79L218.98 300.78Q217.31 300.84 216.05 301.59Q215.51 301.91 215.04 302.37Q214.53 302.87 214.19 303.46Q213.5 304.67 213.5 306.28Q213.5 307.9 214.2 309.11ZM229.15 309.88Q229.32 310.11 229.51 310.31Q229.95 310.78 230.48 311.1Q231.64 311.81 233.24 311.81Q234.21 311.81 235.03 311.53Q235.84 311.25 236.35 310.79Q236.86 310.33 237.16 309.84Q237.47 309.35 237.58 308.85L235.76 308.85Q235.59 309.34 234.92 309.76Q234.25 310.19 233.26 310.19Q232.3 310.19 231.58 309.78Q231.21 309.57 230.9 309.25Q230.6 308.93 230.39 308.56Q230 307.82 230 306.87L230 306.83L237.71 306.83L237.71 305.91Q237.71 303.76 236.67 302.41Q236.57 302.28 236.46 302.15Q236.05 301.7 235.56 301.4Q234.52 300.76 233.09 300.76Q231.7 300.76 230.64 301.35Q230.01 301.7 229.49 302.25Q229.32 302.44 229.18 302.64Q228.11 304.06 228.11 306.28Q228.11 308.47 229.15 309.88ZM240.23 300.99L240.23 311.57L244.97 311.57Q246.55 311.57 247.48 310.79Q247.52 310.76 247.56 310.73Q247.98 310.35 248.22 309.88Q248.5 309.3 248.5 308.57Q248.5 307.64 248.07 307.01Q248.02 306.94 247.97 306.87Q247.61 306.43 247.16 306.19Q246.92 306.06 246.65 305.99Q246.75 305.95 246.85 305.89Q247.3 305.65 247.63 305.17Q248.03 304.59 248.03 303.72Q248.03 303.04 247.75 302.49Q247.55 302.08 247.18 301.76Q246.33 300.99 244.72 300.99L240.23 300.99ZM235.88 305.3L230.03 305.3Q230.12 304.24 230.66 303.51Q230.78 303.34 230.94 303.18Q231.16 302.96 231.41 302.8Q232.09 302.38 233.04 302.38Q234.01 302.38 234.67 302.82Q234.88 302.97 235.07 303.15Q235.12 303.2 235.17 303.26Q235.82 304.02 235.88 305.3ZM215.98 303.95Q216.15 303.7 216.37 303.49Q216.77 303.09 217.25 302.84Q218.02 302.44 218.98 302.42L218.98 310.15Q218.02 310.13 217.25 309.73Q216.77 309.48 216.37 309.08Q216.15 308.87 215.98 308.62Q215.32 307.68 215.32 306.28Q215.32 304.89 215.98 303.95ZM222.49 309.73Q221.72 310.13 220.75 310.15L220.75 302.42Q221.72 302.44 222.49 302.84Q222.96 303.09 223.36 303.49Q223.57 303.7 223.74 303.94Q224.4 304.88 224.4 306.28Q224.4 307.69 223.74 308.63Q223.57 308.87 223.36 309.08Q222.96 309.48 222.49 309.73ZM244.55 305.38L242.01 305.38L242.01 302.54L244.55 302.54Q245.38 302.54 245.81 302.9Q245.93 302.99 246.01 303.11Q246.25 303.44 246.25 303.94Q246.25 304.41 246.03 304.75Q245.94 304.88 245.81 305Q245.37 305.38 244.55 305.38ZM244.76 310.02L242.01 310.02L242.01 306.91L244.76 306.91Q245.95 306.91 246.41 307.49Q246.69 307.85 246.69 308.43Q246.69 308.98 246.43 309.36Q246.33 309.49 246.2 309.6Q245.71 310.02 244.76 310.02Z" fill="#FFFFFF" fill-opacity="1.000000" fill-rule="evenodd"></path><rect id="Rectangle 1004526" x="206.000000" y="119.777832" width="50.000000" height="159.802063" fill="#9173FA" fill-opacity="1.000000"></rect><rect id="Rectangle 1004542" x="206.000000" y="39.876953" width="50.000000" height="79.901031" fill="#C3B6FF" fill-opacity="1.000000"></rect><rect id="Rectangle 1004528" x="206.000000" y="12.750000" width="50.000000" height="27.126894" fill="#AAF0F0" fill-opacity="1.000000"></rect><rect id="Frame 141029" width="50.000000" height="302.830017" transform="translate(98.000000 12.750000)" fill="#FFFFFF" fill-opacity="0"></rect><path id="янв" d="M109.72 307.77L106.82 311.57L108.92 311.57L111.65 307.99L113.55 307.99L113.55 311.57L115.35 311.57L115.35 300.99L111.15 300.99Q109.71 300.99 108.77 301.68Q108.58 301.82 108.41 301.99Q108.02 302.39 107.78 302.86Q107.41 303.58 107.41 304.48Q107.41 305.21 107.67 305.83Q107.81 306.19 108.03 306.51Q108.26 306.85 108.56 307.11Q109.05 307.54 109.72 307.77ZM118.5 300.99L118.5 311.57L120.3 311.57L120.3 306.89L125.53 306.89L125.53 311.57L127.34 311.57L127.34 300.99L125.53 300.99L125.53 305.26L120.3 305.26L120.3 300.99L118.5 300.99ZM130.49 300.99L130.49 311.57L135.22 311.57Q136.81 311.57 137.74 310.79Q137.78 310.76 137.82 310.73Q138.24 310.35 138.47 309.88Q138.76 309.3 138.76 308.57Q138.76 307.64 138.33 307.01Q138.28 306.94 138.22 306.87Q137.87 306.43 137.42 306.19Q137.17 306.06 136.9 305.99Q137.01 305.95 137.11 305.89Q137.56 305.65 137.89 305.17Q138.29 304.59 138.29 303.72Q138.29 303.04 138.01 302.49Q137.8 302.08 137.44 301.76Q136.59 300.99 134.98 300.99L130.49 300.99ZM134.8 305.38L132.27 305.38L132.27 302.54L134.8 302.54Q135.63 302.54 136.07 302.9Q136.18 302.99 136.27 303.11Q136.5 303.44 136.5 303.94Q136.5 304.41 136.28 304.75Q136.19 304.88 136.06 305Q135.62 305.38 134.8 305.38ZM109.46 305.46Q109.22 305.04 109.22 304.48Q109.22 303.95 109.45 303.54Q109.58 303.29 109.79 303.1Q109.85 303.04 109.9 303Q110.46 302.56 111.36 302.56L113.55 302.56L113.55 306.41L111.36 306.41Q110.46 306.41 109.9 305.97Q109.85 305.92 109.79 305.87Q109.59 305.69 109.46 305.46ZM135.02 310.02L132.27 310.02L132.27 306.91L135.02 306.91Q136.21 306.91 136.66 307.49Q136.95 307.85 136.95 308.43Q136.95 308.98 136.68 309.36Q136.59 309.49 136.46 309.6Q135.97 310.02 135.02 310.02Z" fill="#FFFFFF" fill-opacity="1.000000" fill-rule="evenodd"></path><rect id="Rectangle 1004526" x="98.000000" y="79.333984" width="50.000000" height="200.245789" fill="#9173FA" fill-opacity="1.000000"></rect><rect id="Rectangle 1004542" x="98.000000" y="23.600586" width="50.000000" height="55.733437" fill="#C3B6FF" fill-opacity="1.000000"></rect><rect id="Rectangle 1004527" x="98.000000" y="12.750000" width="50.000000" height="12.330406" fill="#AAF0F0" fill-opacity="1.000000"></rect><rect id="фрейм 285" width="55.000000" height="278.000000" transform="translate(0.000000 7.250000)" fill="#FFFFFF" fill-opacity="0"></rect><path id="0%" d="M24.33 273.85Q24.33 276.08 24.98 277.79Q25.57 279.35 26.68 280.31Q26.79 280.4 26.9 280.49Q27.33 280.82 27.81 281.04Q28.76 281.48 29.91 281.48Q31.07 281.48 32.02 281.04Q32.5 280.82 32.92 280.49Q33.05 280.4 33.17 280.29Q34.26 279.34 34.85 277.79Q35.49 276.08 35.49 273.85Q35.49 271.63 34.85 269.91Q34.26 268.37 33.16 267.41Q33.05 267.31 32.92 267.22Q32.5 266.89 32.04 266.68Q31.08 266.23 29.91 266.23Q28.75 266.23 27.79 266.68Q27.32 266.89 26.9 267.22Q26.79 267.31 26.68 267.4Q25.57 268.35 24.98 269.91Q24.33 271.63 24.33 273.85ZM38.06 271.96Q38.27 272.34 38.57 272.67Q38.99 273.13 39.51 273.4Q40.2 273.75 41.08 273.75Q41.96 273.75 42.65 273.4Q43.17 273.13 43.59 272.67Q43.89 272.34 44.1 271.96Q44.57 271.1 44.57 269.99Q44.57 268.87 44.1 268.01Q43.89 267.63 43.59 267.31Q43.17 266.85 42.66 266.59Q41.96 266.23 41.08 266.23Q40.2 266.23 39.5 266.59Q38.99 266.85 38.57 267.31Q38.27 267.63 38.07 268.01Q37.59 268.87 37.59 269.99Q37.59 271.1 38.06 271.96ZM50.22 266.46L39.61 281.25L41.54 281.25L52.14 266.46L50.22 266.46ZM39.66 268.46Q39.7 268.41 39.73 268.36Q39.95 268.08 40.24 267.92Q40.6 267.72 41.08 267.72Q41.56 267.72 41.93 267.92Q42.21 268.08 42.43 268.36Q42.47 268.41 42.5 268.46Q42.93 269.07 42.93 269.99Q42.93 270.9 42.5 271.51Q42.47 271.56 42.43 271.61Q42.21 271.89 41.93 272.05Q41.56 272.25 41.08 272.25Q40.6 272.25 40.24 272.05Q39.95 271.89 39.73 271.61Q39.7 271.56 39.66 271.51Q39.23 270.9 39.23 269.99Q39.23 269.07 39.66 268.46ZM26.23 273.85Q26.23 272.16 26.64 270.85Q27.04 269.54 27.89 268.75Q28.28 268.38 28.75 268.18Q29.28 267.96 29.91 267.96Q30.55 267.96 31.09 268.19Q31.55 268.38 31.93 268.75Q32.77 269.54 33.18 270.85Q33.58 272.16 33.58 273.85Q33.58 275.54 33.18 276.86Q32.77 278.18 31.93 278.97Q31.55 279.33 31.09 279.53Q30.55 279.76 29.91 279.76Q29.28 279.76 28.75 279.53Q28.28 279.34 27.89 278.97Q27.04 278.18 26.64 276.86Q26.23 275.54 26.23 273.85ZM47.66 279.69Q47.87 280.07 48.17 280.4Q48.59 280.86 49.1 281.13Q49.8 281.48 50.68 281.48Q51.56 281.48 52.25 281.13Q52.77 280.86 53.19 280.4Q53.49 280.07 53.7 279.69Q54.16 278.83 54.16 277.72Q54.16 276.61 53.7 275.75Q53.49 275.36 53.19 275.03Q52.77 274.57 52.25 274.31Q51.56 273.95 50.68 273.95Q49.8 273.95 49.1 274.31Q48.59 274.57 48.17 275.03Q47.87 275.36 47.66 275.75Q47.19 276.61 47.19 277.72Q47.19 278.83 47.66 279.69ZM49.26 276.19Q49.29 276.14 49.33 276.09Q49.55 275.81 49.83 275.65Q50.2 275.45 50.68 275.45Q51.16 275.45 51.52 275.65Q51.81 275.81 52.03 276.09Q52.06 276.14 52.1 276.19Q52.52 276.81 52.52 277.72Q52.52 278.63 52.1 279.25Q52.06 279.29 52.03 279.34Q51.81 279.62 51.52 279.78Q51.16 279.98 50.68 279.98Q50.2 279.98 49.83 279.78Q49.55 279.62 49.33 279.34Q49.29 279.29 49.26 279.25Q48.83 278.63 48.83 277.72Q48.83 276.81 49.26 276.19Z" fill="#FFFFFF" fill-opacity="1.000000" fill-rule="evenodd"></path><path id="20%" d="M12.39 217.35Q11.78 218.26 11.62 219.47L13.47 219.47Q13.66 218.59 14.18 217.99Q14.35 217.79 14.55 217.63Q14.63 217.57 14.7 217.51Q15.5 216.96 16.69 216.96Q17.64 216.96 18.33 217.38Q18.55 217.52 18.74 217.7Q19.1 218.04 19.29 218.45Q19.54 218.96 19.54 219.58Q19.54 220.16 19.39 220.64Q19.25 221.12 18.91 221.6Q18.56 222.08 18.22 222.45Q17.88 222.81 17.25 223.4L11.66 228.63L11.66 230.25L21.8 230.25L21.8 228.52L14.25 228.52L18.51 224.6Q19.08 224.07 19.41 223.74Q19.74 223.42 20.18 222.89Q20.62 222.36 20.86 221.91Q21.11 221.46 21.28 220.84Q21.34 220.62 21.38 220.39Q21.45 219.99 21.45 219.58Q21.45 218.59 21.08 217.77Q20.76 217.07 20.15 216.48Q19.86 216.21 19.53 215.99Q18.38 215.23 16.73 215.23Q14.99 215.23 13.75 216.02Q13.49 216.19 13.25 216.4Q12.74 216.83 12.39 217.35ZM24.33 222.85Q24.33 225.08 24.98 226.79Q25.57 228.35 26.68 229.31Q26.79 229.4 26.9 229.49Q27.33 229.82 27.81 230.04Q28.76 230.48 29.91 230.48Q31.07 230.48 32.02 230.04Q32.5 229.82 32.92 229.49Q33.05 229.4 33.17 229.29Q34.26 228.34 34.85 226.79Q35.49 225.08 35.49 222.85Q35.49 220.63 34.85 218.91Q34.26 217.37 33.16 216.41Q33.05 216.31 32.92 216.22Q32.5 215.89 32.04 215.68Q31.08 215.23 29.91 215.23Q28.75 215.23 27.79 215.68Q27.32 215.89 26.9 216.22Q26.79 216.31 26.68 216.4Q25.57 217.35 24.98 218.91Q24.33 220.63 24.33 222.85ZM38.06 220.96Q38.27 221.34 38.57 221.67Q38.99 222.13 39.51 222.4Q40.2 222.75 41.08 222.75Q41.96 222.75 42.65 222.4Q43.17 222.13 43.59 221.67Q43.89 221.34 44.1 220.96Q44.57 220.1 44.57 218.99Q44.57 217.87 44.1 217.01Q43.89 216.63 43.59 216.31Q43.17 215.85 42.66 215.59Q41.96 215.23 41.08 215.23Q40.2 215.23 39.5 215.59Q38.99 215.85 38.57 216.31Q38.27 216.63 38.07 217.01Q37.59 217.87 37.59 218.99Q37.59 220.1 38.06 220.96ZM50.22 215.46L39.61 230.25L41.54 230.25L52.14 215.46L50.22 215.46ZM39.66 217.46Q39.7 217.41 39.73 217.36Q39.95 217.08 40.24 216.92Q40.6 216.72 41.08 216.72Q41.56 216.72 41.93 216.92Q42.21 217.08 42.43 217.36Q42.47 217.41 42.5 217.46Q42.93 218.08 42.93 218.99Q42.93 219.9 42.5 220.51Q42.47 220.56 42.43 220.61Q42.21 220.89 41.93 221.05Q41.56 221.25 41.08 221.25Q40.6 221.25 40.24 221.05Q39.95 220.89 39.73 220.61Q39.7 220.56 39.66 220.51Q39.23 219.9 39.23 218.99Q39.23 218.08 39.66 217.46ZM26.23 222.85Q26.23 221.16 26.64 219.85Q27.04 218.54 27.89 217.75Q28.28 217.38 28.75 217.18Q29.28 216.96 29.91 216.96Q30.55 216.96 31.09 217.19Q31.55 217.38 31.93 217.75Q32.77 218.54 33.18 219.85Q33.58 221.16 33.58 222.85Q33.58 224.54 33.18 225.86Q32.77 227.18 31.93 227.97Q31.55 228.33 31.09 228.53Q30.55 228.76 29.91 228.76Q29.28 228.76 28.75 228.53Q28.28 228.34 27.89 227.97Q27.04 227.18 26.64 225.86Q26.23 224.54 26.23 222.85ZM47.66 228.69Q47.87 229.07 48.17 229.4Q48.59 229.86 49.1 230.13Q49.8 230.48 50.68 230.48Q51.56 230.48 52.25 230.13Q52.77 229.86 53.19 229.4Q53.49 229.07 53.7 228.69Q54.16 227.83 54.16 226.72Q54.16 225.61 53.7 224.75Q53.49 224.36 53.19 224.03Q52.77 223.57 52.25 223.31Q51.56 222.95 50.68 222.95Q49.8 222.95 49.1 223.31Q48.59 223.57 48.17 224.03Q47.87 224.36 47.66 224.75Q47.19 225.61 47.19 226.72Q47.19 227.83 47.66 228.69ZM49.26 225.19Q49.29 225.14 49.33 225.09Q49.55 224.81 49.83 224.65Q50.2 224.45 50.68 224.45Q51.16 224.45 51.52 224.65Q51.81 224.81 52.03 225.09Q52.06 225.14 52.1 225.19Q52.52 225.81 52.52 226.72Q52.52 227.63 52.1 228.25Q52.06 228.3 52.03 228.34Q51.81 228.62 51.52 228.78Q51.16 228.98 50.68 228.98Q50.2 228.98 49.83 228.78Q49.55 228.62 49.33 228.34Q49.29 228.3 49.26 228.25Q48.83 227.63 48.83 226.72Q48.83 225.81 49.26 225.19Z" fill="#FFFFFF" fill-opacity="1.000000" fill-rule="evenodd"></path><path id="40%" d="M24.33 171.85Q24.33 174.08 24.98 175.79Q25.57 177.35 26.68 178.31Q26.79 178.4 26.9 178.49Q27.33 178.82 27.81 179.04Q28.76 179.48 29.91 179.48Q31.07 179.48 32.02 179.04Q32.5 178.82 32.92 178.49Q33.05 178.4 33.17 178.29Q34.26 177.34 34.85 175.79Q35.49 174.08 35.49 171.85Q35.49 169.63 34.85 167.91Q34.26 166.37 33.16 165.41Q33.05 165.31 32.92 165.22Q32.5 164.89 32.04 164.68Q31.08 164.23 29.91 164.23Q28.75 164.23 27.79 164.68Q27.32 164.89 26.9 165.22Q26.79 165.31 26.68 165.4Q25.57 166.35 24.98 167.91Q24.33 169.63 24.33 171.85ZM38.06 169.96Q38.27 170.34 38.57 170.67Q38.99 171.13 39.51 171.4Q40.2 171.75 41.08 171.75Q41.96 171.75 42.65 171.4Q43.17 171.13 43.59 170.67Q43.89 170.34 44.1 169.96Q44.57 169.1 44.57 167.99Q44.57 166.87 44.1 166.01Q43.89 165.63 43.59 165.31Q43.17 164.85 42.66 164.59Q41.96 164.23 41.08 164.23Q40.2 164.23 39.5 164.59Q38.99 164.85 38.57 165.31Q38.27 165.63 38.07 166.01Q37.59 166.87 37.59 167.99Q37.59 169.1 38.06 169.96ZM10.5 174.27L10.5 175.78L17.98 175.78L17.98 179.25L19.85 179.25L19.85 175.78L22.02 175.78L22.02 174.12L19.85 174.12L19.85 164.46L17.63 164.46L10.5 174.27ZM50.22 164.46L39.61 179.25L41.54 179.25L52.14 164.46L50.22 164.46ZM39.66 166.46Q39.7 166.41 39.73 166.36Q39.95 166.08 40.24 165.92Q40.6 165.72 41.08 165.72Q41.56 165.72 41.93 165.92Q42.21 166.08 42.43 166.36Q42.47 166.41 42.5 166.46Q42.93 167.08 42.93 167.99Q42.93 168.9 42.5 169.51Q42.47 169.56 42.43 169.61Q42.21 169.89 41.93 170.05Q41.56 170.25 41.08 170.25Q40.6 170.25 40.24 170.05Q39.95 169.89 39.73 169.61Q39.7 169.56 39.66 169.51Q39.23 168.9 39.23 167.99Q39.23 167.08 39.66 166.46ZM26.23 171.85Q26.23 170.16 26.64 168.85Q27.04 167.54 27.89 166.75Q28.28 166.38 28.75 166.18Q29.28 165.96 29.91 165.96Q30.55 165.96 31.09 166.19Q31.55 166.38 31.93 166.75Q32.77 167.54 33.18 168.85Q33.58 170.16 33.58 171.85Q33.58 173.54 33.18 174.86Q32.77 176.18 31.93 176.97Q31.55 177.33 31.09 177.53Q30.55 177.76 29.91 177.76Q29.28 177.76 28.75 177.53Q28.28 177.34 27.89 176.97Q27.04 176.18 26.64 174.86Q26.23 173.54 26.23 171.85ZM17.98 174.12L12.58 174.12L17.98 166.68L17.98 174.12ZM47.66 177.69Q47.87 178.07 48.17 178.4Q48.59 178.86 49.1 179.13Q49.8 179.48 50.68 179.48Q51.56 179.48 52.25 179.13Q52.77 178.86 53.19 178.4Q53.49 178.07 53.7 177.69Q54.16 176.83 54.16 175.72Q54.16 174.61 53.7 173.75Q53.49 173.36 53.19 173.03Q52.77 172.57 52.25 172.31Q51.56 171.95 50.68 171.95Q49.8 171.95 49.1 172.31Q48.59 172.57 48.17 173.03Q47.87 173.36 47.66 173.75Q47.19 174.61 47.19 175.72Q47.19 176.83 47.66 177.69ZM49.26 174.19Q49.29 174.14 49.33 174.09Q49.55 173.81 49.83 173.65Q50.2 173.45 50.68 173.45Q51.16 173.45 51.52 173.65Q51.81 173.81 52.03 174.09Q52.06 174.14 52.1 174.19Q52.52 174.81 52.52 175.72Q52.52 176.63 52.1 177.25Q52.06 177.3 52.03 177.34Q51.81 177.62 51.52 177.78Q51.16 177.98 50.68 177.98Q50.2 177.98 49.83 177.78Q49.55 177.62 49.33 177.34Q49.29 177.3 49.26 177.25Q48.83 176.63 48.83 175.72Q48.83 174.81 49.26 174.19Z" fill="#FFFFFF" fill-opacity="1.000000" fill-rule="evenodd"></path><path id="60%" d="M11.54 117.51Q11.1 119.02 11.1 120.98Q11.1 123.25 11.73 124.92Q12.24 126.27 13.19 127.15Q13.41 127.36 13.66 127.54Q13.83 127.66 14.01 127.77Q15.2 128.48 16.83 128.48Q18.19 128.48 19.26 127.93Q19.91 127.6 20.46 127.07Q20.97 126.58 21.3 125.99Q21.92 124.89 21.92 123.44Q21.92 122.24 21.45 121.26Q21.35 121.05 21.23 120.85Q20.73 120.03 20.01 119.49Q19.74 119.3 19.45 119.15Q19.04 118.93 18.59 118.79Q17.87 118.57 17.09 118.57Q16.23 118.57 15.46 118.82Q15.04 118.95 14.66 119.16Q14.05 119.48 13.6 119.95Q13.22 120.35 12.94 120.85Q12.96 119.29 13.27 118.14Q13.57 116.99 14.11 116.3Q14.65 115.61 15.33 115.28Q16.02 114.96 16.87 114.96Q18.07 114.96 18.79 115.52Q19.33 115.94 19.6 116.5Q19.69 116.68 19.75 116.88L21.66 116.88Q21.65 116.81 21.63 116.73Q21.5 116.11 21.15 115.53Q21.1 115.43 21.03 115.34Q20.68 114.8 20.17 114.36Q19.58 113.85 18.72 113.54Q17.86 113.23 16.87 113.23Q15.64 113.23 14.61 113.7Q14.6 113.7 14.6 113.7Q14.46 113.76 14.33 113.83Q13.46 114.29 12.78 115.09Q11.99 116.01 11.54 117.51ZM24.33 120.85Q24.33 123.08 24.98 124.79Q25.57 126.35 26.68 127.31Q26.79 127.4 26.9 127.49Q27.33 127.82 27.81 128.04Q28.76 128.48 29.91 128.48Q31.07 128.48 32.02 128.04Q32.5 127.82 32.92 127.49Q33.05 127.4 33.17 127.29Q34.26 126.34 34.85 124.79Q35.49 123.08 35.49 120.85Q35.49 118.63 34.85 116.91Q34.26 115.37 33.16 114.41Q33.05 114.31 32.92 114.22Q32.5 113.89 32.04 113.68Q31.08 113.23 29.91 113.23Q28.75 113.23 27.79 113.68Q27.32 113.89 26.9 114.22Q26.79 114.31 26.68 114.4Q25.57 115.35 24.98 116.91Q24.33 118.63 24.33 120.85ZM38.06 118.96Q38.27 119.34 38.57 119.67Q38.99 120.13 39.51 120.4Q40.2 120.75 41.08 120.75Q41.96 120.75 42.65 120.4Q43.17 120.13 43.59 119.67Q43.89 119.34 44.1 118.96Q44.57 118.1 44.57 116.99Q44.57 115.87 44.1 115.01Q43.89 114.63 43.59 114.31Q43.17 113.85 42.66 113.59Q41.96 113.23 41.08 113.23Q40.2 113.23 39.5 113.59Q38.99 113.85 38.57 114.31Q38.27 114.63 38.07 115.01Q37.59 115.87 37.59 116.99Q37.59 118.1 38.06 118.96ZM50.22 113.46L39.61 128.25L41.54 128.25L52.14 113.46L50.22 113.46ZM39.66 115.46Q39.7 115.41 39.73 115.36Q39.95 115.08 40.24 114.92Q40.6 114.72 41.08 114.72Q41.56 114.72 41.93 114.92Q42.21 115.08 42.43 115.36Q42.47 115.41 42.5 115.46Q42.93 116.08 42.93 116.99Q42.93 117.9 42.5 118.51Q42.47 118.56 42.43 118.61Q42.21 118.89 41.93 119.05Q41.56 119.25 41.08 119.25Q40.6 119.25 40.24 119.05Q39.95 118.89 39.73 118.61Q39.7 118.56 39.66 118.51Q39.23 117.9 39.23 116.99Q39.23 116.08 39.66 115.46ZM26.23 120.85Q26.23 119.16 26.64 117.85Q27.04 116.54 27.89 115.75Q28.28 115.38 28.75 115.18Q29.28 114.96 29.91 114.96Q30.55 114.96 31.09 115.19Q31.55 115.38 31.93 115.75Q32.77 116.54 33.18 117.85Q33.58 119.16 33.58 120.85Q33.58 122.54 33.18 123.86Q32.77 125.18 31.93 125.97Q31.55 126.33 31.09 126.53Q30.55 126.76 29.91 126.76Q29.28 126.76 28.75 126.53Q28.28 126.34 27.89 125.97Q27.04 125.18 26.64 123.86Q26.23 122.54 26.23 120.85ZM13.9 125.17Q13.49 124.44 13.49 123.48Q13.49 122.56 13.88 121.87Q14.1 121.48 14.44 121.16Q14.8 120.81 15.24 120.6Q15.92 120.27 16.77 120.27Q17.62 120.27 18.3 120.61Q18.72 120.82 19.07 121.15Q19.37 121.44 19.57 121.78Q20 122.5 20 123.48Q20 124.48 19.56 125.23Q19.36 125.56 19.08 125.85Q18.72 126.2 18.29 126.42Q17.61 126.76 16.77 126.76Q15.95 126.76 15.29 126.44Q14.82 126.22 14.44 125.85Q14.12 125.54 13.9 125.17ZM47.66 126.69Q47.87 127.07 48.17 127.4Q48.59 127.86 49.1 128.13Q49.8 128.48 50.68 128.48Q51.56 128.48 52.25 128.13Q52.77 127.86 53.19 127.4Q53.49 127.07 53.7 126.69Q54.16 125.83 54.16 124.72Q54.16 123.61 53.7 122.75Q53.49 122.36 53.19 122.03Q52.77 121.57 52.25 121.31Q51.56 120.95 50.68 120.95Q49.8 120.95 49.1 121.31Q48.59 121.57 48.17 122.03Q47.87 122.36 47.66 122.75Q47.19 123.61 47.19 124.72Q47.19 125.83 47.66 126.69ZM49.26 123.19Q49.29 123.14 49.33 123.09Q49.55 122.81 49.83 122.65Q50.2 122.45 50.68 122.45Q51.16 122.45 51.52 122.65Q51.81 122.81 52.03 123.09Q52.06 123.14 52.1 123.19Q52.52 123.81 52.52 124.72Q52.52 125.63 52.1 126.25Q52.06 126.3 52.03 126.34Q51.81 126.62 51.52 126.78Q51.16 126.98 50.68 126.98Q50.2 126.98 49.83 126.78Q49.55 126.62 49.33 126.34Q49.29 126.3 49.26 126.25Q48.83 125.63 48.83 124.72Q48.83 123.81 49.26 123.19Z" fill="#FFFFFF" fill-opacity="1.000000" fill-rule="evenodd"></path><path id="80%" d="M11.35 72.01Q11.16 72.58 11.16 73.22Q11.16 74.18 11.54 74.96Q11.91 75.72 12.65 76.3Q12.71 76.35 12.78 76.4Q14.24 77.48 16.49 77.48Q18.72 77.48 20.17 76.42Q20.25 76.36 20.32 76.3Q21.05 75.72 21.42 74.97Q21.8 74.19 21.8 73.22Q21.8 72.58 21.61 72.01Q21.42 71.44 21.13 71.04Q20.94 70.77 20.72 70.55Q20.59 70.43 20.46 70.31Q20.08 70 19.73 69.81Q19.37 69.63 19.03 69.53Q19.23 69.45 19.42 69.35Q19.61 69.25 19.79 69.13Q20.15 68.89 20.53 68.5Q20.9 68.11 21.12 67.52Q21.34 66.93 21.34 66.22Q21.34 65.4 21.04 64.72Q20.71 63.96 20 63.37Q19.89 63.27 19.77 63.19Q18.48 62.23 16.49 62.23Q14.47 62.23 13.16 63.2Q13.06 63.28 12.96 63.36Q12.27 63.94 11.93 64.69Q11.62 65.39 11.62 66.22Q11.62 66.93 11.84 67.52Q12.06 68.11 12.44 68.5Q12.81 68.89 13.17 69.13Q13.35 69.25 13.54 69.35Q13.73 69.45 13.93 69.53Q13.59 69.63 13.24 69.81Q12.88 70 12.5 70.31Q12.37 70.43 12.25 70.55Q12.02 70.77 11.83 71.04Q11.54 71.44 11.35 72.01ZM24.33 69.85Q24.33 72.08 24.98 73.79Q25.57 75.35 26.68 76.31Q26.79 76.4 26.9 76.49Q27.33 76.82 27.81 77.04Q28.76 77.48 29.91 77.48Q31.07 77.48 32.02 77.04Q32.5 76.82 32.92 76.49Q33.05 76.39 33.17 76.29Q34.26 75.33 34.85 73.79Q35.49 72.08 35.49 69.85Q35.49 67.63 34.85 65.91Q34.26 64.37 33.16 63.41Q33.05 63.31 32.92 63.22Q32.5 62.89 32.04 62.68Q31.08 62.23 29.91 62.23Q28.75 62.23 27.79 62.68Q27.32 62.89 26.9 63.22Q26.79 63.31 26.68 63.4Q25.57 64.35 24.98 65.91Q24.33 67.63 24.33 69.85ZM38.06 67.96Q38.27 68.34 38.57 68.67Q38.99 69.13 39.51 69.39Q40.2 69.75 41.08 69.75Q41.96 69.75 42.65 69.39Q43.17 69.13 43.59 68.67Q43.89 68.34 44.1 67.96Q44.57 67.1 44.57 65.99Q44.57 64.87 44.1 64.01Q43.89 63.63 43.59 63.3Q43.17 62.85 42.66 62.59Q41.96 62.23 41.08 62.23Q40.2 62.23 39.5 62.59Q38.99 62.85 38.57 63.3Q38.27 63.63 38.07 64.01Q37.59 64.87 37.59 65.99Q37.59 67.1 38.06 67.96ZM50.22 62.46L39.61 77.25L41.54 77.25L52.14 62.46L50.22 62.46ZM39.66 64.46Q39.7 64.41 39.73 64.36Q39.95 64.08 40.24 63.92Q40.6 63.72 41.08 63.72Q41.56 63.72 41.93 63.92Q42.21 64.08 42.43 64.36Q42.47 64.41 42.5 64.46Q42.93 65.08 42.93 65.99Q42.93 66.9 42.5 67.51Q42.47 67.56 42.43 67.61Q42.21 67.89 41.93 68.05Q41.56 68.25 41.08 68.25Q40.6 68.25 40.24 68.05Q39.95 67.89 39.73 67.61Q39.7 67.56 39.66 67.51Q39.23 66.9 39.23 65.99Q39.23 65.08 39.66 64.46ZM13.71 67.33Q13.51 66.89 13.51 66.37Q13.51 65.75 13.76 65.26Q13.97 64.88 14.33 64.59Q14.35 64.57 14.38 64.55Q15.19 63.91 16.49 63.91Q17.77 63.91 18.57 64.53Q18.61 64.56 18.64 64.59Q18.99 64.88 19.19 65.25Q19.45 65.74 19.45 66.37Q19.45 66.87 19.27 67.29Q19.05 67.77 18.6 68.13Q18.41 68.29 18.2 68.41Q17.46 68.83 16.49 68.83Q15.45 68.83 14.69 68.37Q14.52 68.26 14.36 68.14Q13.92 67.79 13.71 67.33ZM26.23 69.85Q26.23 68.16 26.64 66.85Q27.04 65.54 27.89 64.75Q28.28 64.38 28.75 64.18Q29.28 63.96 29.91 63.96Q30.55 63.96 31.09 64.19Q31.55 64.38 31.93 64.75Q32.77 65.54 33.18 66.85Q33.58 68.16 33.58 69.85Q33.58 71.54 33.18 72.86Q32.77 74.18 31.93 74.97Q31.55 75.33 31.09 75.53Q30.55 75.76 29.91 75.76Q29.28 75.76 28.75 75.53Q28.28 75.34 27.89 74.97Q27.04 74.18 26.64 72.86Q26.23 71.54 26.23 69.85ZM47.66 75.69Q47.87 76.07 48.17 76.4Q48.59 76.86 49.1 77.13Q49.8 77.48 50.68 77.48Q51.56 77.48 52.25 77.13Q52.77 76.86 53.19 76.4Q53.49 76.07 53.7 75.69Q54.16 74.83 54.16 73.72Q54.16 72.61 53.7 71.75Q53.49 71.36 53.19 71.03Q52.77 70.57 52.25 70.31Q51.56 69.95 50.68 69.95Q49.8 69.95 49.1 70.31Q48.59 70.57 48.17 71.03Q47.87 71.36 47.66 71.75Q47.19 72.61 47.19 73.72Q47.19 74.83 47.66 75.69ZM13.3 74.2Q13.07 73.72 13.07 73.13Q13.07 72.49 13.33 71.98Q13.57 71.51 14.04 71.14Q14.1 71.09 14.18 71.04Q15.11 70.4 16.49 70.4Q17.85 70.4 18.77 71.03Q18.85 71.08 18.93 71.14Q19.39 71.5 19.63 71.97Q19.9 72.49 19.9 73.13Q19.9 73.73 19.66 74.21Q19.43 74.69 18.96 75.06Q18.03 75.8 16.49 75.8Q14.94 75.8 14.01 75.06Q13.53 74.69 13.3 74.2ZM49.26 72.19Q49.29 72.14 49.33 72.09Q49.55 71.81 49.83 71.65Q50.2 71.45 50.68 71.45Q51.16 71.45 51.52 71.65Q51.81 71.81 52.03 72.09Q52.06 72.14 52.1 72.19Q52.52 72.81 52.52 73.72Q52.52 74.63 52.1 75.25Q52.06 75.3 52.03 75.34Q51.81 75.62 51.52 75.78Q51.16 75.98 50.68 75.98Q50.2 75.98 49.83 75.78Q49.55 75.62 49.33 75.34Q49.29 75.3 49.26 75.25Q48.83 74.63 48.83 73.72Q48.83 72.81 49.26 72.19Z" fill="#FFFFFF" fill-opacity="1.000000" fill-rule="evenodd"></path><path id="100%" d="M10.62 18.85Q10.62 21.08 11.27 22.79Q11.86 24.35 12.97 25.31Q13.08 25.4 13.2 25.49Q13.62 25.82 14.1 26.04Q15.05 26.48 16.21 26.48Q17.36 26.48 18.31 26.04Q18.79 25.82 19.22 25.49Q19.34 25.39 19.46 25.29Q20.56 24.33 21.14 22.79Q21.78 21.08 21.78 18.85Q21.78 16.63 21.14 14.91Q20.55 13.37 19.45 12.41Q19.34 12.31 19.22 12.22Q18.8 11.89 18.33 11.68Q17.37 11.23 16.21 11.23Q15.04 11.23 14.08 11.68Q13.62 11.89 13.2 12.22Q13.08 12.31 12.98 12.4Q11.86 13.35 11.27 14.91Q10.62 16.63 10.62 18.85ZM24.31 18.85Q24.31 21.08 24.96 22.79Q25.55 24.35 26.66 25.31Q26.77 25.4 26.89 25.49Q27.31 25.82 27.79 26.04Q28.74 26.48 29.9 26.48Q31.05 26.48 32 26.04Q32.48 25.82 32.9 25.49Q33.03 25.39 33.15 25.29Q34.24 24.33 34.83 22.79Q35.47 21.08 35.47 18.85Q35.47 16.63 34.83 14.91Q34.24 13.37 33.14 12.41Q33.03 12.31 32.9 12.22Q32.49 11.89 32.02 11.68Q31.06 11.23 29.9 11.23Q28.73 11.23 27.77 11.68Q27.31 11.89 26.89 12.22Q26.77 12.31 26.66 12.4Q25.55 13.35 24.96 14.91Q24.31 16.63 24.31 18.85ZM38.04 16.96Q38.25 17.34 38.55 17.67Q38.97 18.13 39.49 18.39Q40.18 18.75 41.06 18.75Q41.94 18.75 42.64 18.39Q43.15 18.13 43.57 17.67Q43.87 17.34 44.08 16.96Q44.55 16.1 44.55 14.99Q44.55 13.87 44.08 13.01Q43.87 12.63 43.57 12.3Q43.16 11.85 42.65 11.59Q41.95 11.23 41.06 11.23Q40.18 11.23 39.48 11.59Q38.97 11.85 38.55 12.3Q38.26 12.63 38.05 13.01Q37.58 13.87 37.58 14.99Q37.58 16.1 38.04 16.96ZM1.15 14.02L1.15 15.98L4.87 13.64L4.87 26.25L6.73 26.25L6.73 11.46L5.06 11.46L1.15 14.02ZM50.2 11.46L39.6 26.25L41.52 26.25L52.13 11.46L50.2 11.46ZM39.64 13.46Q39.68 13.41 39.71 13.36Q39.93 13.08 40.22 12.92Q40.58 12.72 41.06 12.72Q41.54 12.72 41.91 12.92Q42.19 13.08 42.41 13.36Q42.45 13.41 42.48 13.46Q42.91 14.08 42.91 14.99Q42.91 15.9 42.48 16.51Q42.45 16.56 42.41 16.61Q42.19 16.89 41.91 17.05Q41.54 17.25 41.06 17.25Q40.58 17.25 40.22 17.05Q39.93 16.89 39.71 16.61Q39.68 16.56 39.64 16.51Q39.22 15.9 39.22 14.99Q39.22 14.08 39.64 13.46ZM12.53 18.85Q12.53 17.16 12.93 15.85Q13.34 14.54 14.18 13.75Q14.57 13.38 15.04 13.18Q15.58 12.96 16.21 12.96Q16.84 12.96 17.38 13.19Q17.84 13.38 18.23 13.75Q19.07 14.54 19.47 15.85Q19.88 17.16 19.88 18.85Q19.88 20.54 19.47 21.86Q19.07 23.18 18.23 23.97Q17.84 24.33 17.38 24.53Q16.84 24.76 16.21 24.76Q15.58 24.76 15.04 24.53Q14.57 24.34 14.18 23.97Q13.34 23.18 12.93 21.86Q12.53 20.54 12.53 18.85ZM26.21 18.85Q26.21 17.16 26.62 15.85Q27.02 14.54 27.87 13.75Q28.26 13.38 28.73 13.18Q29.26 12.96 29.9 12.96Q30.53 12.96 31.07 13.19Q31.53 13.38 31.92 13.75Q32.76 14.54 33.16 15.85Q33.57 17.16 33.57 18.85Q33.57 20.54 33.16 21.86Q32.76 23.18 31.92 23.97Q31.53 24.33 31.07 24.53Q30.53 24.76 29.9 24.76Q29.26 24.76 28.73 24.53Q28.26 24.34 27.87 23.97Q27.02 23.18 26.62 21.86Q26.21 20.54 26.21 18.85ZM47.64 24.69Q47.85 25.07 48.15 25.4Q48.57 25.86 49.09 26.13Q49.78 26.48 50.66 26.48Q51.54 26.48 52.23 26.13Q52.75 25.86 53.17 25.4Q53.47 25.07 53.68 24.69Q54.15 23.83 54.15 22.72Q54.15 21.61 53.68 20.75Q53.47 20.36 53.17 20.03Q52.75 19.57 52.23 19.31Q51.54 18.95 50.66 18.95Q49.78 18.95 49.09 19.31Q48.57 19.57 48.15 20.03Q47.85 20.36 47.64 20.75Q47.17 21.61 47.17 22.72Q47.17 23.83 47.64 24.69ZM49.24 21.19Q49.27 21.14 49.31 21.09Q49.53 20.81 49.81 20.65Q50.18 20.45 50.66 20.45Q51.14 20.45 51.5 20.65Q51.79 20.81 52.01 21.09Q52.04 21.14 52.08 21.19Q52.51 21.81 52.51 22.72Q52.51 23.63 52.08 24.25Q52.04 24.3 52.01 24.34Q51.79 24.62 51.5 24.78Q51.14 24.98 50.66 24.98Q50.18 24.98 49.81 24.78Q49.53 24.62 49.31 24.34Q49.27 24.3 49.24 24.25Q48.81 23.63 48.81 22.72Q48.81 21.81 49.24 21.19Z" fill="#FFFFFF" fill-opacity="1.000000" fill-rule="evenodd"></path><rect id="Frame 141034" width="310.163361" height="157.007690" transform="translate(796.416260 12.750000)" fill="#FFFFFF" fill-opacity="0"></rect><rect id="Frame 141032" width="310.163361" height="18.359497" transform="translate(796.416260 151.398438)" fill="#FFFFFF" fill-opacity="0"></rect><path id="снизилось" d="M834.56 156.2Q833.71 157.57 833.71 159.46Q833.71 161.43 834.61 162.81Q834.83 163.14 835.1 163.45Q835.64 164.04 836.3 164.41Q837.35 164.99 838.72 164.99Q840.15 164.99 841.2 164.36Q841.53 164.17 841.83 163.91Q842.65 163.19 843.01 162.28Q843.19 161.83 843.25 161.33L841.45 161.33Q841.35 161.68 841.18 162Q841.17 162.01 841.16 162.03Q840.98 162.35 840.67 162.67Q840.36 162.98 839.86 163.16Q839.36 163.35 838.74 163.35Q837.98 163.35 837.37 163.04Q836.84 162.77 836.44 162.27Q836.39 162.22 836.35 162.16Q835.56 161.11 835.56 159.46Q835.56 157.78 836.37 156.72Q836.4 156.69 836.42 156.65Q836.81 156.17 837.31 155.91Q837.92 155.58 838.72 155.58Q839.8 155.58 840.46 156.11Q840.49 156.13 840.52 156.16Q840.95 156.54 841.21 157.01Q841.36 157.27 841.45 157.56L843.25 157.56Q843.14 156.9 842.81 156.28Q842.48 155.66 841.94 155.12Q841.41 154.58 840.56 154.26Q839.72 153.94 838.72 153.94Q837.32 153.94 836.26 154.53Q835.61 154.9 835.09 155.49Q834.79 155.83 834.56 156.2ZM870.8 161.73L869.02 161.73Q869.15 162.69 869.65 163.39Q869.96 163.82 870.42 164.14Q870.5 164.2 870.58 164.25Q871.73 164.99 873.37 164.99Q875.1 164.99 876.25 164.17Q876.31 164.13 876.36 164.09Q876.95 163.65 877.24 163.06Q877.54 162.46 877.54 161.71Q877.54 161.13 877.35 160.67Q877.16 160.2 876.85 159.92Q876.55 159.64 876.23 159.47Q875.92 159.31 875.59 159.23Q875.82 159.13 876.02 159Q876.38 158.77 876.66 158.41Q876.68 158.39 876.69 158.36Q877.1 157.81 877.1 156.96Q877.1 156.22 876.8 155.64Q876.54 155.14 876.05 154.76Q875.95 154.68 875.84 154.61Q874.84 153.94 873.39 153.94Q871.98 153.94 870.91 154.54Q870.74 154.63 870.58 154.74Q870.03 155.11 869.7 155.62Q869.32 156.22 869.22 157L870.99 157Q871.04 156.79 871.14 156.61Q871.35 156.22 871.76 155.95Q872.36 155.53 873.33 155.53Q874.25 155.53 874.78 155.93Q875.02 156.1 875.15 156.33Q875.31 156.63 875.31 157.02Q875.31 157.5 875.1 157.84Q874.98 158.02 874.8 158.17Q874.28 158.58 873.33 158.58L871.77 158.58L871.77 160.13L873.43 160.13Q875.01 160.13 875.51 160.86Q875.74 161.2 875.74 161.69Q875.74 162.1 875.57 162.42Q875.41 162.71 875.1 162.93Q874.47 163.39 873.41 163.39Q872.38 163.39 871.69 162.95Q871.34 162.73 871.11 162.42Q870.9 162.12 870.8 161.73ZM904.28 162.73Q904.52 163.11 904.82 163.44Q905.33 164 905.95 164.36Q907.05 164.99 908.51 164.99Q909.97 164.99 911.06 164.36Q911.68 164 912.19 163.44Q912.48 163.11 912.72 162.74Q913.58 161.38 913.58 159.46Q913.58 157.55 912.72 156.18Q912.48 155.81 912.19 155.48Q911.68 154.92 911.06 154.57Q909.97 153.94 908.51 153.94Q907.05 153.94 905.95 154.56Q905.33 154.92 904.82 155.48Q904.52 155.82 904.28 156.2Q903.42 157.56 903.42 159.46Q903.42 161.37 904.28 162.73ZM916.32 156.2Q915.47 157.57 915.47 159.46Q915.47 161.43 916.37 162.81Q916.58 163.14 916.85 163.45Q917.39 164.04 918.05 164.41Q919.1 164.99 920.47 164.99Q921.9 164.99 922.96 164.36Q923.29 164.17 923.59 163.91Q924.41 163.19 924.76 162.28Q924.94 161.83 925.01 161.33L923.2 161.33Q923.1 161.68 922.93 162Q922.93 162.01 922.92 162.03Q922.74 162.35 922.43 162.67Q922.11 162.98 921.62 163.16Q921.12 163.35 920.49 163.35Q919.73 163.35 919.12 163.04Q918.6 162.77 918.19 162.27Q918.15 162.22 918.1 162.16Q917.31 161.11 917.31 159.46Q917.31 157.78 918.13 156.72Q918.15 156.69 918.18 156.65Q918.56 156.17 919.06 155.91Q919.68 155.58 920.47 155.58Q921.56 155.58 922.21 156.11Q922.25 156.13 922.28 156.16Q922.71 156.54 922.97 157.01Q923.11 157.27 923.2 157.56L925.01 157.56Q924.89 156.9 924.56 156.28Q924.24 155.66 923.7 155.12Q923.16 154.58 922.32 154.26Q921.48 153.94 920.47 153.94Q919.07 153.94 918.01 154.53Q917.36 154.9 916.84 155.49Q916.55 155.83 916.32 156.2ZM845.66 154.17L845.66 164.75L847.47 164.75L847.47 160.07L852.69 160.07L852.69 164.75L854.5 164.75L854.5 154.17L852.69 154.17L852.69 158.44L847.47 158.44L847.47 154.17L845.66 154.17ZM857.65 154.17L857.65 164.75L859.43 164.75L864.83 156.96L864.83 164.75L866.61 164.75L866.61 154.17L864.83 154.17L859.43 161.98L859.43 154.17L857.65 154.17ZM880.06 154.17L880.06 164.75L881.85 164.75L887.24 156.96L887.24 164.75L889.02 164.75L889.02 154.17L887.24 154.17L881.85 161.98L881.85 154.17L880.06 154.17ZM890.91 163.15L890.91 164.79L891.41 164.79Q892.84 164.79 893.62 164.09Q893.73 163.98 893.83 163.87Q894.62 162.94 894.8 160.78L895.22 155.79L899.09 155.79L899.09 164.75L900.91 164.75L900.91 154.17L893.6 154.17L893.05 160.66Q892.94 162.07 892.56 162.61Q892.52 162.67 892.47 162.72Q892.07 163.15 891.2 163.15L890.91 163.15ZM927.41 154.17L927.41 164.75L931.57 164.75Q932.82 164.75 933.72 164.18Q934.02 163.99 934.28 163.73Q934.66 163.36 934.9 162.91Q935.31 162.13 935.31 161.14Q935.31 160.14 934.89 159.38Q934.65 158.95 934.29 158.59Q934.05 158.36 933.77 158.18Q932.87 157.6 931.59 157.6L929.22 157.6L929.22 154.17L927.41 154.17ZM906.07 156.73Q906.11 156.69 906.14 156.65Q906.5 156.22 906.95 155.96Q907.62 155.58 908.51 155.58Q909.4 155.58 910.07 155.96Q910.52 156.22 910.87 156.65Q910.89 156.68 910.92 156.72Q911.74 157.78 911.74 159.46Q911.74 161.15 910.92 162.21Q910.89 162.24 910.87 162.28Q910.52 162.71 910.07 162.96Q909.4 163.35 908.51 163.35Q907.62 163.35 906.95 162.97Q906.5 162.71 906.14 162.28Q906.11 162.23 906.07 162.19Q905.27 161.14 905.27 159.46Q905.27 157.79 906.07 156.73ZM931.36 163.15L929.22 163.15L929.22 159.19L931.36 159.19Q932.31 159.19 932.86 159.65Q932.9 159.69 932.94 159.72Q933.11 159.89 933.23 160.08Q933.51 160.53 933.51 161.14Q933.51 161.73 933.26 162.17Q933.13 162.4 932.94 162.59Q932.86 162.67 932.77 162.73Q932.23 163.15 931.36 163.15Z" fill="#FFFFFF" fill-opacity="1.000000" fill-rule="evenodd"></path><rect id="Rectangle 1004534" x="796.416260" y="151.398438" width="18.359653" height="18.359497" fill="#9173FA" fill-opacity="1.000000"></rect><rect id="фрейм 283" width="199.397339" height="41.640625" transform="translate(796.416260 70.757812)" fill="#FFFFFF" fill-opacity="0"></rect><path id="осталось без изменений" d="M834.59 80.37Q834.83 80.75 835.13 81.08Q835.64 81.64 836.26 82Q837.36 82.63 838.82 82.63Q840.28 82.63 841.37 82Q841.99 81.64 842.5 81.08Q842.79 80.75 843.03 80.38Q843.89 79.02 843.89 77.1Q843.89 75.19 843.03 73.82Q842.79 73.45 842.5 73.12Q841.99 72.56 841.37 72.21Q840.28 71.58 838.82 71.58Q837.36 71.58 836.26 72.2Q835.64 72.56 835.13 73.12Q834.83 73.46 834.59 73.84Q833.73 75.2 833.73 77.1Q833.73 79.01 834.59 80.37ZM846.63 73.84Q845.78 75.21 845.78 77.1Q845.78 79.07 846.68 80.45Q846.89 80.78 847.16 81.09Q847.7 81.68 848.36 82.05Q849.41 82.63 850.78 82.63Q852.21 82.63 853.27 82Q853.6 81.81 853.9 81.55Q854.72 80.83 855.07 79.92Q855.25 79.47 855.32 78.97L853.51 78.97Q853.41 79.32 853.24 79.64Q853.24 79.65 853.23 79.67Q853.05 79.99 852.74 80.31Q852.42 80.62 851.93 80.8Q851.43 80.99 850.8 80.99Q850.04 80.99 849.43 80.68Q848.91 80.41 848.5 79.91Q848.46 79.86 848.41 79.8Q847.62 78.75 847.62 77.1Q847.62 75.42 848.44 74.36Q848.46 74.33 848.49 74.29Q848.87 73.81 849.37 73.55Q849.99 73.22 850.78 73.22Q851.87 73.22 852.52 73.75Q852.56 73.77 852.59 73.8Q853.02 74.18 853.28 74.65Q853.42 74.91 853.51 75.2L855.32 75.2Q855.2 74.54 854.87 73.92Q854.55 73.3 854.01 72.76Q853.47 72.22 852.63 71.9Q851.79 71.58 850.78 71.58Q849.38 71.58 848.32 72.18Q847.67 72.54 847.15 73.13Q846.86 73.47 846.63 73.84ZM867.23 77.77Q866.83 78.45 866.83 79.37Q866.83 80.29 867.23 80.99Q867.48 81.41 867.87 81.74Q868.08 81.93 868.32 82.07Q869.23 82.63 870.48 82.63Q871.33 82.63 872.08 82.37Q872.24 82.31 872.4 82.24Q872.97 82 873.43 81.61Q873.67 81.39 873.89 81.13L873.89 82.39L875.59 82.39L875.59 75.38Q875.59 74.11 875.01 73.23Q874.78 72.88 874.46 72.6Q874.32 72.47 874.17 72.36Q873.1 71.58 871.45 71.58Q869.78 71.58 868.68 72.38Q868.64 72.4 868.61 72.43Q867.94 72.94 867.57 73.62Q867.34 74.07 867.23 74.58L868.97 74.58Q869.07 74.34 869.21 74.14Q869.44 73.8 869.82 73.56Q870.43 73.18 871.41 73.18Q872.36 73.18 872.98 73.62Q873.07 73.68 873.14 73.74Q873.29 73.87 873.41 74.03Q873.8 74.55 873.8 75.38L873.8 76.1L870.99 76.1Q869.06 76.1 867.94 76.97Q867.5 77.32 867.23 77.77ZM890.74 80.37Q890.98 80.75 891.28 81.08Q891.79 81.64 892.41 82Q893.51 82.63 894.97 82.63Q896.43 82.63 897.52 82Q898.14 81.64 898.65 81.08Q898.95 80.75 899.18 80.38Q900.04 79.02 900.04 77.1Q900.04 75.19 899.18 73.82Q898.95 73.45 898.65 73.12Q898.14 72.56 897.52 72.21Q896.43 71.58 894.97 71.58Q893.51 71.58 892.41 72.2Q891.79 72.56 891.28 73.12Q890.98 73.46 890.74 73.84Q889.88 75.2 889.88 77.1Q889.88 79.01 890.74 80.37ZM902.78 73.84Q901.93 75.21 901.93 77.1Q901.93 79.07 902.83 80.45Q903.04 80.78 903.31 81.09Q903.85 81.68 904.51 82.05Q905.56 82.63 906.93 82.63Q908.36 82.63 909.42 82Q909.75 81.81 910.05 81.55Q910.87 80.83 911.22 79.92Q911.4 79.47 911.47 78.97L909.66 78.97Q909.56 79.32 909.4 79.64Q909.39 79.65 909.38 79.67Q909.2 79.99 908.89 80.31Q908.57 80.62 908.08 80.8Q907.58 80.99 906.95 80.99Q906.19 80.99 905.58 80.68Q905.06 80.41 904.65 79.91Q904.61 79.86 904.56 79.8Q903.78 78.75 903.78 77.1Q903.78 75.42 904.59 74.36Q904.61 74.33 904.64 74.29Q905.02 73.81 905.52 73.55Q906.14 73.22 906.93 73.22Q908.02 73.22 908.67 73.75Q908.71 73.77 908.74 73.8Q909.17 74.18 909.43 74.65Q909.57 74.91 909.66 75.2L911.47 75.2Q911.35 74.54 911.02 73.92Q910.7 73.3 910.16 72.76Q909.62 72.22 908.78 71.9Q907.94 71.58 906.93 71.58Q905.53 71.58 904.47 72.18Q903.83 72.54 903.3 73.13Q903.01 73.47 902.78 73.84ZM856.53 71.81L856.53 73.43L860.07 73.43L860.07 82.39L861.88 82.39L861.88 73.43L865.45 73.43L865.45 71.81L856.53 71.81ZM877.37 80.79L877.37 82.43L877.87 82.43Q879.3 82.43 880.08 81.73Q880.19 81.62 880.29 81.51Q881.08 80.58 881.26 78.43L881.68 73.43L885.55 73.43L885.55 82.39L887.37 82.39L887.37 71.81L880.06 71.81L879.51 78.3Q879.4 79.71 879.02 80.25Q878.98 80.31 878.93 80.36Q878.53 80.79 877.66 80.79L877.37 80.79ZM913.88 71.81L913.88 82.39L918.03 82.39Q919.29 82.39 920.18 81.82Q920.48 81.63 920.74 81.37Q921.12 81 921.36 80.55Q921.77 79.77 921.77 78.78Q921.77 77.78 921.35 77.02Q921.11 76.59 920.75 76.23Q920.51 76 920.23 75.82Q919.33 75.24 918.05 75.24L915.68 75.24L915.68 71.81L913.88 71.81ZM836.38 74.37Q836.42 74.33 836.45 74.29Q836.81 73.86 837.26 73.6Q837.93 73.22 838.82 73.22Q839.71 73.22 840.38 73.6Q840.83 73.86 841.18 74.29Q841.2 74.32 841.23 74.36Q842.05 75.42 842.05 77.1Q842.05 78.79 841.23 79.85Q841.2 79.88 841.18 79.92Q840.83 80.35 840.38 80.6Q839.71 80.99 838.82 80.99Q837.93 80.99 837.26 80.61Q836.81 80.35 836.45 79.92Q836.42 79.87 836.38 79.83Q835.58 78.78 835.58 77.1Q835.58 75.43 836.38 74.37ZM892.53 74.37Q892.57 74.33 892.6 74.29Q892.96 73.86 893.41 73.6Q894.08 73.22 894.97 73.22Q895.86 73.22 896.53 73.6Q896.98 73.86 897.33 74.29Q897.35 74.32 897.38 74.36Q898.2 75.42 898.2 77.1Q898.2 78.79 897.38 79.85Q897.35 79.88 897.33 79.92Q896.98 80.35 896.53 80.6Q895.86 80.99 894.97 80.99Q894.08 80.99 893.41 80.61Q892.96 80.35 892.6 79.92Q892.57 79.87 892.53 79.83Q891.73 78.78 891.73 77.1Q891.73 75.43 892.53 74.37ZM917.82 80.79L915.68 80.79L915.68 76.83L917.82 76.83Q918.77 76.83 919.32 77.29Q919.36 77.33 919.4 77.36Q919.57 77.53 919.69 77.72Q919.97 78.17 919.97 78.78Q919.97 79.37 919.72 79.81Q919.59 80.04 919.4 80.23Q919.32 80.31 919.23 80.37Q918.69 80.79 917.82 80.79ZM868.89 80.23Q868.66 79.86 868.66 79.35Q868.66 78.89 868.85 78.56Q869.02 78.27 869.32 78.07Q869.98 77.63 871.1 77.63L873.8 77.63L873.8 78.4Q873.8 79.05 873.54 79.56Q873.32 79.99 872.91 80.32Q872.7 80.49 872.47 80.62Q871.71 81.05 870.72 81.05Q869.82 81.05 869.25 80.62Q869.24 80.61 869.23 80.6Q869.02 80.44 868.89 80.23ZM972.51 91.96L970.89 91.96Q970.91 93.02 971.4 93.79Q971.58 94.08 971.84 94.33Q972.08 94.57 972.37 94.75Q973.15 95.23 974.23 95.23Q975.31 95.23 976.09 94.75Q976.38 94.57 976.62 94.33Q976.88 94.08 977.06 93.79Q977.55 93.02 977.57 91.96L975.95 91.96Q975.95 92.56 975.69 93.01Q975.61 93.15 975.5 93.28Q975.38 93.42 975.23 93.53Q974.83 93.81 974.23 93.81Q973.63 93.81 973.23 93.53Q973.08 93.42 972.96 93.28Q972.85 93.15 972.77 93.01Q972.51 92.56 972.51 91.96ZM835.06 95.33Q833.87 97.26 833.87 101.2Q833.87 104.24 835.32 105.93Q835.85 106.56 836.52 106.95Q837.67 107.63 839.22 107.63Q840.43 107.63 841.41 107.16Q841.65 107.04 841.88 106.9Q842.45 106.53 842.88 106.05Q843.33 105.55 843.63 104.93Q843.64 104.91 843.65 104.9Q844.23 103.68 844.23 102.18Q844.23 100.91 843.86 99.89Q843.48 98.86 842.83 98.2Q842.57 97.93 842.28 97.72Q841.82 97.39 841.29 97.17Q841.27 97.17 841.26 97.16Q840.39 96.81 839.38 96.81Q837.79 96.81 836.72 97.56Q836.14 97.97 835.71 98.6Q835.89 96.76 836.73 95.76Q837.57 94.76 839.32 94.43L843.18 93.73L843.18 91.98L838.94 92.84Q836.81 93.28 835.62 94.58Q835.31 94.93 835.06 95.33ZM847.16 105.7Q847.33 105.92 847.52 106.13Q847.96 106.6 848.49 106.92Q849.65 107.63 851.24 107.63Q852.22 107.63 853.03 107.35Q853.85 107.07 854.36 106.61Q854.86 106.15 855.17 105.66Q855.48 105.17 855.59 104.67L853.77 104.67Q853.6 105.16 852.93 105.58Q852.26 106.01 851.27 106.01Q850.31 106.01 849.59 105.6Q849.22 105.39 848.91 105.07Q848.61 104.75 848.4 104.37Q848 103.64 848 102.69L848 102.65L855.72 102.65L855.72 101.72Q855.72 99.57 854.68 98.22Q854.58 98.09 854.46 97.97Q854.06 97.52 853.57 97.22Q852.53 96.58 851.1 96.58Q849.71 96.58 848.65 97.17Q848.02 97.52 847.5 98.07Q847.33 98.26 847.18 98.45Q846.12 99.88 846.12 102.1Q846.12 104.28 847.16 105.7ZM859.18 104.37L857.4 104.37Q857.52 105.33 858.03 106.03Q858.34 106.46 858.8 106.78Q858.88 106.84 858.95 106.89Q860.11 107.63 861.74 107.63Q863.48 107.63 864.63 106.81Q864.68 106.77 864.74 106.73Q865.32 106.29 865.62 105.7Q865.92 105.1 865.92 104.35Q865.92 103.77 865.73 103.31Q865.54 102.84 865.23 102.56Q864.92 102.28 864.61 102.11Q864.3 101.95 863.97 101.87Q864.2 101.78 864.4 101.64Q864.76 101.41 865.04 101.05Q865.06 101.03 865.07 101.01Q865.48 100.45 865.48 99.6Q865.48 98.86 865.17 98.28Q864.91 97.78 864.43 97.4Q864.33 97.32 864.22 97.25Q863.22 96.58 861.77 96.58Q860.36 96.58 859.28 97.18Q859.12 97.27 858.96 97.38Q858.41 97.75 858.08 98.26Q857.7 98.86 857.6 99.64L859.37 99.64Q859.42 99.43 859.52 99.25Q859.72 98.86 860.13 98.59Q860.74 98.18 861.7 98.18Q862.63 98.18 863.16 98.57Q863.39 98.74 863.52 98.97Q863.69 99.27 863.69 99.66Q863.69 100.14 863.48 100.48Q863.36 100.67 863.17 100.81Q862.66 101.22 861.7 101.22L860.14 101.22L860.14 102.77L861.81 102.77Q863.39 102.77 863.89 103.5Q864.11 103.84 864.11 104.33Q864.11 104.74 863.94 105.06Q863.79 105.35 863.48 105.57Q862.85 106.03 861.79 106.03Q860.76 106.03 860.07 105.59Q859.71 105.37 859.49 105.06Q859.28 104.76 859.18 104.37ZM886.21 104.37L884.43 104.37Q884.55 105.33 885.05 106.03Q885.37 106.46 885.83 106.78Q885.91 106.84 885.98 106.89Q887.14 107.63 888.77 107.63Q890.51 107.63 891.66 106.81Q891.71 106.77 891.77 106.73Q892.35 106.29 892.65 105.7Q892.95 105.1 892.95 104.35Q892.95 103.77 892.76 103.31Q892.57 102.84 892.26 102.56Q891.95 102.28 891.64 102.11Q891.33 101.95 891 101.87Q891.23 101.78 891.43 101.64Q891.79 101.41 892.07 101.05Q892.09 101.03 892.1 101.01Q892.51 100.45 892.51 99.6Q892.51 98.86 892.2 98.28Q891.94 97.78 891.46 97.4Q891.36 97.32 891.25 97.25Q890.25 96.58 888.79 96.58Q887.39 96.58 886.31 97.18Q886.15 97.27 885.98 97.38Q885.44 97.75 885.11 98.26Q884.73 98.86 884.63 99.64L886.39 99.64Q886.45 99.43 886.55 99.25Q886.75 98.86 887.16 98.59Q887.77 98.18 888.73 98.18Q889.66 98.18 890.19 98.57Q890.42 98.74 890.55 98.97Q890.72 99.27 890.72 99.66Q890.72 100.14 890.51 100.48Q890.39 100.67 890.2 100.81Q889.69 101.22 888.73 101.22L887.17 101.22L887.17 102.77L888.84 102.77Q890.42 102.77 890.92 103.5Q891.14 103.84 891.14 104.33Q891.14 104.74 890.97 105.06Q890.82 105.35 890.51 105.57Q889.88 106.03 888.81 106.03Q887.79 106.03 887.1 105.59Q886.74 105.37 886.52 105.06Q886.31 104.76 886.21 104.37ZM911.09 105.7Q911.26 105.92 911.46 106.13Q911.89 106.6 912.42 106.92Q913.58 107.63 915.18 107.63Q916.15 107.63 916.97 107.35Q917.78 107.07 918.29 106.61Q918.8 106.15 919.1 105.66Q919.41 105.17 919.53 104.67L917.7 104.67Q917.54 105.16 916.86 105.58Q916.19 106.01 915.2 106.01Q914.24 106.01 913.52 105.6Q913.15 105.39 912.84 105.07Q912.54 104.75 912.34 104.37Q911.94 103.64 911.94 102.69L911.94 102.65L919.65 102.65L919.65 101.72Q919.65 99.57 918.61 98.22Q918.51 98.09 918.4 97.97Q917.99 97.52 917.5 97.22Q916.46 96.58 915.03 96.58Q913.64 96.58 912.58 97.17Q911.95 97.52 911.43 98.07Q911.27 98.26 911.12 98.45Q910.05 99.88 910.05 102.1Q910.05 104.28 911.09 105.7ZM934.56 105.7Q934.73 105.92 934.93 106.13Q935.37 106.6 935.89 106.92Q937.05 107.63 938.65 107.63Q939.62 107.63 940.44 107.35Q941.25 107.07 941.76 106.61Q942.27 106.15 942.58 105.66Q942.88 105.17 943 104.67L941.17 104.67Q941.01 105.16 940.34 105.58Q939.66 106.01 938.67 106.01Q937.72 106.01 937 105.6Q936.62 105.39 936.32 105.07Q936.01 104.75 935.81 104.37Q935.41 103.64 935.41 102.69L935.41 102.65L943.12 102.65L943.12 101.72Q943.12 99.57 942.08 98.22Q941.98 98.09 941.87 97.97Q941.46 97.52 940.97 97.22Q939.94 96.58 938.51 96.58Q937.12 96.58 936.05 97.17Q935.42 97.52 934.91 98.07Q934.74 98.26 934.59 98.45Q933.52 99.88 933.52 102.1Q933.52 104.28 934.56 105.7ZM873.05 96.81L873.05 107.39L874.84 107.39L880.23 99.6L880.23 107.39L882.02 107.39L882.02 96.81L880.23 96.81L874.84 104.63L874.84 96.81L873.05 96.81ZM895.47 96.81L895.47 107.39L897.23 107.39L897.23 99.7L900.76 107.39L902.27 107.39L905.77 99.7L905.77 107.39L907.54 107.39L907.54 96.81L905.35 96.81L901.51 105.25L897.67 96.81L895.47 96.81ZM922.17 96.81L922.17 107.39L923.98 107.39L923.98 102.71L929.2 102.71L929.2 107.39L931.01 107.39L931.01 96.81L929.2 96.81L929.2 101.08L923.98 101.08L923.98 96.81L922.17 96.81ZM945.64 96.81L945.64 107.39L947.45 107.39L947.45 102.71L952.68 102.71L952.68 107.39L954.48 107.39L954.48 96.81L952.68 96.81L952.68 101.08L947.45 101.08L947.45 96.81L945.64 96.81ZM957.63 96.81L957.63 107.39L959.41 107.39L964.81 99.6L964.81 107.39L966.59 107.39L966.59 96.81L964.81 96.81L959.41 104.63L959.41 96.81L957.63 96.81ZM969.74 96.81L969.74 107.39L971.52 107.39L976.92 99.6L976.92 107.39L978.7 107.39L978.7 96.81L976.92 96.81L971.52 104.63L971.52 96.81L969.74 96.81ZM853.89 101.12L848.04 101.12Q848.13 100.06 848.66 99.33Q848.79 99.16 848.95 99Q849.17 98.78 849.42 98.62Q850.1 98.2 851.05 98.2Q852.01 98.2 852.68 98.64Q852.89 98.78 853.07 98.97Q853.13 99.02 853.17 99.08Q853.83 99.84 853.89 101.12ZM917.82 101.12L911.97 101.12Q912.06 100.06 912.6 99.33Q912.73 99.16 912.88 99Q913.1 98.78 913.36 98.62Q914.04 98.2 914.98 98.2Q915.95 98.2 916.61 98.64Q916.83 98.78 917.01 98.97Q917.06 99.02 917.11 99.08Q917.77 99.84 917.82 101.12ZM941.29 101.12L935.44 101.12Q935.53 100.06 936.07 99.33Q936.2 99.16 936.35 99Q936.57 98.78 936.83 98.62Q937.51 98.2 938.45 98.2Q939.42 98.2 940.09 98.64Q940.3 98.78 940.48 98.97Q940.53 99.02 940.58 99.08Q941.24 99.84 941.29 101.12ZM836.62 104.84Q835.79 103.81 835.79 102.1Q835.79 100.59 836.53 99.66Q836.63 99.53 836.75 99.41Q837.12 99.02 837.57 98.79Q838.27 98.43 839.16 98.43Q840.01 98.43 840.66 98.79Q841.13 99.04 841.5 99.48Q841.61 99.61 841.7 99.74Q842.39 100.73 842.39 102.18Q842.39 103.67 841.69 104.67Q841.6 104.8 841.49 104.93Q841.13 105.37 840.66 105.62Q839.99 105.99 839.12 105.99Q838.2 105.99 837.5 105.59Q837.06 105.34 836.7 104.94Q836.66 104.89 836.62 104.84Z" fill="#FFFFFF" fill-opacity="1.000000" fill-rule="evenodd"></path><rect id="Rectangle 1004533" x="796.416260" y="70.757812" width="18.359653" height="18.359497" fill="#C3B6FF" fill-opacity="1.000000"></rect><rect id="Frame 141030" width="263.083282" height="19.007568" transform="translate(796.416260 12.750000)" fill="#FFFFFF" fill-opacity="0"></rect><path id="увеличилось" d="M856.43 25.06Q856.6 25.28 856.8 25.49Q857.23 25.96 857.76 26.28Q858.92 26.99 860.52 26.99Q861.49 26.99 862.31 26.71Q863.12 26.42 863.63 25.97Q864.14 25.51 864.45 25.02Q864.75 24.53 864.87 24.03L863.04 24.03Q862.88 24.52 862.21 24.94Q861.53 25.37 860.54 25.37Q859.59 25.37 858.87 24.96Q858.49 24.75 858.19 24.42Q857.88 24.11 857.68 23.73Q857.28 23 857.28 22.05L857.28 22.01L864.99 22.01L864.99 21.08Q864.99 18.93 863.95 17.58Q863.85 17.45 863.74 17.33Q863.33 16.88 862.84 16.57Q861.81 15.93 860.37 15.93Q858.98 15.93 857.92 16.52Q857.29 16.87 856.78 17.43Q856.61 17.62 856.46 17.81Q855.39 19.24 855.39 21.46Q855.39 23.64 856.43 25.06ZM926.7 24.73Q926.94 25.1 927.25 25.44Q927.75 26 928.38 26.36Q929.48 26.99 930.93 26.99Q932.39 26.99 933.49 26.36Q934.11 26 934.61 25.44Q934.91 25.11 935.14 24.74Q936.01 23.37 936.01 21.46Q936.01 19.55 935.14 18.18Q934.91 17.81 934.61 17.48Q934.11 16.92 933.49 16.57Q932.39 15.93 930.93 15.93Q929.48 15.93 928.38 16.56Q927.75 16.92 927.25 17.48Q926.94 17.82 926.7 18.2Q925.85 19.56 925.85 21.46Q925.85 23.36 926.7 24.73ZM938.74 18.2Q937.89 19.57 937.89 21.46Q937.89 23.43 938.79 24.81Q939.01 25.14 939.28 25.45Q939.82 26.04 940.48 26.41Q941.53 26.99 942.9 26.99Q944.33 26.99 945.38 26.36Q945.71 26.17 946.01 25.91Q946.83 25.19 947.19 24.28Q947.37 23.83 947.43 23.33L945.63 23.33Q945.53 23.68 945.36 24Q945.35 24.01 945.34 24.03Q945.16 24.35 944.85 24.67Q944.54 24.98 944.04 25.16Q943.54 25.35 942.92 25.35Q942.16 25.35 941.55 25.04Q941.02 24.77 940.62 24.27Q940.57 24.22 940.53 24.16Q939.74 23.1 939.74 21.46Q939.74 19.78 940.55 18.72Q940.58 18.68 940.6 18.65Q940.99 18.17 941.48 17.91Q942.1 17.58 942.9 17.58Q943.98 17.58 944.64 18.1Q944.67 18.13 944.7 18.16Q945.13 18.54 945.39 19.01Q945.54 19.27 945.63 19.55L947.43 19.55Q947.32 18.9 946.99 18.28Q946.66 17.66 946.12 17.12Q945.58 16.58 944.74 16.26Q943.9 15.93 942.9 15.93Q941.5 15.93 940.44 16.53Q939.79 16.9 939.27 17.49Q938.97 17.83 938.74 18.2ZM835.04 16.17L833.09 16.17L837.24 26.63L835.6 30.76L837.56 30.76L843.35 16.17L841.41 16.17L838.23 24.42L835.04 16.17ZM845.24 16.17L845.24 26.75L849.98 26.75Q851.56 26.75 852.5 25.97Q852.53 25.94 852.57 25.91Q852.99 25.53 853.23 25.06Q853.52 24.47 853.52 23.75Q853.52 22.82 853.08 22.19Q853.03 22.11 852.98 22.05Q852.62 21.61 852.17 21.37Q851.93 21.24 851.66 21.16Q851.76 21.12 851.86 21.07Q852.31 20.83 852.64 20.35Q853.04 19.77 853.04 18.9Q853.04 18.21 852.77 17.67Q852.56 17.26 852.19 16.93Q851.34 16.17 849.73 16.17L845.24 16.17ZM866.15 25.15L866.15 26.79L866.65 26.79Q868.08 26.79 868.86 26.08Q868.97 25.98 869.07 25.87Q869.86 24.94 870.03 22.78L870.45 17.79L874.33 17.79L874.33 26.75L876.15 26.75L876.15 16.17L868.83 16.17L868.29 22.66Q868.18 24.07 867.79 24.61Q867.75 24.67 867.7 24.72Q867.31 25.15 866.43 25.15L866.15 25.15ZM879.29 16.17L879.29 26.75L881.08 26.75L886.47 18.96L886.47 26.75L888.26 26.75L888.26 16.17L886.47 16.17L881.08 23.98L881.08 16.17L879.29 16.17ZM890.98 16.17L890.98 18.73Q890.98 20.63 891.93 21.7Q892.02 21.81 892.13 21.91Q892.3 22.07 892.49 22.21Q893.56 22.99 895.2 22.99Q896.61 22.99 897.54 22.47L897.54 26.75L899.34 26.75L899.34 16.17L897.54 16.17L897.54 20.81Q896.68 21.36 895.41 21.36Q894.23 21.36 893.56 20.77Q893.51 20.73 893.47 20.69Q893.45 20.68 893.44 20.66Q892.79 20 892.79 18.69L892.79 16.17L890.98 16.17ZM902.49 16.17L902.49 26.75L904.27 26.75L909.67 18.96L909.67 26.75L911.45 26.75L911.45 16.17L909.67 16.17L904.27 23.98L904.27 16.17L902.49 16.17ZM913.34 25.15L913.34 26.79L913.84 26.79Q915.26 26.79 916.05 26.08Q916.16 25.98 916.26 25.87Q917.05 24.94 917.22 22.78L917.64 17.79L921.52 17.79L921.52 26.75L923.33 26.75L923.33 16.17L916.02 16.17L915.48 22.66Q915.37 24.07 914.98 24.61Q914.94 24.67 914.89 24.72Q914.49 25.15 913.62 25.15L913.34 25.15ZM949.84 16.17L949.84 26.75L953.99 26.75Q955.25 26.75 956.14 26.18Q956.44 25.99 956.71 25.73Q957.08 25.36 957.32 24.91Q957.74 24.13 957.74 23.14Q957.74 22.14 957.31 21.37Q957.08 20.95 956.71 20.59Q956.47 20.36 956.2 20.18Q955.3 19.6 954.01 19.6L951.64 19.6L951.64 16.17L949.84 16.17ZM863.16 20.48L857.31 20.48Q857.4 19.42 857.94 18.69Q858.07 18.52 858.22 18.36Q858.44 18.14 858.7 17.98Q859.38 17.55 860.32 17.55Q861.29 17.55 861.96 18Q862.17 18.14 862.35 18.33Q862.4 18.38 862.45 18.44Q863.11 19.2 863.16 20.48ZM928.5 18.73Q928.53 18.69 928.57 18.65Q928.92 18.21 929.38 17.96Q930.04 17.58 930.93 17.58Q931.82 17.58 932.49 17.96Q932.94 18.22 933.29 18.65Q933.32 18.68 933.35 18.72Q934.16 19.78 934.16 21.46Q934.16 23.15 933.35 24.2Q933.32 24.24 933.29 24.28Q932.94 24.71 932.49 24.96Q931.82 25.35 930.93 25.35Q930.04 25.35 929.38 24.97Q928.92 24.71 928.57 24.28Q928.53 24.23 928.5 24.19Q927.69 23.13 927.69 21.46Q927.69 19.79 928.5 18.73ZM849.56 20.56L847.02 20.56L847.02 17.72L849.56 17.72Q850.39 17.72 850.82 18.08Q850.94 18.17 851.02 18.29Q851.26 18.61 851.26 19.11Q851.26 19.59 851.04 19.92Q850.95 20.06 850.82 20.17Q850.38 20.56 849.56 20.56ZM953.79 25.15L951.64 25.15L951.64 21.18L953.79 21.18Q954.73 21.18 955.28 21.65Q955.33 21.68 955.37 21.72Q955.54 21.89 955.66 22.08Q955.93 22.53 955.93 23.14Q955.93 23.72 955.68 24.17Q955.56 24.4 955.36 24.59Q955.28 24.67 955.2 24.73Q954.65 25.15 953.79 25.15ZM849.77 25.19L847.02 25.19L847.02 22.09L849.77 22.09Q850.96 22.09 851.42 22.67Q851.7 23.02 851.7 23.6Q851.7 24.16 851.44 24.53Q851.34 24.67 851.21 24.78Q850.73 25.19 849.77 25.19Z" fill="#FFFFFF" fill-opacity="1.000000" fill-rule="evenodd"></path><rect id="Rectangle 1004532" x="796.416260" y="12.750000" width="18.359653" height="18.359497" fill="#82E1E1" fill-opacity="1.000000"></rect></g></svg> 