<?xml version="1.0" encoding="UTF-8"?> <svg xmlns="http://www.w3.org/2000/svg" xmlns:xlink="http://www.w3.org/1999/xlink" width="390.000000" height="390.000000" viewBox="0 0 390 390" fill="none"><desc> Created with Pixso. </desc><defs><clipPath id="clip223_2906"><rect id="Frame 141083" width="390.000000" height="390.000000" fill="white" fill-opacity="0"></rect></clipPath></defs><g clip-path="url(#clip223_2906)"><rect id="Rectangle 1002651" x="233.547852" y="167.657227" width="139.355469" height="139.355438" transform="rotate(180 233.547852 167.657227)" fill="#3216B5" fill-opacity="1.000000"></rect><rect id="Rectangle 1002652" x="187.670898" y="167.659668" width="33.436089" height="33.436089" transform="rotate(135 187.670898 167.659668)" fill="#3216B5" fill-opacity="1.000000"></rect><ellipse id="Ellipse 1244" cx="163.870117" cy="71.401367" rx="8.749716" ry="8.749714" fill="#F6F3FE" fill-opacity="1.000000"></ellipse><rect id="Rectangle 1004345" x="155.725586" y="87.238281" width="16.288292" height="40.172058" fill="#F6F3FE" fill-opacity="1.000000"></rect><circle id="Эллипс 11" r="52.501221" transform="matrix(0.781304 0.624151 -0.624151 0.781304 148.925 280.351)" fill="#37C8D2" fill-opacity="1.000000"></circle><rect id="Прямоугольник 64" x="305.958984" y="256.169434" width="51.494659" height="51.494659" transform="rotate(73.2158 305.958984 256.169434)" fill="#9173FA" fill-opacity="1.000000"></rect><path id="Vector 973" d="M4.44 315.35C10.66 316.72 16.16 312.91 21.51 310.36C24.82 308.78 27.65 306.62 30.79 304.72C39.16 299.74 74.71 278.93 91.44 269.15C113.96 256.87 123.37 257.84 125.27 259.86C130.71 265.68 122.95 274.7 121.17 276.8C115.19 283.85 105.77 287.37 98.53 293.1C89.24 299.67 76.16 314.15 98.14 319.52C105.33 321.44 108.63 322.68 117.17 324.29" stroke="#FFFFFF" stroke-opacity="1.000000" stroke-width="4.000000"></path><path id="Vector 974" d="M130.62 323.26Q121.11 323.21 117.11 322.23C116.02 321.97 114.96 322.61 114.7 323.7C114.43 324.79 115.08 325.85 116.17 326.12Q120.63 327.21 130.61 327.26Q134.65 327.28 136.48 327.37Q144.83 327.61 162.49 323.25Q175.45 320.05 187.84 315.95L187.88 315.93L187.92 315.92Q209.55 307.66 212.11 311.64Q212.12 311.66 212.13 311.67Q212.43 312.16 212.52 312.68Q212.79 314.17 211.42 315.95Q209.21 318.83 203.32 322.19Q192.9 328.12 172.21 334.85Q156.82 339.86 138.04 344.6Q123.68 348.23 120.28 348.73L120.26 348.73L118.28 349.02L118.85 352.98L120.83 352.69L120.85 352.69Q124.46 352.16 139.03 348.48Q157.93 343.71 173.45 338.66Q194.52 331.8 205.3 325.66Q211.89 321.91 214.59 318.39Q216.79 315.53 216.62 312.82Q216.51 311.17 215.53 309.57Q215.37 309.32 215.2 309.1Q210.4 303.06 186.53 312.16Q174.31 316.21 161.53 319.37Q144.4 323.59 136.67 323.37Q134.76 323.28 130.62 323.26Z" fill="#FFFFFF" fill-opacity="1.000000" fill-rule="evenodd"></path><path id="Vector 975" d="M215.12 325.22Q214.35 322.21 210.48 319.98C209.51 319.43 208.31 319.75 207.76 320.72C207.2 321.69 207.52 322.89 208.49 323.45Q210.85 324.81 211.17 326.54Q211.33 327.48 210.9 328.52Q209.6 331.65 204.83 334.84L190.48 343.11Q185.74 345.84 180.76 348.03Q175.78 350.22 170.56 351.87L153.13 357.38L153.1 357.39Q151.74 357.87 137.85 360.99Q123.95 364.11 122.33 364.67L122.31 364.67L120.43 365.34L121.76 369.11L123.64 368.45L123.66 368.44Q125.07 367.96 138.73 364.89Q152.69 361.76 154.4 361.18L171.77 355.69Q177.2 353.97 182.37 351.69Q187.55 349.41 192.48 346.57L206.94 338.25L206.99 338.21Q212.82 334.33 214.59 330.06Q215.68 327.43 215.12 325.22Z" fill="#FFFFFF" fill-opacity="1.000000" fill-rule="evenodd"></path><path id="Vector 976" d="M202.68 344.09Q202.3 341.66 199.97 339.53C199.14 338.77 197.9 338.82 197.14 339.65C196.39 340.48 196.45 341.72 197.27 342.48Q198.54 343.64 198.68 344.92Q198.77 345.76 198.37 346.66Q197.25 349.16 193.07 352.23Q187.77 356.12 177 360.97Q176.25 361.3 175.92 361.45Q168.01 364.45 157.5 367.55Q136.53 373.73 123.73 374.18L123.71 374.18L121.72 374.25L121.86 378.25L123.86 378.18L123.88 378.18Q137.18 377.71 158.64 371.38Q169.33 368.23 177.41 365.17L177.47 365.14L177.54 365.12Q177.83 364.98 178.64 364.62Q189.81 359.59 195.44 355.46Q200.47 351.76 202.02 348.3Q203 346.09 202.68 344.09Z" fill="#FFFFFF" fill-opacity="1.000000" fill-rule="evenodd"></path><path id="Vector 977" d="M180.89 364.64Q180.74 363.34 179.72 362.14C178.99 361.29 177.75 361.19 176.9 361.92C176.05 362.65 175.95 363.89 176.68 364.74Q176.79 364.87 176.82 365.02Q176.88 365.27 176.7 365.58Q176.05 366.72 173.72 368.24Q169.23 371.17 159.7 374.6Q142.55 380.79 133.27 382.21Q115.16 384.97 98.38 383.41Q88.44 382.49 71.7 378.79Q56.72 375.48 49.01 374.83Q42.37 374.28 35.82 374.81Q29.8 375.29 23.86 376.7Q20.48 377.39 15.47 377.79L15.45 377.8L13.46 377.96L13.79 381.95L15.78 381.78L15.8 381.78Q21.07 381.35 24.69 380.62L24.73 380.61L24.76 380.6Q30.4 379.26 36.12 378.8Q42.36 378.29 48.68 378.82Q56.12 379.45 70.84 382.7Q87.82 386.45 98.02 387.4Q115.28 389 133.87 386.16Q143.54 384.69 161.06 378.37Q171.02 374.77 175.91 371.59Q179.04 369.55 180.17 367.57Q181.05 366.05 180.89 364.64Z" fill="#FFFFFF" fill-opacity="1.000000" fill-rule="evenodd"></path><path id="Star 7" d="M38.37 161.23C38.47 160.89 38.95 160.89 39.05 161.23L42.62 173.34C42.69 173.6 43.01 173.68 43.2 173.5L52.34 164.8C52.6 164.55 53.02 164.79 52.93 165.14L49.97 177.4C49.91 177.66 50.14 177.89 50.4 177.83L62.66 174.87C63.01 174.78 63.25 175.2 63 175.46L54.3 184.6C54.12 184.79 54.21 185.11 54.46 185.18L66.57 188.75C66.91 188.85 66.91 189.33 66.57 189.43L54.46 192.99C54.21 193.07 54.12 193.39 54.3 193.58L63 202.72C63.25 202.98 63.01 203.4 62.66 203.31L50.4 200.35C50.14 200.28 49.91 200.52 49.97 200.78L52.93 213.04C53.02 213.39 52.6 213.63 52.34 213.38L43.2 204.68C43.01 204.5 42.69 204.58 42.62 204.84L39.05 216.94C38.95 217.28 38.47 217.28 38.37 216.94L34.81 204.84C34.73 204.58 34.41 204.5 34.22 204.68L25.08 213.38C24.82 213.63 24.41 213.39 24.49 213.04L27.45 200.78C27.52 200.52 27.28 200.28 27.02 200.35L14.76 203.31C14.41 203.4 14.17 202.98 14.42 202.72L23.12 193.58C23.3 193.39 23.22 193.07 22.96 192.99L10.86 189.43C10.52 189.33 10.52 188.85 10.86 188.75L22.96 185.18C23.22 185.11 23.3 184.79 23.12 184.6L14.42 175.46C14.17 175.2 14.41 174.78 14.76 174.87L27.02 177.83C27.28 177.89 27.52 177.66 27.45 177.4L24.49 165.14C24.41 164.79 24.82 164.55 25.08 164.8L34.22 173.5C34.41 173.68 34.73 173.6 34.81 173.34L38.37 161.23Z" fill="#AAF0F0" fill-opacity="1.000000" fill-rule="nonzero"></path><path id="Vector 1236" d="M331.82 136.07L292.76 118.86C292.76 118.86 240.15 95.83 229.14 93.37C218.14 90.9 214.32 92.59 212.54 97.04C209.27 105.21 218.93 112.06 226.53 116.5C233.66 120.66 241.62 124.75 241.62 124.75C241.62 124.75 267.05 137.35 270.51 138.83" stroke="#FFFFFF" stroke-opacity="1.000000" stroke-width="4.000000"></path><path id="Vector 1237" d="M267.05 137.16C267.05 137.16 303.26 154.39 307.6 158.04C312.92 161.88 316.42 166.8 315.73 170.79C314.88 175.7 309.65 177.26 305.21 176.88C296.11 176.1 287.34 172.17 278.72 169.48C278.72 169.48 255.84 160 248.92 153.9C241.99 147.81 240.86 138.23 258.78 133.69" stroke="#FFFFFF" stroke-opacity="1.000000" stroke-width="4.000000"></path><path id="Vector 1238" d="M250.21 156.26C236.63 162.19 241.8 171.6 247.03 177.68C257.13 185.78 281.26 195.22 298.05 192.51C304.87 191.41 308.2 182.33 294.18 174.61" stroke="#FFFFFF" stroke-opacity="1.000000" stroke-width="4.000000"></path><path id="Vector 1239" d="M248.62 179.35C242.02 183.38 244.52 188.92 247.08 191.82C250.32 195.5 260.56 199.78 268.89 203.34C282.28 209.05 297.63 206.98 289.53 193.53" stroke="#FFFFFF" stroke-opacity="1.000000" stroke-width="4.000000"></path><path id="Vector 1240" d="M328.07 116.35Q331.19 130.19 333.71 135.13C334.22 136.12 333.84 137.31 332.84 137.82C331.84 138.33 330.66 137.94 330.15 136.94Q327.4 131.56 324.17 117.23Q321.39 104.95 319.94 94.3Q319.15 88.65 320.31 82.54Q321.92 74.06 327.03 70.05Q329.65 68.01 333.18 67.13L333.33 67.09L333.47 67.08Q338.31 66.62 340.71 68.82Q341.08 69.16 341.4 69.57Q342.84 71.44 344.46 78.26Q350.14 102.19 365.73 126.89Q382.55 153.54 383.79 171.26Q384.53 181.66 378.73 193.12Q378.27 194.02 378.05 194.47L378.04 194.49L377.15 196.28L373.57 194.51L374.46 192.71L374.46 192.7Q374.69 192.24 375.16 191.31Q380.46 180.84 379.8 171.54Q378.63 154.82 362.34 129.02Q346.4 103.76 340.57 79.19Q339.15 73.2 338.23 72.01Q337.27 70.77 334 71.05Q331.73 71.64 329.95 72.92Q325.61 76.04 324.24 83.29Q323.21 88.75 323.91 93.76Q325.33 104.23 328.07 116.35Z" fill="#FFFFFF" fill-opacity="1.000000" fill-rule="evenodd"></path><path id="Vector 1243" d="M280.41 207.83Q283.51 210.72 286.13 212.77Q289.01 215.03 291.79 216.66Q294.14 218.03 296.63 219.08Q297.23 219.33 297.83 219.56Q300.98 220.77 304.63 221.57L304.65 221.58L306.6 222.01L307.46 218.1L305.51 217.67L305.49 217.67Q302.13 216.92 299.27 215.83Q298.81 215.65 298.36 215.47Q296.02 214.5 293.81 213.2Q291.26 211.72 288.6 209.63Q286.11 207.68 283.14 204.9C282.32 204.14 281.08 204.18 280.32 205C279.55 205.82 279.59 207.06 280.41 207.83Z" fill="#FFFFFF" fill-opacity="1.000000" fill-rule="evenodd"></path></g></svg> 