<?xml version="1.0" encoding="UTF-8"?> <svg xmlns="http://www.w3.org/2000/svg" xmlns:xlink="http://www.w3.org/1999/xlink" width="188.000000" height="188.000000" viewBox="0 0 188 188" fill="none"><desc> Created with Pixso. </desc><defs><clipPath id="clip112_1050"><rect id="svg-img03" width="188.000000" height="188.000000" fill="white" fill-opacity="0"></rect></clipPath></defs><g clip-path="url(#clip112_1050)"><ellipse id="Ellipse 985" rx="27.351034" ry="27.356243" transform="matrix(0.963903 0.266254 -0.251982 0.967732 35.7539 121.948)" stroke="#FFFFFF" stroke-opacity="1.000000" stroke-width="4.000000"></ellipse><path id="Vector 2157" d="M29.06 133.86L30.56 128.28L32.32 121.69L35.7 109.12C40.97 110.54 50.83 111.98 48.88 119.27C46.92 126.56 36.95 122.93 32.32 121.69M32.32 121.69L26.97 120.25M30.56 128.28L25.2 126.84M30.56 128.28L39.7 130.73" stroke="#FFFFFF" stroke-opacity="1.000000" stroke-width="4.000000"></path><ellipse id="Ellipse 985" rx="47.024319" ry="47.033276" transform="matrix(0.963903 0.266254 -0.251982 0.967732 131.761 87.031)" stroke="#FFFFFF" stroke-opacity="1.000000" stroke-width="4.000000"></ellipse><path id="Vector 2157" d="M120.53 106.16L123.11 96.56L126.15 85.23L131.95 63.63C141.02 66.06 157.97 68.53 154.61 81.07C151.24 93.61 134.09 87.36 126.15 85.23M126.15 85.23L116.95 82.76M123.11 96.56L113.91 94.1M123.11 96.56L138.83 100.79" stroke="#FFFFFF" stroke-opacity="1.000000" stroke-width="4.000000"></path></g></svg> 