<?xml version="1.0" encoding="UTF-8"?> <svg xmlns="http://www.w3.org/2000/svg" xmlns:xlink="http://www.w3.org/1999/xlink" width="300.000000" height="99.999969" viewBox="0 0 300 100" fill="none"><desc> Created with Pixso. </desc><defs></defs><rect id="Frame 141098" width="299.999969" height="99.999969" fill="#FFFFFF" fill-opacity="0"></rect><rect id="Прямоугольник 62" x="200.000000" width="99.999969" height="99.999962" fill="#37C8D2" fill-opacity="1.000000"></rect><path id="Union" d="M278.26 21.71L221.71 21.71L221.71 78.26L241.14 58.84L260.58 78.28L278.28 60.58L258.84 41.14L278.26 21.71Z" fill="#AAF0F0" fill-opacity="1.000000" fill-rule="nonzero"></path><rect id="Прямоугольник 61" x="100.000000" width="99.999969" height="99.999962" fill="#9173FA" fill-opacity="1.000000"></rect><path id="Subtract" d="M120.06 13.27L152.85 13.27L161.5 13.27L179.92 33.94L179.92 50L179.92 86.72L120.06 86.72L120.06 13.27Z" fill="#FFFFFF" fill-opacity="1.000000" fill-rule="nonzero"></path><path id="Rectangle 1001480" d="M161.52 33.93L161.52 13.27L179.93 33.93L161.52 33.93Z" fill="#5F37EB" fill-opacity="1.000000" fill-rule="nonzero"></path><rect id="Прямоугольник 60" width="99.999969" height="99.999962" fill="#3216B5" fill-opacity="1.000000"></rect><path id="verified_user" d="M77.74 22.22C77.74 26.94 77.74 42.99 77.74 55.72C77.73 66.1 71.94 75.6 62.72 80.37L49.96 86.96L37.24 80.37C28.02 75.61 22.24 66.1 22.24 55.73C22.24 43 22.24 26.95 22.24 22.23L49.96 12.99L77.74 22.22Z" fill="#9173FA" fill-opacity="1.000000" fill-rule="nonzero"></path><path id="verified_user" d="M77.75 22.22L77.75 55.75C77.75 66.12 71.97 75.63 62.76 80.4L50 87L50 13.01L77.75 22.22Z" fill="#5F37EB" fill-opacity="1.000000" fill-rule="nonzero"></path></svg> 