<?xml version="1.0" encoding="UTF-8"?> <svg xmlns="http://www.w3.org/2000/svg" xmlns:xlink="http://www.w3.org/1999/xlink" width="85.000000" height="85.000000" viewBox="0 0 85 85" fill="none"><desc> Created with Pixso. </desc><defs><clipPath id="clip241_1092"><rect id="Сервисы 2.1" width="85.000000" height="85.000000" fill="white" fill-opacity="0"></rect></clipPath></defs><rect id="Сервисы 2.1" width="85.000000" height="85.000000" fill="#FFFFFF" fill-opacity="0"></rect><g clip-path="url(#clip241_1092)"><path id="Ellipse 329" d="M42.18 28.34C42.18 35.98 35.99 42.18 28.34 42.18C20.69 42.18 14.5 35.98 14.5 28.34C14.5 20.69 20.69 14.5 28.34 14.5C35.99 14.5 42.18 20.69 42.18 28.34Z" fill="#82E1E1" fill-opacity="1.000000" fill-rule="nonzero"></path><path id="Ellipse 330" d="M69.87 28.34C69.87 35.98 63.67 42.18 56.03 42.18C48.38 42.18 42.18 35.98 42.18 28.34C42.18 20.69 48.38 14.5 56.03 14.5C63.67 14.5 69.87 20.69 69.87 28.34Z" fill="#82E1E1" fill-opacity="1.000000" fill-rule="nonzero"></path><path id="Ellipse 331" d="M69.87 56.03C69.87 63.67 63.67 69.87 56.03 69.87C48.38 69.87 42.18 63.67 42.18 56.03C42.18 48.38 48.38 42.18 56.03 42.18C63.67 42.18 69.87 48.38 69.87 56.03Z" fill="#28B9BE" fill-opacity="1.000000" fill-rule="nonzero"></path><path id="Ellipse 332" d="M42.18 56.03C42.18 63.67 35.99 69.87 28.34 69.87C20.69 69.87 14.5 63.67 14.5 56.03C14.5 48.38 20.69 42.18 28.34 42.18C35.99 42.18 42.18 48.38 42.18 56.03Z" fill="#82E1E1" fill-opacity="1.000000" fill-rule="nonzero"></path></g></svg> 