<?xml version="1.0" encoding="UTF-8"?> <svg xmlns="http://www.w3.org/2000/svg" xmlns:xlink="http://www.w3.org/1999/xlink" width="150.000000" height="150.000000" viewBox="0 0 150 150" fill="none"><desc> Created with Pixso. </desc><defs><clipPath id="clip365_1093"><rect id="Frame 141037" rx="-1.500000" width="147.000000" height="147.000000" transform="translate(1.500000 1.500000)" fill="white" fill-opacity="0"></rect></clipPath></defs><g clip-path="url(#clip365_1093)"><path id="Vector" d="M98.25 60.73L79.47 99.41L117.25 99.41L98.25 60.73Z" fill="#FFFFFF" fill-opacity="1.000000" fill-rule="evenodd"></path><path id="Vector" d="M27.91 20.05L9.13 58.73L46.91 58.73L27.91 20.05Z" fill="#FFFFFF" fill-opacity="1.000000" fill-rule="evenodd"></path><rect id="Rectangle 1002063" x="58.994629" y="34.463379" width="8.612585" height="99.044243" fill="#9173FA" fill-opacity="1.000000"></rect><rect id="Rectangle 1002064" x="27.885742" y="20.070801" width="7.873727" height="81.240593" transform="rotate(-60.0352 27.885742 20.070801)" fill="#9173FA" fill-opacity="1.000000"></rect><path id="Rectangle 1005194" d="M79.46 99.41L117.24 99.41L117.24 99.41C117.24 109.85 108.79 118.3 98.35 118.3C87.92 118.3 79.46 109.85 79.46 99.41L79.46 99.41Z" fill="#9173FA" fill-opacity="1.000000" fill-rule="evenodd"></path><path id="Rectangle 1005195" d="M9.12 58.73L46.9 58.73L46.9 58.73C46.9 69.16 38.45 77.62 28.01 77.62C17.58 77.62 9.12 69.16 9.12 58.73L9.12 58.73Z" fill="#9173FA" fill-opacity="1.000000" fill-rule="evenodd"></path><rect id="Rectangle 1005193" x="38.306152" y="133.507324" width="49.988792" height="7.312114" fill="#9173FA" fill-opacity="1.000000"></rect><path id="Vector 2022" d="M117.57 40.25L119.04 13.38L125.1 37.59L137.77 24.16L129.48 43.1L144.72 39.17L129.49 49.89L141.84 61.52L125.75 56.47" stroke="#FFFFFF" stroke-opacity="1.000000" stroke-width="2.000000"></path></g><rect id="Frame 141037" rx="-1.500000" width="147.000000" height="147.000000" transform="translate(1.500000 1.500000)" stroke="#FFFFFF" stroke-opacity="0" stroke-width="3.000000" stroke-dasharray="16 16"></rect></svg> 