<?xml version="1.0" encoding="UTF-8"?> <svg xmlns="http://www.w3.org/2000/svg" xmlns:xlink="http://www.w3.org/1999/xlink" width="1160.000000" height="420.000000" viewBox="0 0 1160 420" fill="none"><desc> Created with Pixso. </desc><defs><clipPath id="clip361_4135"><rect id="индекс " width="1160.000000" height="420.000000" fill="white" fill-opacity="0"></rect></clipPath></defs><g clip-path="url(#clip361_4135)"><path id="Vector 2168" d="M67.73 164L1143 164" stroke="#FFFFFF" stroke-opacity="1.000000" stroke-width="2.000000"></path><rect id="Frame 141101" width="1040.000000" height="23.000000" transform="translate(103.000000 380.679688)" fill="#FFFFFF" fill-opacity="0"></rect><path id="июнь" d="M1105.85 389.09L1105.85 399.68L1107.66 399.68L1107.66 394.99L1109.62 394.99Q1109.76 396.62 1110.55 397.8Q1110.82 398.2 1111.17 398.54Q1111.72 399.08 1112.37 399.41Q1113.36 399.91 1114.61 399.91Q1116.03 399.91 1117.1 399.3Q1117.73 398.94 1118.23 398.37Q1118.48 398.09 1118.68 397.77Q1119.6 396.38 1119.6 394.38Q1119.6 392.39 1118.68 390.99Q1118.48 390.68 1118.23 390.4Q1117.73 389.83 1117.1 389.47Q1116.03 388.86 1114.61 388.86Q1113.37 388.86 1112.38 389.35Q1111.81 389.64 1111.31 390.1Q1110.98 390.4 1110.71 390.76Q1109.9 391.84 1109.67 393.36L1107.66 393.36L1107.66 389.09L1105.85 389.09ZM1093.74 389.09L1093.74 399.68L1095.53 399.68L1100.92 391.88L1100.92 399.68L1102.69 399.68L1102.69 389.09L1100.92 389.09L1095.53 396.91L1095.53 389.09L1093.74 389.09ZM1122.12 389.09L1122.12 399.68L1123.93 399.68L1123.93 394.99L1129.16 394.99L1129.16 399.68L1130.96 399.68L1130.96 389.09L1129.16 389.09L1129.16 393.36L1123.93 393.36L1123.93 389.09L1122.12 389.09ZM1134.11 389.09L1134.11 399.68L1138.26 399.68Q1139.52 399.68 1140.41 399.11Q1140.72 398.91 1140.98 398.65Q1141.36 398.28 1141.6 397.83Q1142.01 397.06 1142.01 396.07Q1142.01 395.07 1141.57 394.3Q1141.35 393.87 1140.98 393.51Q1140.74 393.28 1140.47 393.1Q1139.56 392.52 1138.28 392.52L1135.92 392.52L1135.92 389.09L1134.11 389.09ZM1112.29 391.59Q1112.3 391.58 1112.31 391.57Q1112.67 391.11 1113.15 390.85Q1113.78 390.5 1114.61 390.5Q1115.43 390.5 1116.06 390.85Q1116.54 391.11 1116.91 391.57Q1116.91 391.57 1116.91 391.58Q1117.76 392.65 1117.76 394.38Q1117.76 396.12 1116.91 397.19Q1116.91 397.19 1116.91 397.2Q1116.54 397.66 1116.06 397.92Q1115.43 398.27 1114.61 398.27Q1113.78 398.27 1113.15 397.92Q1112.67 397.66 1112.31 397.2Q1112.3 397.19 1112.29 397.17Q1111.44 396.11 1111.44 394.38Q1111.44 392.66 1112.29 391.59ZM1138.06 398.08L1135.92 398.08L1135.92 394.11L1138.06 394.11Q1139 394.11 1139.56 394.57Q1139.6 394.61 1139.64 394.65Q1139.81 394.81 1139.93 395.01Q1140.19 395.45 1140.19 396.07Q1140.19 396.65 1139.94 397.09Q1139.82 397.32 1139.63 397.51Q1139.55 397.59 1139.47 397.66Q1138.93 398.08 1138.06 398.08Z" fill="#FFFFFF" fill-opacity="1.000000" fill-rule="evenodd"></path><path id="май" d="M947.97 384.24L946.35 384.24Q946.37 385.3 946.86 386.07Q947.04 386.36 947.3 386.61Q947.54 386.85 947.83 387.03Q948.61 387.51 949.69 387.51Q950.77 387.51 951.56 387.03Q951.84 386.85 952.09 386.61Q952.34 386.36 952.53 386.07Q953.01 385.3 953.04 384.24L951.41 384.24Q951.41 384.84 951.15 385.29Q951.07 385.43 950.96 385.56Q950.84 385.7 950.69 385.81Q950.29 386.09 949.69 386.09Q949.09 386.09 948.69 385.81Q948.54 385.7 948.42 385.56Q948.31 385.43 948.23 385.29Q947.97 384.84 947.97 384.24ZM933.8 395.05Q933.4 395.73 933.4 396.65Q933.4 397.58 933.8 398.27Q934.04 398.69 934.43 399.02Q934.65 399.21 934.89 399.35Q935.8 399.91 937.05 399.91Q937.9 399.91 938.65 399.65Q938.81 399.59 938.97 399.53Q939.54 399.28 939.99 398.89Q940.24 398.67 940.45 398.41L940.45 399.68L942.16 399.68L942.16 392.66Q942.16 391.39 941.57 390.51Q941.35 390.16 941.03 389.88Q940.89 389.75 940.74 389.64Q939.67 388.86 938.02 388.86Q936.34 388.86 935.25 389.66Q935.21 389.68 935.18 389.71Q934.5 390.22 934.14 390.91Q933.9 391.35 933.8 391.86L935.54 391.86Q935.63 391.63 935.77 391.42Q936.01 391.08 936.39 390.84Q937 390.46 937.98 390.46Q938.93 390.46 939.55 390.9Q939.63 390.96 939.71 391.03Q939.86 391.15 939.97 391.31Q940.37 391.84 940.37 392.66L940.37 393.38L937.56 393.38Q935.62 393.38 934.51 394.25Q934.07 394.6 933.8 395.05ZM918.84 389.09L918.84 399.68L920.6 399.68L920.6 391.98L924.13 399.68L925.64 399.68L929.14 391.98L929.14 399.68L930.91 399.68L930.91 389.09L928.72 389.09L924.88 397.53L921.04 389.09L918.84 389.09ZM945.2 389.09L945.2 399.68L946.99 399.68L952.38 391.88L952.38 399.68L954.16 399.68L954.16 389.09L952.38 389.09L946.99 396.91L946.99 389.09L945.2 389.09ZM935.46 397.52Q935.22 397.15 935.22 396.63Q935.22 396.18 935.42 395.84Q935.58 395.56 935.89 395.35Q936.55 394.91 937.66 394.91L940.37 394.91L940.37 395.69Q940.37 396.33 940.11 396.84Q939.89 397.27 939.48 397.6Q939.27 397.78 939.04 397.91Q938.28 398.33 937.29 398.33Q936.39 398.33 935.82 397.9Q935.81 397.89 935.8 397.89Q935.59 397.72 935.46 397.52Z" fill="#FFFFFF" fill-opacity="1.000000" fill-rule="evenodd"></path><path id="апрель" d="M712.75 395.05Q712.35 395.73 712.35 396.65Q712.35 397.58 712.75 398.27Q713 398.69 713.39 399.02Q713.6 399.21 713.84 399.35Q714.75 399.91 716 399.91Q716.85 399.91 717.6 399.65Q717.76 399.59 717.92 399.53Q718.5 399.28 718.95 398.89Q719.2 398.67 719.41 398.41L719.41 399.68L721.11 399.68L721.11 392.66Q721.11 391.39 720.53 390.51Q720.3 390.16 719.98 389.88Q719.84 389.75 719.69 389.64Q718.62 388.86 716.98 388.86Q715.3 388.86 714.2 389.66Q714.17 389.68 714.13 389.71Q713.46 390.22 713.09 390.91Q712.86 391.35 712.75 391.86L714.5 391.86Q714.59 391.63 714.73 391.42Q714.97 391.08 715.35 390.84Q715.95 390.46 716.94 390.46Q717.88 390.46 718.51 390.9Q718.59 390.96 718.66 391.03Q718.81 391.15 718.93 391.31Q719.33 391.84 719.33 392.66L719.33 393.38L716.52 393.38Q714.58 393.38 713.46 394.25Q713.02 394.6 712.75 395.05ZM736.08 389.09L736.08 403.68L737.88 403.68L737.88 398.37Q738.29 399.03 739.16 399.47Q740.02 399.91 741.22 399.91Q741.79 399.91 742.33 399.78Q742.67 399.7 743 399.57Q743.2 399.49 743.4 399.39Q744.02 399.07 744.54 398.56Q745.23 397.9 745.64 396.82Q746.05 395.74 746.05 394.38Q746.05 393.04 745.64 391.96Q745.24 390.89 744.56 390.22Q744.03 389.7 743.39 389.37Q743.22 389.28 743.04 389.21Q742.64 389.04 742.21 388.95Q741.76 388.86 741.29 388.86Q740.02 388.86 739.13 389.36Q738.24 389.86 737.82 390.6L737.82 389.09L736.08 389.09ZM748.98 397.98Q749.14 398.21 749.34 398.41Q749.78 398.88 750.3 399.2Q751.47 399.91 753.06 399.91Q754.03 399.91 754.85 399.63Q755.66 399.35 756.17 398.89Q756.68 398.43 756.99 397.94Q757.3 397.45 757.41 396.95L755.58 396.95Q755.42 397.44 754.75 397.87Q754.08 398.29 753.08 398.29Q752.13 398.29 751.41 397.88Q751.04 397.67 750.73 397.35Q750.42 397.03 750.22 396.66Q749.82 395.92 749.82 394.97L749.82 394.93L757.53 394.93L757.53 394Q757.53 391.86 756.49 390.51Q756.39 390.38 756.28 390.25Q755.88 389.8 755.38 389.5Q754.35 388.86 752.92 388.86Q751.53 388.86 750.46 389.45Q749.83 389.8 749.32 390.35Q749.15 390.54 749 390.74Q747.93 392.16 747.93 394.38Q747.93 396.57 748.98 397.98ZM724.15 389.09L724.15 399.68L725.96 399.68L725.96 390.71L731.13 390.71L731.13 399.68L732.93 399.68L732.93 389.09L724.15 389.09ZM758.69 398.08L758.69 399.72L759.19 399.72Q760.62 399.72 761.4 399.01Q761.51 398.9 761.61 398.79Q762.4 397.86 762.58 395.71L763 390.71L766.87 390.71L766.87 399.68L768.69 399.68L768.69 389.09L761.38 389.09L760.83 395.58Q760.72 396.99 760.34 397.53Q760.29 397.59 760.25 397.64Q759.85 398.08 758.98 398.08L758.69 398.08ZM771.84 389.09L771.84 399.68L775.99 399.68Q777.25 399.68 778.14 399.11Q778.44 398.91 778.7 398.65Q779.08 398.28 779.32 397.83Q779.73 397.06 779.73 396.07Q779.73 395.07 779.31 394.3Q779.07 393.87 778.71 393.51Q778.47 393.28 778.19 393.1Q777.29 392.52 776.01 392.52L773.64 392.52L773.64 389.09L771.84 389.09ZM755.71 393.4L749.85 393.4Q749.94 392.34 750.48 391.61Q750.61 391.44 750.76 391.28Q750.98 391.06 751.24 390.9Q751.92 390.48 752.87 390.48Q753.83 390.48 754.5 390.92Q754.71 391.07 754.89 391.25Q754.94 391.3 754.99 391.36Q755.65 392.12 755.71 393.4ZM738.65 397.16Q737.82 396.13 737.82 394.43L737.82 394.34Q737.82 392.64 738.65 391.61Q738.68 391.57 738.7 391.54Q739.06 391.12 739.51 390.87Q740.18 390.5 741.05 390.5Q741.81 390.5 742.4 390.8Q742.93 391.07 743.33 391.57Q743.37 391.61 743.4 391.66Q744.2 392.72 744.2 394.38Q744.2 396.05 743.4 397.11Q743.37 397.15 743.33 397.19Q742.93 397.7 742.4 397.97Q741.81 398.27 741.05 398.27Q740.18 398.27 739.51 397.9Q739.06 397.65 738.7 397.22Q738.68 397.19 738.65 397.16ZM775.78 398.08L773.64 398.08L773.64 394.11L775.78 394.11Q776.73 394.11 777.28 394.57Q777.32 394.61 777.36 394.65Q777.53 394.81 777.65 395.01Q777.93 395.45 777.93 396.07Q777.93 396.65 777.68 397.09Q777.55 397.32 777.36 397.51Q777.28 397.59 777.19 397.66Q776.65 398.08 775.78 398.08ZM714.41 397.52Q714.18 397.15 714.18 396.63Q714.18 396.18 714.37 395.84Q714.54 395.56 714.84 395.35Q715.5 394.91 716.62 394.91L719.33 394.91L719.33 395.69Q719.33 396.33 719.06 396.84Q718.84 397.27 718.43 397.6Q718.22 397.78 717.99 397.91Q717.23 398.33 716.24 398.33Q715.34 398.33 714.77 397.9Q714.76 397.89 714.75 397.89Q714.54 397.72 714.41 397.52Z" fill="#FFFFFF" fill-opacity="1.000000" fill-rule="evenodd"></path><path id="март" d="M542.74 395.05Q542.34 395.73 542.34 396.65Q542.34 397.58 542.74 398.27Q542.98 398.69 543.37 399.02Q543.59 399.21 543.83 399.35Q544.74 399.91 545.99 399.91Q546.84 399.91 547.59 399.65Q547.75 399.59 547.91 399.53Q548.48 399.28 548.93 398.89Q549.18 398.67 549.39 398.41L549.39 399.68L551.09 399.68L551.09 392.66Q551.09 391.39 550.51 390.51Q550.28 390.16 549.97 389.88Q549.83 389.75 549.68 389.64Q548.61 388.86 546.96 388.86Q545.28 388.86 544.19 389.66Q544.15 389.68 544.12 389.71Q543.44 390.22 543.08 390.91Q542.84 391.35 542.74 391.86L544.48 391.86Q544.57 391.63 544.71 391.42Q544.95 391.08 545.33 390.84Q545.94 390.46 546.92 390.46Q547.87 390.46 548.49 390.9Q548.57 390.96 548.65 391.03Q548.8 391.15 548.91 391.31Q549.31 391.84 549.31 392.66L549.31 393.38L546.5 393.38Q544.56 393.38 543.45 394.25Q543.01 394.6 542.74 395.05ZM554.14 389.09L554.14 403.68L555.95 403.68L555.95 398.37Q556.36 399.03 557.22 399.47Q558.08 399.91 559.28 399.91Q559.85 399.91 560.39 399.78Q560.73 399.7 561.06 399.57Q561.26 399.49 561.46 399.39Q562.08 399.07 562.6 398.56Q563.29 397.9 563.7 396.82Q564.11 395.74 564.11 394.38Q564.11 393.04 563.7 391.96Q563.3 390.89 562.62 390.22Q562.09 389.7 561.45 389.37Q561.28 389.28 561.1 389.21Q560.7 389.04 560.27 388.95Q559.82 388.86 559.35 388.86Q558.08 388.86 557.19 389.36Q556.3 389.86 555.88 390.6L555.88 389.09L554.14 389.09ZM527.78 389.09L527.78 399.68L529.54 399.68L529.54 391.98L533.07 399.68L534.58 399.68L538.08 391.98L538.08 399.68L539.85 399.68L539.85 389.09L537.66 389.09L533.82 397.53L529.98 389.09L527.78 389.09ZM565.2 389.09L565.2 390.71L568.75 390.71L568.75 399.68L570.56 399.68L570.56 390.71L574.13 390.71L574.13 389.09L565.2 389.09ZM556.71 397.16Q555.88 396.13 555.88 394.43L555.88 394.34Q555.88 392.64 556.71 391.61Q556.74 391.57 556.77 391.54Q557.12 391.12 557.57 390.87Q558.24 390.5 559.11 390.5Q559.87 390.5 560.46 390.8Q560.99 391.07 561.4 391.57Q561.43 391.61 561.46 391.66Q562.26 392.72 562.26 394.38Q562.26 396.05 561.46 397.11Q561.43 397.15 561.4 397.19Q560.99 397.7 560.46 397.97Q559.87 398.27 559.11 398.27Q558.24 398.27 557.57 397.9Q557.12 397.65 556.77 397.22Q556.74 397.19 556.71 397.16ZM544.4 397.52Q544.16 397.15 544.16 396.63Q544.16 396.18 544.36 395.84Q544.52 395.56 544.83 395.35Q545.49 394.91 546.6 394.91L549.31 394.91L549.31 395.69Q549.31 396.33 549.05 396.84Q548.83 397.27 548.42 397.6Q548.21 397.78 547.98 397.91Q547.22 398.33 546.22 398.33Q545.33 398.33 544.76 397.9Q544.75 397.89 544.74 397.89Q544.53 397.72 544.4 397.52Z" fill="#FFFFFF" fill-opacity="1.000000" fill-rule="evenodd"></path><path id="февраль" d="M308.79 397.21Q309.12 397.8 309.63 398.29Q310.09 398.74 310.63 399.07Q311.89 399.82 313.57 399.88L313.57 403.68L315.33 403.68L315.33 399.88Q317.02 399.82 318.28 399.06Q318.82 398.74 319.27 398.29Q319.77 397.8 320.1 397.22Q320.81 396.01 320.81 394.38Q320.81 393 320.27 391.87Q320.19 391.71 320.1 391.55Q319.71 390.87 319.17 390.36Q318.71 389.93 318.14 389.62Q318.07 389.58 318 389.54Q316.81 388.93 315.33 388.88L315.33 384.89L313.57 384.89L313.57 388.88Q311.9 388.94 310.64 389.69Q310.1 390.01 309.63 390.47Q309.12 390.97 308.78 391.56Q308.08 392.77 308.08 394.38Q308.08 396 308.79 397.21ZM323.74 397.98Q323.91 398.21 324.1 398.41Q324.54 398.88 325.07 399.2Q326.23 399.91 327.82 399.91Q328.8 399.91 329.61 399.63Q330.43 399.35 330.94 398.89Q331.44 398.43 331.75 397.94Q332.06 397.45 332.17 396.95L330.35 396.95Q330.18 397.44 329.51 397.87Q328.84 398.29 327.84 398.29Q326.89 398.29 326.17 397.88Q325.8 397.67 325.49 397.35Q325.19 397.03 324.98 396.66Q324.58 395.92 324.58 394.97L324.58 394.93L332.29 394.93L332.29 394Q332.29 391.86 331.26 390.51Q331.15 390.38 331.04 390.25Q330.64 389.8 330.15 389.5Q329.11 388.86 327.68 388.86Q326.29 388.86 325.23 389.45Q324.6 389.8 324.08 390.35Q323.91 390.54 323.76 390.74Q322.7 392.16 322.7 394.38Q322.7 396.57 323.74 397.98ZM345.6 389.09L345.6 403.68L347.41 403.68L347.41 398.37Q347.82 399.03 348.68 399.47Q349.54 399.91 350.74 399.91Q351.31 399.91 351.86 399.78Q352.2 399.7 352.53 399.57Q352.73 399.49 352.92 399.39Q353.54 399.07 354.06 398.56Q354.75 397.9 355.16 396.82Q355.57 395.74 355.57 394.38Q355.57 393.04 355.17 391.96Q354.76 390.89 354.08 390.22Q353.55 389.7 352.92 389.37Q352.74 389.28 352.57 389.21Q352.16 389.04 351.74 388.95Q351.28 388.86 350.81 388.86Q349.54 388.86 348.65 389.36Q347.77 389.86 347.35 390.6L347.35 389.09L345.6 389.09ZM357.84 395.05Q357.44 395.73 357.44 396.65Q357.44 397.58 357.84 398.27Q358.08 398.69 358.47 399.02Q358.69 399.21 358.92 399.35Q359.83 399.91 361.09 399.91Q361.93 399.91 362.69 399.65Q362.85 399.59 363 399.53Q363.58 399.28 364.03 398.89Q364.28 398.67 364.49 398.41L364.49 399.68L366.19 399.68L366.19 392.66Q366.19 391.39 365.61 390.51Q365.38 390.16 365.07 389.88Q364.93 389.75 364.78 389.64Q363.71 388.86 362.06 388.86Q360.38 388.86 359.29 389.66Q359.25 389.68 359.22 389.71Q358.54 390.22 358.18 390.91Q357.94 391.35 357.84 391.86L359.58 391.86Q359.67 391.63 359.81 391.42Q360.05 391.08 360.43 390.84Q361.04 390.46 362.02 390.46Q362.96 390.46 363.59 390.9Q363.67 390.96 363.75 391.03Q363.9 391.15 364.01 391.31Q364.41 391.84 364.41 392.66L364.41 393.38L361.6 393.38Q359.66 393.38 358.55 394.25Q358.11 394.6 357.84 395.05ZM334.82 389.09L334.82 399.68L339.55 399.68Q341.14 399.68 342.07 398.89Q342.11 398.86 342.15 398.83Q342.57 398.45 342.8 397.98Q343.09 397.4 343.09 396.67Q343.09 395.74 342.66 395.11Q342.61 395.04 342.55 394.97Q342.2 394.53 341.75 394.29Q341.51 394.16 341.24 394.09Q341.34 394.05 341.44 393.99Q341.89 393.75 342.22 393.27Q342.62 392.69 342.62 391.82Q342.62 391.13 342.34 390.59Q342.13 390.18 341.77 389.86Q340.92 389.09 339.31 389.09L334.82 389.09ZM367.98 398.08L367.98 399.72L368.48 399.72Q369.91 399.72 370.69 399.01Q370.8 398.9 370.9 398.79Q371.69 397.86 371.86 395.71L372.28 390.71L376.16 390.71L376.16 399.68L377.98 399.68L377.98 389.09L370.66 389.09L370.12 395.58Q370.01 396.99 369.62 397.53Q369.58 397.59 369.53 397.64Q369.14 398.08 368.27 398.08L367.98 398.08ZM381.12 389.09L381.12 399.68L385.28 399.68Q386.53 399.68 387.43 399.11Q387.73 398.91 387.99 398.65Q388.37 398.28 388.61 397.83Q389.02 397.06 389.02 396.07Q389.02 395.07 388.6 394.3Q388.36 393.87 387.99 393.51Q387.76 393.28 387.48 393.1Q386.58 392.52 385.3 392.52L382.93 392.52L382.93 389.09L381.12 389.09ZM330.47 393.4L324.61 393.4Q324.71 392.34 325.24 391.61Q325.37 391.44 325.53 391.28Q325.75 391.06 326 390.9Q326.68 390.48 327.63 390.48Q328.59 390.48 329.26 390.92Q329.47 391.07 329.65 391.25Q329.71 391.3 329.75 391.36Q330.41 392.12 330.47 393.4ZM348.18 397.16Q347.35 396.13 347.35 394.43L347.35 394.34Q347.35 392.64 348.18 391.61Q348.2 391.57 348.23 391.54Q348.58 391.12 349.03 390.87Q349.7 390.5 350.58 390.5Q351.33 390.5 351.93 390.8Q352.45 391.07 352.86 391.57Q352.89 391.61 352.92 391.66Q353.72 392.72 353.72 394.38Q353.72 396.05 352.92 397.11Q352.89 397.15 352.86 397.19Q352.45 397.7 351.93 397.97Q351.33 398.27 350.58 398.27Q349.7 398.27 349.03 397.9Q348.58 397.65 348.23 397.22Q348.2 397.19 348.18 397.16ZM310.56 392.05Q310.74 391.8 310.96 391.58Q311.36 391.19 311.84 390.94Q312.6 390.54 313.57 390.52L313.57 398.25Q312.6 398.23 311.84 397.83Q311.36 397.58 310.96 397.18Q310.74 396.97 310.56 396.72Q309.91 395.78 309.91 394.38Q309.91 392.99 310.56 392.05ZM317.07 397.83Q316.31 398.23 315.33 398.25L315.33 390.52Q316.31 390.54 317.07 390.94Q317.55 391.19 317.94 391.58Q318.16 391.8 318.32 392.04Q318.98 392.98 318.98 394.38Q318.98 395.79 318.32 396.73Q318.16 396.97 317.94 397.18Q317.55 397.58 317.07 397.83ZM339.13 393.48L336.6 393.48L336.6 390.64L339.13 390.64Q339.96 390.64 340.4 391Q340.51 391.09 340.6 391.21Q340.84 391.54 340.84 392.04Q340.84 392.51 340.62 392.85Q340.52 392.98 340.39 393.1Q339.95 393.48 339.13 393.48ZM385.07 398.08L382.93 398.08L382.93 394.11L385.07 394.11Q386.01 394.11 386.57 394.57Q386.61 394.61 386.65 394.65Q386.82 394.81 386.94 395.01Q387.21 395.45 387.21 396.07Q387.21 396.65 386.97 397.09Q386.84 397.32 386.65 397.51Q386.57 397.59 386.48 397.66Q385.94 398.08 385.07 398.08ZM359.5 397.52Q359.26 397.15 359.26 396.63Q359.26 396.18 359.46 395.84Q359.62 395.56 359.92 395.35Q360.58 394.91 361.7 394.91L364.41 394.91L364.41 395.69Q364.41 396.33 364.15 396.84Q363.92 397.27 363.52 397.6Q363.31 397.78 363.08 397.91Q362.32 398.33 361.32 398.33Q360.42 398.33 359.85 397.9Q359.84 397.89 359.84 397.89Q359.63 397.72 359.5 397.52ZM339.35 398.12L336.6 398.12L336.6 395.01L339.35 395.01Q340.54 395.01 340.99 395.59Q341.28 395.95 341.28 396.53Q341.28 397.08 341.01 397.46Q340.92 397.59 340.79 397.7Q340.3 398.12 339.35 398.12Z" fill="#FFFFFF" fill-opacity="1.000000" fill-rule="evenodd"></path><path id="январь" d="M138.05 395.05Q137.65 395.73 137.65 396.65Q137.65 397.58 138.05 398.27Q138.29 398.69 138.68 399.02Q138.9 399.21 139.13 399.35Q140.04 399.91 141.3 399.91Q142.14 399.91 142.9 399.65Q143.06 399.59 143.21 399.53Q143.79 399.28 144.24 398.89Q144.49 398.67 144.7 398.41L144.7 399.68L146.4 399.68L146.4 392.66Q146.4 391.39 145.82 390.51Q145.59 390.16 145.28 389.88Q145.14 389.75 144.99 389.64Q143.92 388.86 142.27 388.86Q140.59 388.86 139.49 389.66Q139.46 389.68 139.42 389.71Q138.75 390.22 138.39 390.91Q138.15 391.35 138.05 391.86L139.79 391.86Q139.88 391.63 140.02 391.42Q140.26 391.08 140.64 390.84Q141.25 390.46 142.23 390.46Q143.17 390.46 143.8 390.9Q143.88 390.96 143.96 391.03Q144.11 391.15 144.22 391.31Q144.62 391.84 144.62 392.66L144.62 393.38L141.81 393.38Q139.87 393.38 138.76 394.25Q138.32 394.6 138.05 395.05ZM149.45 389.09L149.45 403.68L151.25 403.68L151.25 398.37Q151.66 399.03 152.53 399.47Q153.39 399.91 154.59 399.91Q155.16 399.91 155.7 399.78Q156.04 399.7 156.37 399.57Q156.57 399.49 156.77 399.39Q157.38 399.07 157.91 398.56Q158.6 397.9 159 396.82Q159.42 395.74 159.42 394.38Q159.42 393.04 159.01 391.96Q158.61 390.89 157.93 390.22Q157.39 389.7 156.76 389.37Q156.59 389.28 156.41 389.21Q156 389.04 155.58 388.95Q155.13 388.86 154.66 388.86Q153.39 388.86 152.5 389.36Q151.61 389.86 151.19 390.6L151.19 389.09L149.45 389.09ZM106.75 395.87L103.85 399.68L105.95 399.68L108.68 396.09L110.58 396.09L110.58 399.68L112.38 399.68L112.38 389.09L108.18 389.09Q106.73 389.09 105.8 389.78Q105.61 389.92 105.44 390.09Q105.05 390.48 104.81 390.96Q104.44 391.68 104.44 392.58Q104.44 393.31 104.69 393.93Q104.84 394.29 105.06 394.61Q105.29 394.94 105.59 395.21Q106.08 395.64 106.75 395.87ZM115.53 389.09L115.53 399.68L117.33 399.68L117.33 394.99L122.56 394.99L122.56 399.68L124.37 399.68L124.37 389.09L122.56 389.09L122.56 393.36L117.33 393.36L117.33 389.09L115.53 389.09ZM127.52 389.09L127.52 399.68L132.25 399.68Q133.84 399.68 134.77 398.89Q134.81 398.86 134.85 398.83Q135.27 398.45 135.5 397.98Q135.79 397.4 135.79 396.67Q135.79 395.74 135.36 395.11Q135.31 395.04 135.25 394.97Q134.9 394.53 134.45 394.29Q134.2 394.16 133.93 394.09Q134.04 394.05 134.14 393.99Q134.59 393.75 134.92 393.27Q135.32 392.69 135.32 391.82Q135.32 391.13 135.04 390.59Q134.83 390.18 134.47 389.86Q133.62 389.09 132.01 389.09L127.52 389.09ZM161.94 389.09L161.94 399.68L166.09 399.68Q167.35 399.68 168.24 399.11Q168.54 398.91 168.8 398.65Q169.18 398.28 169.42 397.83Q169.83 397.06 169.83 396.07Q169.83 395.07 169.41 394.3Q169.18 393.87 168.81 393.51Q168.57 393.28 168.3 393.1Q167.39 392.52 166.11 392.52L163.74 392.52L163.74 389.09L161.94 389.09ZM152.02 397.16Q151.19 396.13 151.19 394.43L151.19 394.34Q151.19 392.64 152.02 391.61Q152.05 391.57 152.07 391.54Q152.43 391.12 152.88 390.87Q153.55 390.5 154.42 390.5Q155.17 390.5 155.77 390.8Q156.3 391.07 156.7 391.57Q156.74 391.61 156.77 391.66Q157.57 392.72 157.57 394.38Q157.57 396.05 156.77 397.11Q156.74 397.15 156.7 397.19Q156.3 397.7 155.77 397.97Q155.17 398.27 154.42 398.27Q153.55 398.27 152.88 397.9Q152.43 397.65 152.07 397.22Q152.05 397.19 152.02 397.16ZM131.83 393.48L129.3 393.48L129.3 390.64L131.83 390.64Q132.66 390.64 133.1 391Q133.21 391.09 133.3 391.21Q133.53 391.54 133.53 392.04Q133.53 392.51 133.31 392.85Q133.22 392.98 133.09 393.1Q132.65 393.48 131.83 393.48ZM106.49 393.56Q106.25 393.14 106.25 392.58Q106.25 392.04 106.48 391.64Q106.61 391.39 106.82 391.2Q106.88 391.15 106.93 391.1Q107.49 390.66 108.39 390.66L110.58 390.66L110.58 394.51L108.39 394.51Q107.49 394.51 106.93 394.07Q106.88 394.02 106.82 393.97Q106.62 393.79 106.49 393.56ZM165.89 398.08L163.74 398.08L163.74 394.11L165.89 394.11Q166.83 394.11 167.38 394.57Q167.42 394.61 167.46 394.65Q167.64 394.81 167.76 395.01Q168.03 395.45 168.03 396.07Q168.03 396.65 167.78 397.09Q167.65 397.32 167.46 397.51Q167.38 397.59 167.29 397.66Q166.75 398.08 165.89 398.08ZM139.71 397.52Q139.47 397.15 139.47 396.63Q139.47 396.18 139.67 395.84Q139.83 395.56 140.13 395.35Q140.79 394.91 141.91 394.91L144.62 394.91L144.62 395.69Q144.62 396.33 144.36 396.84Q144.13 397.27 143.73 397.6Q143.52 397.78 143.28 397.91Q142.53 398.33 141.53 398.33Q140.63 398.33 140.06 397.9Q140.05 397.89 140.05 397.89Q139.84 397.72 139.71 397.52ZM132.05 398.12L129.3 398.12L129.3 395.01L132.05 395.01Q133.24 395.01 133.69 395.59Q133.98 395.95 133.98 396.53Q133.98 397.08 133.71 397.46Q133.62 397.59 133.49 397.7Q133 398.12 132.05 398.12Z" fill="#FFFFFF" fill-opacity="1.000000" fill-rule="evenodd"></path><path id="диапазон негативных оценок" d="M580.08 274.49Q579.6 275.3 579.6 276.39C579.6 277.57 580.01 278.52 580.83 279.22Q581.09 279.44 581.37 279.61Q582.45 280.28 583.94 280.28C584.76 280.28 585.52 280.12 586.23 279.82C586.94 279.51 587.53 279.07 588 278.49L588 280L590.02 280L590.02 271.65C590.02 270.25 589.58 269.14 588.68 268.33C587.78 267.52 586.59 267.12 585.1 267.12Q583.1 267.12 581.8 268.07Q581.76 268.1 581.72 268.13Q580.91 268.74 580.48 269.56Q580.2 270.08 580.08 270.69L582.15 270.69C582.34 270.19 582.68 269.78 583.16 269.48C583.64 269.17 584.27 269.02 585.06 269.02C585.9 269.02 586.59 269.25 587.11 269.7C587.64 270.15 587.9 270.8 587.9 271.65L587.9 272.5L584.56 272.5Q582.25 272.5 580.92 273.54Q580.39 273.95 580.08 274.49ZM608.39 273.54C607.51 274.23 607.06 275.18 607.06 276.39C607.06 277.57 607.48 278.52 608.3 279.22Q608.55 279.44 608.84 279.61Q609.92 280.28 611.41 280.28C612.22 280.28 612.99 280.12 613.69 279.82C614.4 279.51 614.99 279.07 615.46 278.49L615.46 280L617.49 280L617.49 271.65C617.49 270.25 617.04 269.14 616.15 268.33C615.25 267.52 614.06 267.12 612.57 267.12Q610.57 267.12 609.27 268.07Q609.22 268.1 609.18 268.13C608.3 268.81 607.75 269.66 607.54 270.69L609.62 270.69C609.81 270.19 610.15 269.78 610.63 269.48C611.11 269.17 611.74 269.02 612.52 269.02C613.37 269.02 614.05 269.25 614.58 269.7C615.1 270.15 615.37 270.8 615.37 271.65L615.37 272.5L612.02 272.5Q609.71 272.5 608.39 273.54ZM622.36 276.39L620.24 276.39C620.4 277.64 620.96 278.6 621.91 279.27C622.86 279.94 624.03 280.28 625.41 280.28C626.85 280.28 628.04 279.92 628.98 279.21C629.91 278.5 630.38 277.55 630.38 276.37C630.38 275.91 630.31 275.5 630.15 275.13C630 274.76 629.81 274.46 629.56 274.24C629.32 274.02 629.07 273.84 628.82 273.71C628.58 273.58 628.32 273.48 628.06 273.42C628.57 273.21 628.99 272.89 629.34 272.44C629.68 271.99 629.86 271.42 629.86 270.72C629.86 269.63 629.44 268.75 628.6 268.1Q628.49 268.01 628.36 267.92Q627.17 267.12 625.44 267.12C624.14 267.12 623.03 267.44 622.09 268.07Q621.44 268.52 621.05 269.12Q620.59 269.83 620.48 270.77L622.58 270.77C622.71 270.25 623.02 269.84 623.5 269.51C623.98 269.18 624.6 269.02 625.36 269.02C626.09 269.02 626.67 269.18 627.1 269.49C627.52 269.8 627.73 270.24 627.73 270.79C627.73 271.38 627.53 271.83 627.11 272.16C626.7 272.48 626.12 272.65 625.36 272.65L623.51 272.65L623.51 274.49L625.49 274.49C627.32 274.49 628.23 275.11 628.23 276.35Q628.23 276.83 628.03 277.21Q627.84 277.57 627.48 277.83C626.98 278.19 626.31 278.37 625.46 278.37C624.65 278.37 623.96 278.2 623.42 277.85C622.87 277.51 622.51 277.02 622.36 276.39ZM633.65 277.58Q633.93 278.03 634.29 278.43C635.4 279.66 636.87 280.28 638.68 280.28C640.5 280.28 641.96 279.66 643.06 278.43C644.17 277.2 644.72 275.63 644.72 273.7C644.72 271.77 644.17 270.19 643.06 268.96C641.96 267.73 640.5 267.12 638.68 267.12C636.87 267.12 635.4 267.73 634.29 268.96Q633.93 269.36 633.65 269.81Q632.63 271.43 632.63 273.7Q632.63 275.96 633.65 277.58ZM681 273.7C681 275.71 681.56 277.31 682.68 278.49Q683.2 279.05 683.82 279.43Q685.21 280.28 687.11 280.28C687.88 280.28 688.59 280.16 689.24 279.94Q690.21 279.6 690.81 279.06C691.21 278.7 691.54 278.32 691.78 277.93C692.03 277.54 692.19 277.15 692.28 276.75L690.11 276.75C689.98 277.14 689.65 277.5 689.11 277.84C688.58 278.18 687.92 278.35 687.13 278.35Q686 278.35 685.14 277.86Q684.7 277.61 684.33 277.22Q683.97 276.85 683.72 276.4Q683.25 275.53 683.25 274.39L683.25 274.34L692.43 274.34L692.43 273.25C692.43 271.37 691.93 269.88 690.94 268.78C689.95 267.67 688.61 267.12 686.94 267.12Q685.28 267.12 684.02 267.82Q683.26 268.24 682.65 268.9Q682.45 269.12 682.27 269.35Q681 271.05 681 273.7ZM706.83 273.54C705.94 274.23 705.5 275.18 705.5 276.39C705.5 277.57 705.91 278.52 706.74 279.22Q706.99 279.44 707.27 279.61Q708.36 280.28 709.85 280.28C710.66 280.28 711.42 280.12 712.13 279.82C712.84 279.51 713.43 279.07 713.9 278.49L713.9 280L715.93 280L715.93 271.65C715.93 270.25 715.48 269.14 714.58 268.33C713.69 267.52 712.5 267.12 711.01 267.12Q709.01 267.12 707.7 268.07Q707.66 268.1 707.62 268.13C706.74 268.81 706.19 269.66 705.98 270.69L708.05 270.69C708.25 270.19 708.59 269.78 709.07 269.48C709.55 269.17 710.18 269.02 710.96 269.02C711.81 269.02 712.49 269.25 713.02 269.7C713.54 270.15 713.8 270.8 713.8 271.65L713.8 272.5L710.46 272.5C708.92 272.5 707.71 272.85 706.83 273.54ZM808.84 277.58Q809.13 278.03 809.49 278.43C810.6 279.66 812.06 280.28 813.88 280.28C815.69 280.28 817.15 279.66 818.26 278.43C819.37 277.2 819.92 275.63 819.92 273.7C819.92 271.77 819.37 270.19 818.26 268.96C817.15 267.73 815.69 267.12 813.88 267.12C812.06 267.12 810.6 267.73 809.49 268.96Q809.13 269.36 808.84 269.81Q807.82 271.43 807.82 273.7Q807.82 275.96 808.84 277.58ZM836.98 273.7C836.98 275.71 837.54 277.31 838.66 278.49Q839.18 279.05 839.81 279.43Q841.19 280.28 843.09 280.28C843.86 280.28 844.57 280.16 845.22 279.94Q846.19 279.6 846.79 279.06C847.2 278.7 847.52 278.32 847.76 277.93C848.01 277.54 848.17 277.15 848.26 276.75L846.09 276.75C845.96 277.14 845.63 277.5 845.1 277.84C844.56 278.18 843.9 278.35 843.11 278.35Q841.98 278.35 841.12 277.86Q840.68 277.61 840.31 277.22Q839.95 276.85 839.71 276.4Q839.23 275.53 839.23 274.39L839.23 274.34L848.41 274.34L848.41 273.25C848.41 271.37 847.91 269.88 846.92 268.78C845.93 267.67 844.59 267.12 842.92 267.12Q841.26 267.12 840 267.82Q839.25 268.24 838.63 268.9Q838.43 269.12 838.25 269.35Q836.98 271.05 836.98 273.7ZM865.95 277.58Q866.23 278.03 866.59 278.43C867.7 279.66 869.17 280.28 870.98 280.28C872.8 280.28 874.26 279.66 875.36 278.43C876.47 277.2 877.02 275.63 877.02 273.7C877.02 271.77 876.47 270.19 875.36 268.96C874.26 267.73 872.8 267.12 870.98 267.12C869.17 267.12 867.7 267.73 866.59 268.96Q866.23 269.36 865.95 269.81Q864.93 271.43 864.93 273.7Q864.93 275.96 865.95 277.58ZM550.42 278.04L549.37 278.04L549.37 283.19L551.45 283.19L551.45 280L561.28 280L561.28 283.19L563.35 283.19L563.35 278.04L561.5 278.04L561.5 267.4L552.45 267.4L551.95 273.72C551.86 274.84 551.69 275.78 551.43 276.54Q551.03 277.69 550.42 278.04ZM565.96 267.4L565.96 280L568.09 280L574.51 270.72L574.51 280L576.63 280L576.63 267.4L574.51 267.4L568.09 276.7L568.09 267.4L565.96 267.4ZM593.65 267.4L593.65 280L595.8 280L595.8 269.33L601.95 269.33L601.95 280L604.1 280L604.1 267.4L593.65 267.4ZM647.73 267.4L647.73 280L649.87 280L649.87 274.42L656.1 274.42L656.1 280L658.25 280L658.25 267.4L656.1 267.4L656.1 272.48L649.87 272.48L649.87 267.4L647.73 267.4ZM667.49 267.4L667.49 280L669.64 280L669.64 274.42L675.86 274.42L675.86 280L678.01 280L678.01 267.4L675.86 267.4L675.86 272.48L669.64 272.48L669.64 267.4L667.49 267.4ZM695.43 267.4L695.43 280L697.58 280L697.58 269.33L703.78 269.33L703.78 267.4L695.43 267.4ZM718.23 267.4L718.23 269.33L722.46 269.33L722.46 280L724.61 280L724.61 269.33L728.85 269.33L728.85 267.4L718.23 267.4ZM731.53 267.4L731.53 280L733.65 280L740.07 270.72L740.07 280L742.2 280L742.2 267.4L740.07 267.4L733.65 276.7L733.65 267.4L731.53 267.4ZM745.94 267.4L745.94 280L751.58 280C752.89 280 753.92 279.66 754.67 278.99C755.42 278.32 755.8 277.46 755.8 276.42C755.8 275.6 755.58 274.92 755.15 274.39C754.73 273.86 754.2 273.51 753.59 273.34Q753.71 273.29 753.82 273.23Q754.37 272.94 754.76 272.37C755.08 271.91 755.23 271.34 755.23 270.64C755.23 269.69 754.9 268.91 754.22 268.31C753.55 267.7 752.57 267.4 751.29 267.4L745.94 267.4ZM758.79 267.4L758.79 280L760.93 280L760.93 274.42L767.16 274.42L767.16 280L769.31 280L769.31 267.4L767.16 267.4L767.16 272.48L760.93 272.48L760.93 267.4L758.79 267.4ZM773.06 267.4L773.06 280L778 280C779.33 280 780.41 279.59 781.23 278.78Q781.68 278.33 781.97 277.8Q782.46 276.88 782.46 275.7C782.46 274.46 782.05 273.45 781.23 272.66C780.42 271.87 779.35 271.47 778.02 271.47L775.2 271.47L775.2 267.4L773.06 267.4ZM784.27 267.4L784.27 280L786.42 280L786.42 267.4L784.27 267.4ZM793.39 273.7L788.91 280L791.39 280L794.69 275.22L798.07 280L800.6 280L796.12 273.77L800.55 267.4L798.07 267.4L794.82 272.22L791.49 267.4L788.96 267.4L793.39 273.7ZM822.92 267.4L822.92 280L833.07 280L833.07 283.19L835.14 283.19L835.14 278.04L833.3 278.04L833.3 267.4L831.14 267.4L831.14 278.04L825.07 278.04L825.07 267.4L822.92 267.4ZM851.41 267.4L851.41 280L853.56 280L853.56 274.42L859.79 274.42L859.79 280L861.94 280L861.94 267.4L859.79 267.4L859.79 272.48L853.56 272.48L853.56 267.4L851.41 267.4ZM880.03 267.4L880.03 280L882.17 280L882.17 273.92L887.64 280L890.43 280L884.42 273.27L890.34 267.4L887.62 267.4L882.17 272.79L882.17 267.4L880.03 267.4ZM690.26 272.52L683.29 272.52C683.38 271.48 683.74 270.64 684.37 270C685.01 269.37 685.84 269.04 686.87 269.04C687.88 269.04 688.69 269.35 689.29 269.97C689.88 270.58 690.21 271.43 690.26 272.52ZM846.24 272.52L839.27 272.52C839.36 271.48 839.72 270.64 840.35 270C840.99 269.37 841.82 269.04 842.86 269.04C843.87 269.04 844.67 269.35 845.27 269.97C845.86 270.58 846.19 271.43 846.24 272.52ZM635.78 270.45Q635.83 270.4 635.87 270.35C636.56 269.5 637.5 269.07 638.68 269.07C639.86 269.07 640.8 269.5 641.49 270.35C642.18 271.2 642.53 272.31 642.53 273.7C642.53 275.08 642.18 276.2 641.49 277.05C640.8 277.9 639.86 278.32 638.68 278.32C637.5 278.32 636.56 277.9 635.87 277.05C635.17 276.2 634.82 275.08 634.82 273.7Q634.82 271.7 635.78 270.45ZM810.98 270.45Q811.02 270.4 811.06 270.35C811.76 269.5 812.7 269.07 813.88 269.07C815.06 269.07 815.99 269.5 816.68 270.35C817.38 271.2 817.72 272.31 817.72 273.7C817.72 275.08 817.38 276.2 816.68 277.05C815.99 277.9 815.06 278.32 813.88 278.32C812.7 278.32 811.76 277.9 811.06 277.05C810.37 276.2 810.02 275.08 810.02 273.7Q810.02 271.7 810.98 270.45ZM868.09 270.45Q868.13 270.4 868.17 270.35C868.86 269.5 869.8 269.07 870.98 269.07C872.16 269.07 873.1 269.5 873.79 270.35C874.48 271.2 874.83 272.31 874.83 273.7C874.83 275.08 874.48 276.2 873.79 277.05C873.1 277.9 872.16 278.32 870.98 278.32C869.8 278.32 868.86 277.9 868.17 277.05C867.47 276.2 867.12 275.08 867.12 273.7Q867.12 271.7 868.09 270.45ZM751.08 272.62L748.07 272.62L748.07 269.24L751.08 269.24C751.74 269.24 752.25 269.38 752.59 269.67C752.94 269.95 753.11 270.36 753.11 270.9C753.11 271.44 752.93 271.86 752.58 272.16Q752.06 272.62 751.08 272.62ZM559.35 278.04L552.89 278.04C553.15 277.75 553.36 277.35 553.52 276.85C553.69 276.35 553.8 275.9 553.85 275.49C553.9 275.07 553.96 274.5 554.03 273.77L554.37 269.33L559.35 269.33L559.35 278.04ZM777.76 278.09L775.2 278.09L775.2 273.37L777.76 273.37C778.56 273.37 779.19 273.58 779.64 274.01C780.08 274.44 780.31 275 780.31 275.7Q780.31 276.39 780.01 276.92Q779.86 277.19 779.63 277.42C779.18 277.87 778.55 278.09 777.76 278.09ZM582.46 277.87C582 277.51 581.77 277.01 581.77 276.37Q581.77 275.83 582.01 275.43Q582.2 275.09 582.56 274.85C583.08 274.5 583.79 274.32 584.68 274.32L587.9 274.32L587.9 275.25C587.9 276.19 587.55 276.95 586.84 277.53C586.13 278.11 585.26 278.4 584.23 278.4C583.5 278.4 582.91 278.22 582.46 277.87ZM609.92 277.87C609.46 277.51 609.24 277.01 609.24 276.37Q609.24 275.83 609.47 275.43Q609.67 275.09 610.03 274.85C610.55 274.5 611.26 274.32 612.14 274.32L615.37 274.32L615.37 275.25C615.37 276.19 615.01 276.95 614.3 277.53C613.59 278.11 612.72 278.4 611.69 278.4C610.97 278.4 610.38 278.22 609.92 277.87ZM708.36 277.87C707.9 277.51 707.68 277.01 707.68 276.37Q707.68 275.83 707.91 275.43Q708.1 275.09 708.46 274.85C708.99 274.5 709.69 274.32 710.58 274.32L713.8 274.32L713.8 275.25C713.8 276.19 713.45 276.95 712.74 277.53C712.03 278.11 711.16 278.4 710.13 278.4C709.4 278.4 708.81 278.22 708.36 277.87ZM751.34 278.14L748.07 278.14L748.07 274.44L751.34 274.44C752.87 274.44 753.63 275.04 753.63 276.25C753.63 276.85 753.44 277.32 753.05 277.65C752.67 277.98 752.1 278.14 751.34 278.14Z" fill="#FFFFFF" fill-opacity="1.000000" fill-rule="evenodd"></path><path id="диапазон позитивных оценок" d="M578.44 47.08Q577.96 47.89 577.96 48.98Q577.96 50.09 578.44 50.91Q578.72 51.41 579.19 51.81Q579.45 52.03 579.73 52.2Q580.81 52.87 582.3 52.87Q583.31 52.87 584.21 52.55Q584.4 52.49 584.59 52.41Q585.27 52.11 585.81 51.65Q586.1 51.39 586.36 51.08L586.36 52.59L588.38 52.59L588.38 44.24Q588.38 42.73 587.69 41.68Q587.42 41.26 587.04 40.92Q586.87 40.77 586.7 40.64Q585.42 39.71 583.46 39.71Q581.46 39.71 580.16 40.66Q580.12 40.69 580.08 40.72Q579.27 41.33 578.84 42.15Q578.56 42.67 578.43 43.28L580.51 43.28Q580.62 43 580.78 42.76Q581.07 42.36 581.52 42.07Q582.24 41.61 583.41 41.61Q584.54 41.61 585.28 42.14Q585.38 42.21 585.47 42.29Q585.65 42.44 585.78 42.62Q586.26 43.25 586.26 44.24L586.26 45.09L582.91 45.09Q580.61 45.09 579.28 46.13Q578.75 46.54 578.44 47.08ZM605.9 47.08Q605.42 47.89 605.42 48.98Q605.42 50.09 605.9 50.91Q606.19 51.41 606.65 51.81Q606.91 52.03 607.19 52.2Q608.28 52.87 609.77 52.87Q610.78 52.87 611.68 52.55Q611.87 52.49 612.05 52.41Q612.74 52.11 613.27 51.65Q613.57 51.39 613.82 51.08L613.82 52.59L615.85 52.59L615.85 44.24Q615.85 42.73 615.15 41.68Q614.88 41.26 614.51 40.92Q614.34 40.77 614.16 40.64Q612.89 39.71 610.93 39.71Q608.93 39.71 607.62 40.66Q607.58 40.69 607.54 40.72Q606.74 41.33 606.31 42.15Q606.02 42.67 605.9 43.28L607.97 43.28Q608.08 43 608.25 42.76Q608.53 42.36 608.99 42.07Q609.71 41.61 610.88 41.61Q612 41.61 612.75 42.14Q612.85 42.21 612.94 42.29Q613.11 42.44 613.25 42.62Q613.72 43.25 613.72 44.24L613.72 45.09L610.38 45.09Q608.07 45.09 606.75 46.13Q606.22 46.54 605.9 47.08ZM620.72 48.98L618.59 48.98Q618.74 50.13 619.34 50.96Q619.72 51.47 620.27 51.86Q620.36 51.92 620.45 51.98Q621.83 52.87 623.77 52.87Q625.83 52.87 627.2 51.89Q627.27 51.85 627.33 51.8Q628.03 51.27 628.38 50.57Q628.74 49.85 628.74 48.96Q628.74 48.28 628.51 47.72Q628.29 47.17 627.92 46.83Q627.55 46.49 627.18 46.3Q626.81 46.1 626.42 46.01Q626.69 45.9 626.93 45.74Q627.36 45.46 627.69 45.03Q627.71 45 627.73 44.98Q628.21 44.32 628.21 43.31Q628.21 42.43 627.85 41.74Q627.54 41.15 626.96 40.69Q626.84 40.6 626.72 40.51Q625.53 39.71 623.79 39.71Q622.12 39.71 620.84 40.42Q620.64 40.54 620.45 40.67Q619.8 41.11 619.41 41.71Q618.95 42.42 618.84 43.36L620.94 43.36Q621 43.11 621.12 42.89Q621.36 42.43 621.85 42.1Q622.57 41.61 623.72 41.61Q624.82 41.61 625.45 42.08Q625.73 42.29 625.89 42.56Q626.09 42.92 626.09 43.38Q626.09 43.95 625.83 44.35Q625.69 44.58 625.47 44.75Q624.86 45.24 623.72 45.24L621.87 45.24L621.87 47.08L623.84 47.08Q625.73 47.08 626.32 47.96Q626.59 48.35 626.59 48.94Q626.59 49.42 626.39 49.8Q626.2 50.16 625.84 50.42Q625.09 50.96 623.82 50.96Q622.6 50.96 621.77 50.44Q621.35 50.18 621.09 49.8Q620.83 49.44 620.72 48.98ZM632.01 50.17Q632.29 50.62 632.65 51.02Q633.26 51.69 634 52.12Q635.31 52.87 637.04 52.87Q638.78 52.87 640.08 52.11Q640.82 51.69 641.42 51.02Q641.77 50.63 642.05 50.19Q643.08 48.56 643.08 46.29Q643.08 44.01 642.05 42.38Q641.77 41.94 641.42 41.55Q640.82 40.88 640.08 40.46Q638.78 39.71 637.04 39.71Q635.31 39.71 634 40.46Q633.26 40.88 632.65 41.55Q632.29 41.95 632.01 42.4Q630.98 44.02 630.98 46.29Q630.98 48.55 632.01 50.17ZM680.31 50.17Q680.59 50.62 680.95 51.02Q681.56 51.69 682.3 52.12Q683.61 52.87 685.34 52.87Q687.08 52.87 688.39 52.11Q689.13 51.69 689.72 51.02Q690.08 50.63 690.36 50.19Q691.38 48.56 691.38 46.29Q691.38 44.01 690.36 42.38Q690.08 41.94 689.72 41.55Q689.13 40.88 688.39 40.46Q687.08 39.71 685.34 39.71Q683.61 39.71 682.3 40.46Q681.56 40.88 680.95 41.55Q680.59 41.95 680.31 42.4Q679.29 44.02 679.29 46.29Q679.29 48.55 680.31 50.17ZM695.51 48.98L693.39 48.98Q693.54 50.13 694.14 50.96Q694.51 51.47 695.06 51.86Q695.15 51.92 695.24 51.98Q696.62 52.87 698.56 52.87Q700.62 52.87 702 51.89Q702.06 51.85 702.13 51.8Q702.82 51.27 703.17 50.57Q703.53 49.85 703.53 48.96Q703.53 48.28 703.31 47.72Q703.08 47.17 702.71 46.83Q702.35 46.49 701.97 46.3Q701.6 46.1 701.21 46.01Q701.48 45.9 701.72 45.74Q702.15 45.46 702.49 45.03Q702.51 45 702.52 44.98Q703.01 44.32 703.01 43.31Q703.01 42.43 702.65 41.74Q702.34 41.15 701.75 40.69Q701.64 40.6 701.51 40.51Q700.32 39.71 698.59 39.71Q696.91 39.71 695.63 40.42Q695.43 40.54 695.24 40.67Q694.6 41.11 694.2 41.71Q693.74 42.42 693.63 43.36L695.73 43.36Q695.79 43.11 695.91 42.89Q696.16 42.43 696.65 42.1Q697.37 41.61 698.51 41.61Q699.61 41.61 700.25 42.08Q700.53 42.29 700.68 42.56Q700.88 42.92 700.88 43.38Q700.88 43.95 700.63 44.35Q700.48 44.58 700.27 44.75Q699.65 45.24 698.51 45.24L696.66 45.24L696.66 47.08L698.64 47.08Q700.52 47.08 701.11 47.96Q701.38 48.35 701.38 48.94Q701.38 49.42 701.18 49.8Q700.99 50.16 700.63 50.42Q699.88 50.96 698.61 50.96Q697.39 50.96 696.57 50.44Q696.15 50.18 695.88 49.8Q695.62 49.44 695.51 48.98ZM810.49 50.17Q810.77 50.62 811.13 51.02Q811.73 51.69 812.48 52.12Q813.78 52.87 815.52 52.87Q817.26 52.87 818.56 52.11Q819.3 51.69 819.9 51.02Q820.25 50.63 820.53 50.19Q821.56 48.56 821.56 46.29Q821.56 44.01 820.53 42.38Q820.25 41.94 819.9 41.55Q819.3 40.88 818.56 40.46Q817.26 39.71 815.52 39.71Q813.78 39.71 812.48 40.46Q811.73 40.88 811.13 41.55Q810.77 41.95 810.49 42.4Q809.46 44.02 809.46 46.29Q809.46 48.55 810.49 50.17ZM839.87 50.57Q840.07 50.84 840.3 51.08Q840.82 51.64 841.45 52.02Q842.83 52.87 844.73 52.87Q845.89 52.87 846.86 52.53Q847.83 52.2 848.43 51.65Q849.04 51.11 849.4 50.52Q849.77 49.94 849.91 49.34L847.73 49.34Q847.54 49.92 846.74 50.43Q845.94 50.94 844.75 50.94Q843.62 50.94 842.76 50.45Q842.32 50.2 841.95 49.81Q841.59 49.44 841.35 48.99Q840.87 48.12 840.87 46.98L840.87 46.93L850.05 46.93L850.05 45.84Q850.05 43.28 848.81 41.67Q848.69 41.51 848.56 41.37Q848.08 40.83 847.49 40.47Q846.26 39.71 844.56 39.71Q842.9 39.71 841.64 40.41Q840.89 40.83 840.27 41.49Q840.07 41.71 839.9 41.94Q838.63 43.64 838.63 46.29Q838.63 48.88 839.87 50.57ZM867.59 50.17Q867.87 50.62 868.23 51.02Q868.84 51.69 869.58 52.12Q870.89 52.87 872.62 52.87Q874.36 52.87 875.67 52.11Q876.41 51.69 877.01 51.02Q877.36 50.63 877.64 50.19Q878.67 48.56 878.67 46.29Q878.67 44.01 877.64 42.38Q877.36 41.94 877.01 41.55Q876.41 40.88 875.67 40.46Q874.36 39.71 872.62 39.71Q870.89 39.71 869.58 40.46Q868.84 40.88 868.23 41.55Q867.87 41.95 867.59 42.4Q866.57 44.02 866.57 46.29Q866.57 48.55 867.59 50.17ZM548.78 50.63L547.73 50.63L547.73 55.78L549.81 55.78L549.81 52.59L559.63 52.59L559.63 55.78L561.71 55.78L561.71 50.63L559.85 50.63L559.85 39.99L550.81 39.99L550.31 46.31Q550.17 47.98 549.78 49.13Q549.39 50.28 548.78 50.63ZM564.32 39.99L564.32 52.59L566.45 52.59L572.87 43.31L572.87 52.59L574.99 52.59L574.99 39.99L572.87 39.99L566.45 49.29L566.45 39.99L564.32 39.99ZM592.01 39.99L592.01 52.59L594.15 52.59L594.15 41.92L600.31 41.92L600.31 52.59L602.46 52.59L602.46 39.99L592.01 39.99ZM646.08 39.99L646.08 52.59L648.23 52.59L648.23 47.01L654.46 47.01L654.46 52.59L656.61 52.59L656.61 39.99L654.46 39.99L654.46 45.07L648.23 45.07L648.23 39.99L646.08 39.99ZM665.85 39.99L665.85 52.59L668 52.59L668 41.92L674.15 41.92L674.15 52.59L676.3 52.59L676.3 39.99L665.85 39.99ZM706.53 39.99L706.53 52.59L708.66 52.59L715.08 43.31L715.08 52.59L717.2 52.59L717.2 39.99L715.08 39.99L708.66 49.29L708.66 39.99L706.53 39.99ZM719.88 39.99L719.88 41.92L724.1 41.92L724.1 52.59L726.25 52.59L726.25 41.92L730.5 41.92L730.5 39.99L719.88 39.99ZM733.17 39.99L733.17 52.59L735.29 52.59L741.71 43.31L741.71 52.59L743.84 52.59L743.84 39.99L741.71 39.99L735.29 49.29L735.29 39.99L733.17 39.99ZM747.59 39.99L747.59 52.59L753.23 52.59Q755.11 52.59 756.22 51.66Q756.27 51.62 756.31 51.58Q756.82 51.13 757.09 50.57Q757.44 49.87 757.44 49.01Q757.44 47.9 756.92 47.15Q756.86 47.06 756.8 46.98Q756.38 46.46 755.84 46.17Q755.55 46.02 755.23 45.93Q755.35 45.88 755.47 45.82Q756.01 45.53 756.4 44.96Q756.88 44.27 756.88 43.24Q756.88 42.42 756.54 41.77Q756.3 41.29 755.86 40.9Q754.85 39.99 752.93 39.99L747.59 39.99ZM760.43 39.99L760.43 52.59L762.58 52.59L762.58 47.01L768.8 47.01L768.8 52.59L770.95 52.59L770.95 39.99L768.8 39.99L768.8 45.07L762.58 45.07L762.58 39.99L760.43 39.99ZM774.7 39.99L774.7 52.59L779.64 52.59Q781.14 52.59 782.2 51.91Q782.56 51.68 782.87 51.37Q783.32 50.92 783.61 50.39Q784.1 49.47 784.1 48.29Q784.1 47.1 783.59 46.18Q783.31 45.67 782.88 45.25Q782.59 44.97 782.27 44.76Q781.19 44.07 779.67 44.07L776.85 44.07L776.85 39.99L774.7 39.99ZM785.92 39.99L785.92 52.59L788.06 52.59L788.06 39.99L785.92 39.99ZM795.03 46.29L790.55 52.59L793.03 52.59L796.33 47.81L799.71 52.59L802.24 52.59L797.76 46.36L802.19 39.99L799.71 39.99L796.46 44.81L793.13 39.99L790.6 39.99L795.03 46.29ZM824.56 39.99L824.56 52.59L834.71 52.59L834.71 55.78L836.78 55.78L836.78 50.63L834.94 50.63L834.94 39.99L832.78 39.99L832.78 50.63L826.71 50.63L826.71 39.99L824.56 39.99ZM853.05 39.99L853.05 52.59L855.2 52.59L855.2 47.01L861.43 47.01L861.43 52.59L863.58 52.59L863.58 39.99L861.43 39.99L861.43 45.07L855.2 45.07L855.2 39.99L853.05 39.99ZM881.67 39.99L881.67 52.59L883.82 52.59L883.82 46.51L889.29 52.59L892.07 52.59L886.06 45.86L891.98 39.99L889.26 39.99L883.82 45.38L883.82 39.99L881.67 39.99ZM847.88 45.11L840.91 45.11Q841.02 43.85 841.66 42.99Q841.81 42.78 842 42.59Q842.26 42.33 842.56 42.14Q843.37 41.64 844.5 41.64Q845.65 41.64 846.44 42.17Q846.69 42.34 846.91 42.56Q846.97 42.62 847.03 42.69Q847.81 43.59 847.88 45.11ZM634.14 43.04Q634.18 42.99 634.23 42.94Q634.65 42.42 635.19 42.11Q635.98 41.66 637.04 41.66Q638.1 41.66 638.9 42.12Q639.43 42.42 639.85 42.94Q639.88 42.98 639.91 43.02Q640.88 44.28 640.88 46.29Q640.88 48.29 639.91 49.55Q639.88 49.6 639.85 49.64Q639.43 50.15 638.9 50.46Q638.1 50.91 637.04 50.91Q635.98 50.91 635.19 50.46Q634.65 50.15 634.23 49.64Q634.18 49.59 634.14 49.53Q633.18 48.28 633.18 46.29Q633.18 44.29 634.14 43.04ZM682.45 43.04Q682.49 42.99 682.53 42.94Q682.95 42.42 683.49 42.11Q684.29 41.66 685.34 41.66Q686.4 41.66 687.2 42.12Q687.73 42.42 688.15 42.94Q688.18 42.98 688.22 43.02Q689.19 44.28 689.19 46.29Q689.19 48.29 688.22 49.55Q688.18 49.6 688.15 49.64Q687.73 50.15 687.2 50.46Q686.4 50.91 685.34 50.91Q684.29 50.91 683.49 50.46Q682.95 50.15 682.53 49.64Q682.49 49.59 682.45 49.53Q681.49 48.28 681.49 46.29Q681.49 44.29 682.45 43.04ZM812.62 43.04Q812.66 42.99 812.7 42.94Q813.13 42.42 813.66 42.11Q814.46 41.66 815.52 41.66Q816.58 41.66 817.38 42.12Q817.91 42.42 818.33 42.94Q818.36 42.98 818.39 43.02Q819.36 44.28 819.36 46.29Q819.36 48.29 818.39 49.55Q818.36 49.6 818.33 49.64Q817.91 50.15 817.38 50.46Q816.58 50.91 815.52 50.91Q814.46 50.91 813.66 50.46Q813.13 50.15 812.7 49.64Q812.66 49.59 812.62 49.53Q811.66 48.28 811.66 46.29Q811.66 44.29 812.62 43.04ZM869.73 43.04Q869.77 42.99 869.81 42.94Q870.23 42.42 870.77 42.11Q871.57 41.66 872.62 41.66Q873.68 41.66 874.48 42.12Q875.01 42.42 875.43 42.94Q875.46 42.98 875.5 43.02Q876.47 44.28 876.47 46.29Q876.47 48.29 875.5 49.55Q875.46 49.6 875.43 49.64Q875.01 50.15 874.48 50.46Q873.68 50.91 872.62 50.91Q871.57 50.91 870.77 50.46Q870.23 50.15 869.81 49.64Q869.77 49.59 869.73 49.53Q868.77 48.28 868.77 46.29Q868.77 44.29 869.73 43.04ZM752.73 45.21L749.71 45.21L749.71 41.83L752.73 41.83Q753.71 41.83 754.23 42.26Q754.37 42.37 754.47 42.51Q754.75 42.9 754.75 43.49Q754.75 44.06 754.49 44.46Q754.38 44.62 754.23 44.75Q753.7 45.21 752.73 45.21ZM557.71 50.63L551.25 50.63Q551.64 50.19 551.88 49.44Q552.13 48.69 552.21 48.08Q552.28 47.46 552.38 46.36L552.73 41.92L557.71 41.92L557.71 50.63ZM779.4 50.68L776.85 50.68L776.85 45.96L779.4 45.96Q780.52 45.96 781.18 46.51Q781.23 46.55 781.28 46.6Q781.48 46.79 781.62 47.03Q781.95 47.56 781.95 48.29Q781.95 48.98 781.65 49.51Q781.5 49.78 781.27 50.01Q781.18 50.1 781.07 50.18Q780.43 50.68 779.4 50.68ZM580.41 50.01Q580.13 49.58 580.13 48.96Q580.13 48.42 580.36 48.02Q580.56 47.68 580.92 47.44Q581.7 46.91 583.03 46.91L586.26 46.91L586.26 47.84Q586.26 48.61 585.94 49.22Q585.68 49.72 585.2 50.12Q584.95 50.32 584.67 50.48Q583.77 50.99 582.58 50.99Q581.51 50.99 580.83 50.47Q580.82 50.46 580.81 50.46Q580.57 50.26 580.41 50.01ZM607.87 50.01Q607.59 49.58 607.59 48.96Q607.59 48.42 607.83 48.02Q608.03 47.68 608.38 47.44Q609.17 46.91 610.5 46.91L613.72 46.91L613.72 47.84Q613.72 48.61 613.41 49.22Q613.15 49.72 612.66 50.12Q612.41 50.32 612.14 50.48Q611.24 50.99 610.05 50.99Q608.98 50.99 608.3 50.47Q608.29 50.46 608.28 50.46Q608.03 50.26 607.87 50.01ZM752.98 50.73L749.71 50.73L749.71 47.03L752.98 47.03Q754.4 47.03 754.94 47.72Q755.28 48.15 755.28 48.84Q755.28 49.5 754.96 49.94Q754.85 50.1 754.7 50.24Q754.12 50.73 752.98 50.73Z" fill="#FFFFFF" fill-opacity="1.000000" fill-rule="evenodd"></path><path id="100" d="M10.62 11.6Q10.62 13.83 11.27 15.54Q11.86 17.1 12.97 18.06Q13.08 18.15 13.2 18.24Q13.62 18.57 14.1 18.79Q15.05 19.23 16.21 19.23Q17.36 19.23 18.31 18.79Q18.79 18.57 19.22 18.24Q19.34 18.14 19.46 18.04Q20.56 17.08 21.14 15.54Q21.78 13.83 21.78 11.6Q21.78 9.38 21.14 7.66Q20.55 6.12 19.45 5.16Q19.34 5.06 19.22 4.97Q18.8 4.64 18.33 4.43Q17.37 3.98 16.21 3.98Q15.04 3.98 14.08 4.43Q13.62 4.64 13.2 4.97Q13.08 5.06 12.98 5.15Q11.86 6.1 11.27 7.66Q10.62 9.38 10.62 11.6ZM24.31 11.6Q24.31 13.83 24.96 15.54Q25.55 17.1 26.66 18.06Q26.77 18.15 26.89 18.24Q27.31 18.57 27.79 18.79Q28.74 19.23 29.9 19.23Q31.05 19.23 32 18.79Q32.48 18.57 32.9 18.24Q33.03 18.14 33.15 18.04Q34.24 17.08 34.83 15.54Q35.47 13.83 35.47 11.6Q35.47 9.38 34.83 7.66Q34.24 6.12 33.14 5.16Q33.03 5.06 32.9 4.97Q32.49 4.64 32.02 4.43Q31.06 3.98 29.9 3.98Q28.73 3.98 27.77 4.43Q27.31 4.64 26.89 4.97Q26.77 5.06 26.66 5.15Q25.55 6.1 24.96 7.66Q24.31 9.38 24.31 11.6ZM1.15 6.77L1.15 8.73L4.87 6.39L4.87 19L6.73 19L6.73 4.21L5.06 4.21L1.15 6.77ZM12.53 11.6Q12.53 9.91 12.93 8.6Q13.34 7.29 14.18 6.5Q14.57 6.13 15.04 5.93Q15.58 5.71 16.21 5.71Q16.84 5.71 17.38 5.94Q17.84 6.13 18.23 6.5Q19.07 7.29 19.47 8.6Q19.88 9.91 19.88 11.6Q19.88 13.29 19.47 14.61Q19.07 15.93 18.23 16.72Q17.84 17.08 17.38 17.28Q16.84 17.51 16.21 17.51Q15.58 17.51 15.04 17.28Q14.57 17.09 14.18 16.72Q13.34 15.93 12.93 14.61Q12.53 13.29 12.53 11.6ZM26.21 11.6Q26.21 9.91 26.62 8.6Q27.02 7.29 27.87 6.5Q28.26 6.13 28.73 5.93Q29.26 5.71 29.9 5.71Q30.53 5.71 31.07 5.94Q31.53 6.13 31.92 6.5Q32.76 7.29 33.16 8.6Q33.57 9.91 33.57 11.6Q33.57 13.29 33.16 14.61Q32.76 15.93 31.92 16.72Q31.53 17.08 31.07 17.28Q30.53 17.51 29.9 17.51Q29.26 17.51 28.73 17.28Q28.26 17.09 27.87 16.72Q27.02 15.93 26.62 14.61Q26.21 13.29 26.21 11.6Z" fill="#FFFFFF" fill-opacity="1.000000" fill-rule="evenodd"></path><path id="50" d="M24.57 164.1Q24.57 166.33 25.22 168.04Q25.81 169.6 26.92 170.56Q27.03 170.65 27.15 170.74Q27.57 171.07 28.05 171.29Q29 171.73 30.16 171.73Q31.31 171.73 32.26 171.29Q32.74 171.07 33.17 170.74Q33.29 170.65 33.41 170.54Q34.5 169.59 35.09 168.04Q35.73 166.33 35.73 164.1Q35.73 161.88 35.09 160.16Q34.5 158.62 33.4 157.66Q33.29 157.56 33.17 157.47Q32.75 157.14 32.28 156.93Q31.32 156.48 30.16 156.48Q28.99 156.48 28.03 156.93Q27.57 157.14 27.15 157.47Q27.03 157.56 26.92 157.65Q25.81 158.6 25.22 160.16Q24.57 161.88 24.57 164.1ZM13.62 167.71L11.7 167.71Q11.79 168.34 12.03 168.89Q12.46 169.83 13.35 170.57Q13.57 170.75 13.8 170.9Q15.1 171.73 16.93 171.73Q18.18 171.73 19.23 171.27Q19.39 171.2 19.55 171.12Q20.06 170.85 20.48 170.48Q21.02 169.99 21.41 169.34Q21.49 169.19 21.57 169.05Q22.1 167.99 22.1 166.67Q22.1 165.45 21.62 164.47Q21.52 164.27 21.4 164.07Q20.86 163.2 20.08 162.66Q19.86 162.51 19.61 162.38Q19.21 162.17 18.79 162.04Q18.06 161.82 17.27 161.82Q15.73 161.82 14.61 162.5Q14.12 162.81 13.72 163.24L14.14 158.43L21.28 158.43L21.28 156.71L12.54 156.71L11.83 165.16L13.72 165.16Q14.31 164.36 15.1 163.95Q15.92 163.52 16.97 163.52Q17.77 163.52 18.42 163.82Q18.87 164.03 19.25 164.38Q19.55 164.66 19.76 165Q20.19 165.71 20.19 166.69Q20.19 167.79 19.69 168.58Q19.52 168.86 19.29 169.09Q19.04 169.34 18.74 169.53Q17.98 170.01 16.91 170.01Q15.62 170.01 14.79 169.4Q14.73 169.35 14.68 169.31Q13.89 168.66 13.65 167.85Q13.63 167.78 13.62 167.71ZM26.47 164.1Q26.47 162.41 26.88 161.1Q27.28 159.78 28.13 159Q28.52 158.63 28.99 158.43Q29.52 158.21 30.16 158.21Q30.79 158.21 31.33 158.44Q31.79 158.63 32.18 159Q33.02 159.78 33.42 161.1Q33.83 162.41 33.83 164.1Q33.83 165.79 33.42 167.11Q33.02 168.43 32.18 169.22Q31.79 169.58 31.33 169.78Q30.79 170.01 30.16 170.01Q29.52 170.01 28.99 169.78Q28.52 169.59 28.13 169.22Q27.28 168.43 26.88 167.11Q26.47 165.79 26.47 164.1Z" fill="#FFFFFF" fill-opacity="1.000000" fill-rule="evenodd"></path><path id="0" d="M24.57 333.6Q24.57 335.83 25.22 337.54Q25.81 339.1 26.92 340.06Q27.03 340.15 27.15 340.24Q27.57 340.57 28.05 340.79Q29 341.23 30.16 341.23Q31.31 341.23 32.26 340.79Q32.74 340.57 33.17 340.24Q33.29 340.15 33.41 340.04Q34.5 339.09 35.09 337.54Q35.73 335.83 35.73 333.6Q35.73 331.38 35.09 329.66Q34.5 328.12 33.4 327.16Q33.29 327.06 33.17 326.97Q32.75 326.64 32.28 326.43Q31.32 325.98 30.16 325.98Q28.99 325.98 28.03 326.43Q27.57 326.64 27.15 326.97Q27.03 327.06 26.92 327.15Q25.81 328.1 25.22 329.66Q24.57 331.38 24.57 333.6ZM26.47 333.6Q26.47 331.91 26.88 330.6Q27.28 329.29 28.13 328.5Q28.52 328.13 28.99 327.93Q29.52 327.71 30.16 327.71Q30.79 327.71 31.33 327.94Q31.79 328.13 32.18 328.5Q33.02 329.29 33.42 330.6Q33.83 331.91 33.83 333.6Q33.83 335.29 33.42 336.61Q33.02 337.93 32.18 338.72Q31.79 339.08 31.33 339.28Q30.79 339.51 30.16 339.51Q29.52 339.51 28.99 339.28Q28.52 339.09 28.13 338.72Q27.28 337.93 26.88 336.61Q26.47 335.29 26.47 333.6Z" fill="#FFFFFF" fill-opacity="1.000000" fill-rule="evenodd"></path><path id="Vector 2163" d="" fill="#37C8D2" fill-opacity="1.000000" fill-rule="nonzero"></path><path id="Vector 2163" d="M146.75 245.45L307.19 217.09L544.59 184.29L743.7 187.16L943.46 209.27L1114.5 200.28" stroke="#5F37EB" stroke-opacity="1.000000" stroke-width="9.105521"></path><circle id="Oval 5" cx="332.450195" cy="209.782959" r="27.771839" fill="#37C8D2" fill-opacity="1.000000"></circle><circle id="Oval 8" cx="545.108643" cy="184.295166" r="27.771839" fill="#37C8D2" fill-opacity="1.000000"></circle><circle id="Oval 9" cx="757.766846" cy="187.105225" r="27.771839" fill="#37C8D2" fill-opacity="1.000000"></circle><circle id="Oval 10" cx="935.854980" cy="209.782959" r="27.771839" fill="#37C8D2" fill-opacity="1.000000"></circle><circle id="Oval 16" cx="1103.147217" cy="204.348389" r="27.771839" fill="#37C8D2" fill-opacity="1.000000"></circle><circle id="Oval 7" cx="134.271729" cy="251.213135" r="27.771839" fill="#37C8D2" fill-opacity="1.000000"></circle><path id="35,3" d="M314.41 212.37L312.05 212.37Q312.15 213.33 312.59 214.09Q312.73 214.36 312.92 214.59Q313.18 214.93 313.49 215.21Q314.06 215.71 314.79 216.02Q315.94 216.49 317.35 216.49Q319.19 216.49 320.48 215.66Q320.74 215.49 320.99 215.28Q321.75 214.64 322.1 213.81Q322.41 213.1 322.41 212.25Q322.41 211.48 322.16 210.86Q321.9 210.23 321.49 209.84Q321.08 209.44 320.66 209.2Q320.24 208.96 319.83 208.87Q319.87 208.85 319.91 208.84Q320.68 208.5 321.28 207.76Q321.39 207.63 321.48 207.48Q321.91 206.79 321.91 205.83Q321.91 204.99 321.6 204.3Q321.28 203.59 320.63 203.04Q320.56 202.98 320.49 202.92Q319.23 201.93 317.2 201.93Q315.93 201.93 314.87 202.38Q314.38 202.59 313.96 202.9Q313.48 203.25 313.09 203.74Q312.93 203.95 312.8 204.17Q312.34 204.94 312.22 205.91L314.53 205.91Q314.64 205.45 314.89 205.09Q315.11 204.78 315.42 204.55Q315.46 204.52 315.49 204.5Q316.16 204.03 317.16 204.03Q318.25 204.03 318.88 204.57Q318.88 204.57 318.88 204.57Q319.14 204.79 319.29 205.07Q319.51 205.48 319.51 206.01Q319.51 206.46 319.33 206.84Q319.17 207.18 318.85 207.45Q318.19 208.01 317.05 208.01L315.57 208.01L315.57 210.05L317.24 210.05Q318.47 210.05 319.24 210.59Q319.56 210.8 319.74 211.1Q320.02 211.54 320.02 212.15Q320.02 212.67 319.81 213.08Q319.63 213.47 319.26 213.77Q319.14 213.87 319 213.96Q318.31 214.39 317.35 214.39Q316.16 214.39 315.38 213.84Q314.94 213.52 314.69 213.1Q314.49 212.77 314.41 212.37ZM344.84 212.37L342.48 212.37Q342.58 213.33 343.02 214.09Q343.16 214.36 343.35 214.59Q343.61 214.93 343.92 215.21Q344.49 215.71 345.22 216.02Q346.37 216.49 347.78 216.49Q349.62 216.49 350.91 215.66Q351.17 215.49 351.42 215.28Q352.18 214.64 352.53 213.81Q352.84 213.1 352.84 212.25Q352.84 211.48 352.59 210.86Q352.33 210.23 351.92 209.84Q351.51 209.44 351.09 209.2Q350.67 208.96 350.26 208.87Q350.3 208.85 350.34 208.84Q351.11 208.5 351.71 207.76Q351.82 207.63 351.91 207.48Q352.34 206.79 352.34 205.83Q352.34 204.99 352.03 204.3Q351.71 203.59 351.06 203.04Q350.99 202.98 350.92 202.92Q349.66 201.93 347.63 201.93Q346.36 201.93 345.3 202.38Q344.81 202.59 344.39 202.9Q343.91 203.25 343.52 203.74Q343.36 203.95 343.23 204.17Q342.77 204.94 342.65 205.91L344.96 205.91Q345.07 205.45 345.32 205.09Q345.54 204.78 345.85 204.55Q345.88 204.52 345.92 204.5Q346.59 204.03 347.59 204.03Q348.68 204.03 349.31 204.57L349.31 204.57Q349.57 204.79 349.72 205.07Q349.94 205.48 349.94 206.01Q349.94 206.46 349.76 206.84Q349.6 207.18 349.28 207.45Q348.62 208.01 347.48 208.01L346.01 208.01L346.01 210.05L347.67 210.05Q348.9 210.05 349.67 210.59Q349.99 210.8 350.17 211.1Q350.45 211.54 350.45 212.15Q350.45 212.67 350.24 213.08Q350.05 213.47 349.69 213.77Q349.57 213.87 349.43 213.96Q348.74 214.39 347.78 214.39Q346.59 214.39 345.81 213.84Q345.37 213.52 345.12 213.1Q344.92 212.77 344.84 212.37ZM327.13 212.51L324.75 212.51Q324.84 213.22 325.14 213.83Q325.55 214.69 326.37 215.36Q326.57 215.52 326.78 215.66Q328.08 216.49 329.91 216.49Q331.26 216.49 332.35 215.97Q332.42 215.94 332.48 215.91Q332.99 215.65 333.4 215.29Q333.93 214.83 334.31 214.2Q334.37 214.09 334.43 213.99Q334.99 212.94 334.99 211.59Q334.99 210.52 334.61 209.63Q334.23 208.74 333.58 208.17Q333.34 207.96 333.07 207.78Q332.63 207.49 332.12 207.3Q331.91 207.22 331.68 207.16Q331.07 206.99 330.41 206.99Q328.99 206.99 327.97 207.63Q327.54 207.9 327.19 208.29L327.55 204.29L334.19 204.29L334.19 202.17L325.55 202.17L324.86 210.35L327.23 210.35Q327.62 209.78 328.16 209.44Q328.9 208.99 329.91 208.99Q330.59 208.99 331.15 209.26Q331.51 209.43 331.81 209.72Q332.06 209.95 332.23 210.23Q332.59 210.82 332.59 211.63Q332.59 212.52 332.19 213.17Q332.04 213.42 331.83 213.63Q331.6 213.86 331.32 214.03Q330.7 214.39 329.86 214.39Q328.78 214.39 328.09 213.88Q328.06 213.85 328.03 213.82Q327.39 213.31 327.17 212.65Q327.15 212.58 327.13 212.51ZM338.09 216.31L336.95 219.45L338.69 219.45L339.95 216.13Q340.15 215.57 340.15 215.09Q340.15 214.74 340.01 214.45Q339.9 214.21 339.71 214.02Q339.51 213.83 339.28 213.73Q338.99 213.59 338.63 213.59Q338.19 213.59 337.85 213.78Q337.7 213.87 337.57 213.99Q337.4 214.16 337.3 214.35Q337.15 214.64 337.15 215.01Q337.15 215.44 337.34 215.74Q337.38 215.79 337.41 215.83Q337.51 215.96 337.63 216.06Q337.83 216.22 338.09 216.31Z" fill="#FFFFFF" fill-opacity="1.000000" fill-rule="evenodd"></path><path id="42,9" d="M538.1 178.6Q537.54 179.49 537.41 180.64L539.71 180.64Q539.86 179.94 540.27 179.45Q540.42 179.27 540.59 179.13Q540.65 179.08 540.71 179.04Q541.36 178.56 542.36 178.56Q543.18 178.56 543.76 178.94Q543.91 179.04 544.05 179.17Q544.34 179.44 544.5 179.76Q544.71 180.18 544.71 180.7Q544.71 181.4 544.44 181.96Q544.36 182.12 544.26 182.27Q543.82 182.94 542.79 183.88L537.47 188.78L537.47 190.76L547.41 190.76L547.41 188.64L540.73 188.64L544.45 185.28Q544.95 184.83 545.28 184.51Q545.62 184.18 546 183.71Q546.39 183.23 546.61 182.8Q546.83 182.37 546.98 181.82Q546.99 181.79 546.99 181.76Q547.13 181.23 547.13 180.66Q547.13 180.05 546.96 179.48Q546.9 179.25 546.8 179.02Q546.59 178.55 546.29 178.16Q546.1 177.9 545.87 177.68Q545.28 177.11 544.38 176.78Q543.48 176.45 542.41 176.45Q540.62 176.45 539.39 177.27Q539.16 177.43 538.96 177.61Q538.44 178.05 538.1 178.6ZM555.85 178.91Q555.28 179.96 555.28 181.34Q555.28 182.41 555.68 183.3Q555.79 183.54 555.93 183.77Q556.42 184.56 557.12 185.06Q557.36 185.24 557.63 185.38Q557.99 185.56 558.36 185.69Q559.08 185.92 559.87 185.92Q560.86 185.92 561.71 185.58Q561.9 185.51 562.08 185.42Q562.51 185.21 562.86 184.91Q563.33 184.5 563.66 183.93Q563.59 186.5 562.69 187.71Q562.23 188.31 561.62 188.61Q561.03 188.91 560.29 188.91Q559.3 188.91 558.7 188.44Q558.23 188.08 558 187.61Q557.93 187.47 557.88 187.32L555.52 187.32Q555.61 187.88 555.83 188.38Q556.23 189.25 557.05 189.94Q557.29 190.13 557.54 190.29Q558.7 191.01 560.29 191.01Q561.51 191.01 562.52 190.56Q562.53 190.56 562.53 190.55Q562.77 190.45 562.99 190.32Q563.73 189.9 564.33 189.21Q565.1 188.32 565.53 186.88Q565.96 185.45 565.96 183.6Q565.96 181.44 565.32 179.83Q564.82 178.59 563.93 177.77Q563.68 177.54 563.39 177.34Q563.23 177.23 563.07 177.13Q561.88 176.45 560.29 176.45Q558.8 176.45 557.67 177.08Q557.14 177.38 556.69 177.82Q556.18 178.31 555.85 178.91ZM524.07 185.78L524.07 187.71L531 187.71L531 190.76L533.33 190.76L533.33 187.71L535.29 187.71L535.29 185.68L533.33 185.68L533.33 176.68L530.41 176.68L524.07 185.78ZM558 182.6Q557.68 182.02 557.68 181.26Q557.68 180.45 558.03 179.84Q558.2 179.55 558.45 179.3Q558.74 179.02 559.08 178.84Q559.65 178.55 560.38 178.55Q561.08 178.55 561.64 178.82Q562.02 179 562.33 179.31Q562.63 179.6 562.81 179.95Q563.12 180.53 563.12 181.26Q563.12 182.04 562.78 182.63Q562.6 182.94 562.33 183.19Q562.02 183.48 561.66 183.65Q561.09 183.93 560.4 183.93Q559.66 183.93 559.08 183.63Q558.74 183.45 558.46 183.18Q558.18 182.92 558 182.6ZM531 185.68L526.52 185.68L531 179.3L531 185.68ZM550.92 190.82L549.79 193.96L551.53 193.96L552.78 190.64Q552.98 190.08 552.98 189.6Q552.98 189.25 552.84 188.96Q552.74 188.73 552.54 188.54Q552.34 188.34 552.11 188.24Q551.82 188.11 551.47 188.11Q551.02 188.11 550.69 188.29Q550.53 188.38 550.4 188.51Q550.23 188.67 550.13 188.87Q549.98 189.16 549.98 189.52Q549.98 189.95 550.18 190.25Q550.21 190.3 550.25 190.35Q550.34 190.47 550.47 190.57Q550.66 190.73 550.92 190.82Z" fill="#FFFFFF" fill-opacity="1.000000" fill-rule="evenodd"></path><path id="42,6" d="M750.98 181.41Q750.43 182.3 750.3 183.45L752.6 183.45Q752.75 182.75 753.16 182.26Q753.3 182.08 753.48 181.94Q753.54 181.89 753.6 181.85Q754.25 181.37 755.24 181.37Q756.06 181.37 756.64 181.75Q756.8 181.85 756.94 181.98Q757.23 182.25 757.39 182.57Q757.6 182.99 757.6 183.51Q757.6 184.21 757.32 184.77Q757.25 184.93 757.15 185.08Q756.71 185.75 755.68 186.69L750.36 191.59L750.36 193.57L760.3 193.57L760.3 191.45L753.62 191.45L757.34 188.09Q757.84 187.64 758.17 187.32Q758.5 186.99 758.89 186.52Q759.28 186.04 759.5 185.61Q759.72 185.18 759.87 184.63Q759.87 184.6 759.88 184.57Q760.02 184.04 760.02 183.47Q760.02 182.86 759.85 182.29Q759.78 182.06 759.69 181.83Q759.48 181.36 759.18 180.97Q758.99 180.71 758.76 180.49Q758.16 179.92 757.26 179.59Q756.37 179.26 755.3 179.26Q753.51 179.26 752.28 180.08Q752.05 180.24 751.84 180.42Q751.33 180.86 750.98 181.41ZM768.24 183.37Q767.81 184.8 767.81 186.65Q767.81 189.95 769.29 191.88Q769.81 192.57 770.5 193.02Q771.73 193.82 773.49 193.82Q774.92 193.82 776.03 193.21Q776.59 192.9 777.07 192.44Q777.58 191.94 777.91 191.34Q778.49 190.28 778.49 188.91Q778.49 187.84 778.08 186.95Q777.97 186.71 777.83 186.48Q777.34 185.69 776.64 185.19Q776.4 185.01 776.13 184.88Q775.78 184.69 775.4 184.57Q774.68 184.33 773.89 184.33Q772.95 184.33 772.13 184.64Q771.91 184.73 771.69 184.84Q771.26 185.05 770.91 185.36Q770.45 185.77 770.13 186.34Q770.19 183.75 771.09 182.55Q771.53 181.96 772.11 181.67Q772.72 181.36 773.49 181.36Q774.47 181.36 775.08 181.82Q775.59 182.2 775.81 182.71Q775.85 182.82 775.89 182.93L778.25 182.93Q778.17 182.39 777.96 181.91Q777.57 181.02 776.74 180.33Q776.52 180.14 776.27 179.99Q775.11 179.26 773.49 179.26Q772.25 179.26 771.23 179.7Q771.01 179.8 770.79 179.93Q770.04 180.35 769.44 181.04Q768.67 181.93 768.24 183.37ZM736.96 188.59L736.96 190.52L743.89 190.52L743.89 193.57L746.22 193.57L746.22 190.52L748.18 190.52L748.18 188.49L746.22 188.49L746.22 179.49L743.3 179.49L736.96 188.59ZM743.89 188.49L739.4 188.49L743.89 182.11L743.89 188.49ZM771.02 187.61Q771.19 187.31 771.45 187.07Q771.74 186.8 772.07 186.63Q772.66 186.34 773.39 186.34Q774.12 186.34 774.69 186.63Q775.03 186.8 775.32 187.07Q775.58 187.33 775.76 187.63Q776.09 188.22 776.09 188.99Q776.09 189.8 775.74 190.42Q775.57 190.71 775.33 190.95Q775.03 191.25 774.67 191.43Q774.11 191.72 773.41 191.72Q772.68 191.72 772.11 191.42Q771.75 191.24 771.45 190.95Q771.17 190.67 770.99 190.34Q770.67 189.75 770.67 188.99Q770.67 188.2 771.02 187.61ZM763.81 193.63L762.67 196.78L764.41 196.78L765.67 193.45Q765.87 192.89 765.87 192.41Q765.87 192.06 765.73 191.77Q765.62 191.54 765.43 191.35Q765.23 191.16 765 191.05Q764.71 190.92 764.35 190.92Q763.91 190.92 763.57 191.1Q763.42 191.19 763.29 191.32Q763.12 191.48 763.02 191.68Q762.87 191.97 762.87 192.33Q762.87 192.76 763.07 193.06Q763.1 193.11 763.13 193.16Q763.23 193.28 763.35 193.38Q763.55 193.54 763.81 193.63Z" fill="#FFFFFF" fill-opacity="1.000000" fill-rule="evenodd"></path><path id="38,3" d="M917.68 212.37L915.32 212.37Q915.42 213.33 915.85 214.09Q916 214.36 916.19 214.59Q916.45 214.93 916.76 215.21Q917.33 215.71 918.06 216.02Q919.2 216.49 920.62 216.49Q922.45 216.49 923.75 215.66Q924.01 215.49 924.25 215.28Q925.02 214.64 925.37 213.81Q925.68 213.1 925.68 212.25Q925.68 211.48 925.43 210.86Q925.17 210.23 924.76 209.84Q924.35 209.44 923.93 209.2Q923.51 208.96 923.1 208.87Q923.14 208.85 923.17 208.84Q923.95 208.5 924.55 207.76Q924.66 207.63 924.75 207.48Q925.18 206.79 925.18 205.83Q925.18 204.99 924.86 204.3Q924.54 203.59 923.9 203.04Q923.83 202.98 923.75 202.92Q922.5 201.93 920.46 201.93Q919.2 201.93 918.14 202.38Q917.64 202.59 917.23 202.9Q916.74 203.25 916.36 203.74Q916.2 203.95 916.07 204.17Q915.61 204.94 915.48 205.91L917.8 205.91Q917.91 205.45 918.16 205.09Q918.37 204.78 918.69 204.55Q918.72 204.52 918.75 204.5Q919.43 204.03 920.43 204.03Q921.52 204.03 922.15 204.57Q922.15 204.57 922.15 204.57Q922.4 204.79 922.56 205.07Q922.78 205.48 922.78 206.01Q922.78 206.46 922.6 206.84Q922.44 207.18 922.12 207.45Q921.46 208.01 920.32 208.01L918.84 208.01L918.84 210.05L920.5 210.05Q921.73 210.05 922.51 210.59Q922.82 210.8 923.01 211.1Q923.29 211.54 923.29 212.15Q923.29 212.67 923.08 213.08Q922.89 213.47 922.53 213.77Q922.4 213.87 922.27 213.96Q921.58 214.39 920.62 214.39Q919.43 214.39 918.65 213.84Q918.21 213.52 917.96 213.1Q917.76 212.77 917.68 212.37ZM928.06 211.03Q927.82 211.65 927.82 212.37Q927.82 213.22 928.13 213.91Q928.5 214.72 929.29 215.34Q929.33 215.37 929.37 215.4Q930.82 216.49 933.09 216.49Q935.31 216.49 936.75 215.43Q936.81 215.39 936.87 215.34Q937.65 214.73 938.02 213.92Q938.34 213.22 938.34 212.37Q938.34 211.65 938.09 211.03Q937.85 210.41 937.46 209.99Q937.07 209.58 936.63 209.31Q936.2 209.04 935.76 208.93Q936.16 208.75 936.5 208.5Q936.85 208.25 937.19 207.88Q937.53 207.51 937.72 206.97Q937.92 206.44 937.92 205.79Q937.92 205.09 937.67 204.49Q937.35 203.68 936.59 203.04Q936.51 202.98 936.43 202.92Q935.13 201.93 933.09 201.93Q930.97 201.93 929.65 202.97Q929.61 203 929.57 203.04Q928.82 203.66 928.49 204.45Q928.24 205.07 928.24 205.79Q928.24 206.44 928.43 206.97Q928.63 207.51 928.97 207.88Q929.3 208.25 929.65 208.5Q930.01 208.75 930.42 208.93Q929.98 209.04 929.54 209.31Q929.11 209.58 928.71 209.99Q928.31 210.41 928.06 211.03ZM948.38 212.37L946.02 212.37Q946.12 213.33 946.56 214.09Q946.7 214.36 946.89 214.59Q947.15 214.93 947.47 215.21Q948.03 215.71 948.77 216.02Q949.91 216.49 951.32 216.49Q953.16 216.49 954.45 215.66Q954.71 215.49 954.96 215.28Q955.72 214.64 956.07 213.81Q956.38 213.1 956.38 212.25Q956.38 211.48 956.13 210.86Q955.87 210.23 955.46 209.84Q955.05 209.44 954.63 209.2Q954.21 208.96 953.8 208.87Q953.84 208.85 953.88 208.84Q954.65 208.5 955.25 207.76Q955.36 207.63 955.45 207.48Q955.88 206.79 955.88 205.83Q955.88 204.99 955.57 204.3Q955.25 203.59 954.6 203.04Q954.53 202.98 954.46 202.92Q953.2 201.93 951.17 201.93Q949.9 201.93 948.84 202.38Q948.35 202.59 947.93 202.9Q947.45 203.25 947.06 203.74Q946.9 203.95 946.77 204.17Q946.31 204.94 946.19 205.91L948.5 205.91Q948.61 205.45 948.86 205.09Q949.08 204.78 949.4 204.55Q949.43 204.52 949.46 204.5Q950.13 204.03 951.13 204.03Q952.22 204.03 952.85 204.57L952.85 204.57Q953.11 204.79 953.26 205.07Q953.48 205.48 953.48 206.01Q953.48 206.46 953.3 206.84Q953.14 207.18 952.82 207.45Q952.16 208.01 951.02 208.01L949.55 208.01L949.55 210.05L951.21 210.05Q952.44 210.05 953.21 210.59Q953.53 210.8 953.72 211.1Q953.99 211.54 953.99 212.15Q953.99 212.67 953.79 213.08Q953.6 213.47 953.23 213.77Q953.11 213.87 952.97 213.96Q952.28 214.39 951.32 214.39Q950.13 214.39 949.35 213.84Q948.91 213.52 948.66 213.1Q948.47 212.77 948.38 212.37ZM930.74 206.77Q930.59 206.43 930.59 206.03Q930.59 205.48 930.82 205.06Q930.99 204.76 931.28 204.53Q931.28 204.53 931.28 204.52Q931.96 203.97 933.09 203.97Q934.15 203.97 934.81 204.48Q934.84 204.51 934.87 204.53Q935.15 204.76 935.32 205.05Q935.55 205.47 935.55 206.03Q935.55 206.43 935.4 206.77Q935.23 207.18 934.84 207.49Q934.67 207.63 934.49 207.73Q933.88 208.07 933.09 208.07Q932.22 208.07 931.59 207.68Q931.44 207.6 931.31 207.49Q930.92 207.17 930.74 206.77ZM930.42 213.09Q930.23 212.69 930.23 212.21Q930.23 211.68 930.44 211.26Q930.64 210.86 931.03 210.56Q931.06 210.53 931.09 210.51Q931.88 209.93 933.09 209.93Q934.22 209.93 934.98 210.46Q935.05 210.51 935.12 210.56Q935.52 210.88 935.71 211.29Q935.91 211.7 935.91 212.21Q935.91 212.7 935.72 213.11Q935.53 213.51 935.14 213.83Q935.13 213.84 935.12 213.84Q934.35 214.45 933.09 214.45Q931.8 214.45 931.02 213.83Q930.61 213.51 930.42 213.09ZM941.63 216.31L940.49 219.45L942.23 219.45L943.49 216.13Q943.69 215.57 943.69 215.09Q943.69 214.74 943.55 214.45Q943.44 214.21 943.25 214.02Q943.05 213.83 942.82 213.73Q942.53 213.59 942.17 213.59Q941.73 213.59 941.39 213.78Q941.24 213.87 941.11 213.99Q940.94 214.16 940.84 214.35Q940.69 214.64 940.69 215.01Q940.69 215.44 940.89 215.74Q940.92 215.79 940.95 215.83Q941.05 215.96 941.17 216.06Q941.37 216.22 941.63 216.31Z" fill="#FFFFFF" fill-opacity="1.000000" fill-rule="evenodd"></path><path id="39,4" d="M1085.01 206.94L1082.64 206.94Q1082.75 207.89 1083.18 208.66Q1083.32 208.92 1083.51 209.16Q1083.77 209.49 1084.09 209.77Q1084.65 210.27 1085.39 210.58Q1086.53 211.06 1087.94 211.06Q1089.78 211.06 1091.06 210.22Q1091.34 210.05 1091.57 209.85Q1092.34 209.2 1092.69 208.38Q1093.01 207.66 1093.01 206.81Q1093.01 206.05 1092.75 205.42Q1092.5 204.8 1092.09 204.4Q1091.68 204.01 1091.26 203.77Q1090.84 203.53 1090.43 203.43Q1090.46 203.42 1090.5 203.4Q1091.28 203.06 1091.88 202.33Q1091.99 202.19 1092.07 202.05Q1092.51 201.35 1092.51 200.39Q1092.51 199.55 1092.18 198.86Q1091.87 198.16 1091.22 197.6Q1091.15 197.54 1091.07 197.48Q1089.81 196.5 1087.79 196.5Q1086.52 196.5 1085.46 196.95Q1084.97 197.15 1084.55 197.46Q1084.06 197.82 1083.68 198.31Q1083.52 198.51 1083.39 198.73Q1082.93 199.5 1082.81 200.47L1085.12 200.47Q1085.23 200.01 1085.49 199.65Q1085.69 199.35 1086.02 199.11Q1086.05 199.09 1086.07 199.06Q1086.75 198.6 1087.75 198.6Q1088.84 198.6 1089.47 199.13Q1089.47 199.14 1089.48 199.14Q1089.73 199.36 1089.88 199.63Q1090.1 200.04 1090.1 200.57Q1090.1 201.03 1089.93 201.4Q1089.76 201.74 1089.44 202.01Q1088.79 202.57 1087.64 202.57L1086.17 202.57L1086.17 204.61L1087.82 204.61Q1089.06 204.61 1089.84 205.15Q1090.15 205.37 1090.34 205.66Q1090.61 206.1 1090.61 206.71Q1090.61 207.23 1090.41 207.65Q1090.22 208.03 1089.86 208.33Q1089.73 208.44 1089.59 208.52Q1088.91 208.96 1087.94 208.96Q1086.76 208.96 1085.97 208.4Q1085.53 208.09 1085.28 207.66Q1085.09 207.33 1085.01 206.94ZM1095.62 198.96Q1095.04 200.01 1095.04 201.39Q1095.04 202.46 1095.43 203.35Q1095.56 203.59 1095.69 203.82Q1096.18 204.61 1096.89 205.12Q1097.13 205.29 1097.39 205.43Q1097.75 205.61 1098.12 205.74Q1098.84 205.97 1099.64 205.97Q1100.62 205.97 1101.47 205.63Q1101.66 205.56 1101.84 205.47Q1102.27 205.26 1102.62 204.96Q1103.09 204.55 1103.43 203.98Q1103.36 206.56 1102.44 207.76Q1102 208.37 1101.38 208.67Q1100.79 208.96 1100.06 208.96Q1099.06 208.96 1098.46 208.49Q1097.99 208.13 1097.76 207.66Q1097.68 207.52 1097.64 207.38L1095.28 207.38Q1095.37 207.93 1095.59 208.43Q1095.99 209.3 1096.81 209.99Q1097.05 210.18 1097.3 210.34Q1098.46 211.06 1100.06 211.06Q1101.27 211.06 1102.28 210.61Q1102.29 210.61 1102.3 210.6Q1102.53 210.5 1102.75 210.38Q1103.49 209.95 1104.09 209.26Q1104.86 208.37 1105.29 206.94Q1105.72 205.5 1105.72 203.65Q1105.72 201.49 1105.07 199.89Q1104.57 198.64 1103.68 197.82Q1103.43 197.59 1103.15 197.39Q1102.99 197.28 1102.82 197.18Q1101.64 196.5 1100.06 196.5Q1098.56 196.5 1097.43 197.13Q1096.9 197.43 1096.44 197.87Q1095.93 198.36 1095.62 198.96ZM1112.56 205.83L1112.56 207.76L1119.49 207.76L1119.49 210.81L1121.81 210.81L1121.81 207.76L1123.79 207.76L1123.79 205.73L1121.81 205.73L1121.81 196.73L1118.9 196.73L1112.56 205.83ZM1097.77 202.65Q1097.43 202.07 1097.43 201.31Q1097.43 200.5 1097.79 199.89Q1097.96 199.6 1098.21 199.35Q1098.5 199.07 1098.84 198.89Q1099.42 198.6 1100.14 198.6Q1100.84 198.6 1101.4 198.87Q1101.78 199.06 1102.09 199.36Q1102.39 199.65 1102.57 200Q1102.88 200.58 1102.88 201.31Q1102.88 202.09 1102.54 202.68Q1102.36 202.99 1102.09 203.24Q1101.78 203.53 1101.42 203.71Q1100.86 203.98 1100.16 203.98Q1099.42 203.98 1098.84 203.68Q1098.5 203.5 1098.22 203.23Q1097.93 202.97 1097.77 202.65ZM1119.49 205.73L1115.01 205.73L1119.49 199.35L1119.49 205.73ZM1108.55 210.87L1107.42 214.02L1109.16 214.02L1110.42 210.7Q1110.61 210.13 1110.61 209.65Q1110.61 209.3 1110.48 209.01Q1110.37 208.78 1110.17 208.59Q1109.98 208.4 1109.75 208.29Q1109.44 208.16 1109.1 208.16Q1108.66 208.16 1108.31 208.35Q1108.17 208.43 1108.03 208.56Q1107.86 208.72 1107.76 208.92Q1107.61 209.21 1107.61 209.57Q1107.61 210 1107.81 210.3Q1107.84 210.35 1107.88 210.4Q1107.98 210.52 1108.1 210.62Q1108.3 210.78 1108.55 210.87Z" fill="#FFFFFF" fill-opacity="1.000000" fill-rule="evenodd"></path><path id="25,1" d="M117.1 245.52Q116.54 246.41 116.42 247.56L118.71 247.56Q118.86 246.86 119.27 246.36Q119.42 246.19 119.59 246.04Q119.65 246 119.71 245.95Q120.36 245.48 121.36 245.48Q122.18 245.48 122.76 245.86Q122.92 245.96 123.06 246.09Q123.34 246.35 123.5 246.68Q123.71 247.1 123.71 247.62Q123.71 248.32 123.44 248.88Q123.36 249.04 123.27 249.18Q122.82 249.86 121.8 250.79L116.47 255.7L116.47 257.68L126.42 257.68L126.42 255.56L119.74 255.56L123.46 252.2Q123.95 251.75 124.29 251.42Q124.62 251.1 125 250.62Q125.39 250.15 125.61 249.72Q125.83 249.29 125.98 248.73Q125.99 248.71 126 248.68Q126.13 248.15 126.13 247.58Q126.13 246.97 125.97 246.4Q125.9 246.17 125.8 245.94Q125.6 245.47 125.3 245.07Q125.1 244.82 124.87 244.6Q124.28 244.03 123.38 243.7Q122.48 243.36 121.42 243.36Q119.63 243.36 118.39 244.19Q118.17 244.34 117.96 244.53Q117.45 244.97 117.1 245.52ZM131.21 253.94L128.83 253.94Q128.92 254.65 129.22 255.26Q129.64 256.12 130.45 256.79Q130.65 256.95 130.87 257.09Q132.16 257.92 133.99 257.92Q135.34 257.92 136.44 257.4Q136.5 257.37 136.57 257.34Q137.07 257.08 137.48 256.72Q138.01 256.26 138.39 255.63Q138.46 255.52 138.51 255.42Q139.07 254.37 139.07 253.02Q139.07 251.95 138.69 251.06Q138.31 250.17 137.67 249.6Q137.42 249.39 137.15 249.21Q136.71 248.92 136.21 248.73Q135.99 248.65 135.77 248.59Q135.15 248.42 134.49 248.42Q133.07 248.42 132.06 249.06Q131.63 249.33 131.27 249.72L131.63 245.72L138.27 245.72L138.27 243.6L129.63 243.6L128.94 251.78L131.31 251.78Q131.7 251.21 132.24 250.87Q132.98 250.42 133.99 250.42Q134.67 250.42 135.23 250.69Q135.59 250.86 135.89 251.15Q136.14 251.38 136.31 251.66Q136.67 252.25 136.67 253.06Q136.67 253.95 136.27 254.6Q136.12 254.85 135.91 255.06Q135.68 255.29 135.4 255.46Q134.78 255.82 133.94 255.82Q132.87 255.82 132.18 255.31Q132.14 255.28 132.11 255.25Q131.47 254.74 131.25 254.08Q131.23 254.01 131.21 253.94ZM145.32 245.98L145.32 248.38L148.68 246.26L148.68 257.68L151.04 257.68L151.04 243.6L148.91 243.6L145.32 245.98ZM142.17 257.74L141.03 260.88L142.77 260.88L144.03 257.56Q144.23 257 144.23 256.52Q144.23 256.17 144.09 255.88Q143.98 255.64 143.79 255.45Q143.59 255.26 143.36 255.16Q143.07 255.02 142.71 255.02Q142.27 255.02 141.94 255.21Q141.78 255.3 141.65 255.42Q141.48 255.59 141.38 255.78Q141.23 256.07 141.23 256.44Q141.23 256.87 141.43 257.17Q141.46 257.22 141.49 257.26Q141.59 257.39 141.71 257.49Q141.91 257.65 142.17 257.74Z" fill="#FFFFFF" fill-opacity="1.000000" fill-rule="evenodd"></path></g></svg> 