<?xml version="1.0" encoding="UTF-8"?> <svg xmlns="http://www.w3.org/2000/svg" xmlns:xlink="http://www.w3.org/1999/xlink" width="150.000000" height="150.000000" viewBox="0 0 150 150" fill="none"><desc> Created with Pixso. </desc><defs><clipPath id="clip365_1116"><rect id="1_circle" width="149.841400" height="149.841400" transform="translate(0.079102 0.078613)" fill="white" fill-opacity="0"></rect></clipPath><clipPath id="clip365_1118"><rect id="Frame 141056" width="150.000000" height="150.000000" fill="white" fill-opacity="0"></rect></clipPath></defs><g clip-path="url(#clip365_1118)"><rect id="Rectangle 1003724" x="0.079102" width="149.841415" height="149.841415" fill="#B1B1B1" fill-opacity="0"></rect><g clip-path="url(#clip365_1116)"><path id="Subtract" d="M92.25 31.45L47.99 31.45L36.32 31.45L11.45 59.45L11.45 81.19L11.45 130.92L92.25 130.92L92.25 31.45Z" fill="#FFFFFF" fill-opacity="1.000000" fill-rule="nonzero"></path><path id="Rectangle 1001480" d="M36.29 59.43L36.29 31.45L11.43 59.43L36.29 59.43Z" fill="#3216B5" fill-opacity="1.000000" fill-rule="nonzero"></path><path id="Vector 2126" d="M74.73 88.2L67.04 95.82L59.38 88.18L59.35 99L48.52 99.01L56.15 106.69L48.5 114.35L59.33 114.39L59.34 125.21L67.02 117.59L74.68 125.23L74.71 114.41L85.54 114.4L77.91 106.72L85.56 99.06L74.74 99.02L74.73 88.2Z" fill="#9173FA" fill-opacity="1.000000" fill-rule="evenodd"></path><path id="Vector 2136" d="M87.01 25.18L88.76 16.57" stroke="#FFFFFF" stroke-opacity="1.000000" stroke-width="2.000000"></path><path id="Vector 2138" d="M101.1 35.91L109.07 32.34" stroke="#FFFFFF" stroke-opacity="1.000000" stroke-width="2.000000"></path><path id="Vector 2137" d="M95.47 29.13L103.71 19.92" stroke="#FFFFFF" stroke-opacity="1.000000" stroke-width="2.000000"></path></g></g></svg> 