<?xml version="1.0" encoding="UTF-8"?> <svg xmlns="http://www.w3.org/2000/svg" xmlns:xlink="http://www.w3.org/1999/xlink" width="266.000000" height="266.000000" viewBox="0 0 266 266" fill="none"><desc> Created with Pixso. </desc><defs><clipPath id="clip223_1114"><rect id="Frame 61" rx="-1.500000" width="263.000000" height="263.000000" transform="translate(1.500000 1.500000)" fill="white" fill-opacity="0"></rect></clipPath></defs><g clip-path="url(#clip223_1114)"><rect id="Rectangle 1002133" x="32.280273" y="49.794434" rx="94.834938" width="189.669922" height="189.669876" fill="#37C8D2" fill-opacity="1.000000"></rect><path id="Vector" d="M82.04 177.62L160.03 99.47L172.17 111.63L94.18 189.79L82.04 177.62ZM82.26 120.11C82.26 131.39 91.38 140.54 102.64 140.54C113.9 140.54 123.03 131.39 123.03 120.11C123.03 108.83 113.9 99.68 102.64 99.68C91.38 99.68 82.26 108.83 82.26 120.11ZM151.79 189.65C140.54 189.65 131.41 180.5 131.41 169.22C131.41 157.94 140.54 148.79 151.79 148.79C163.05 148.79 172.18 157.94 172.18 169.22C172.18 180.5 163.05 189.65 151.79 189.65Z" fill="#FFFFFF" fill-opacity="1.000000" fill-rule="evenodd"></path><path id="Vector 1439" d="M38.24 26.53C38.24 26.69 38.24 43.18 38.24 43.18" stroke="#FFFFFF" stroke-opacity="1.000000" stroke-width="4.000000" stroke-linecap="square"></path><path id="Vector 1440" d="M13.12 53.24C17.86 53.24 22.61 53.24 27.35 53.24" stroke="#FFFFFF" stroke-opacity="1.000000" stroke-width="4.000000" stroke-linecap="square"></path><path id="Vector 1441" d="M47.43 53.24L66.64 53.24" stroke="#FFFFFF" stroke-opacity="1.000000" stroke-width="4.000000" stroke-linecap="square"></path><path id="Vector 1442" d="M38.24 63.18L38.24 83.23" stroke="#FFFFFF" stroke-opacity="1.000000" stroke-width="4.000000" stroke-linecap="square"></path><path id="Vector 1439" d="M204.29 189.79C204.29 189.88 204.29 200.14 204.29 200.14" stroke="#FFFFFF" stroke-opacity="1.000000" stroke-width="4.000000" stroke-linecap="square"></path><path id="Vector 1440" d="M188.68 206.39C191.63 206.39 194.58 206.39 197.53 206.39" stroke="#FFFFFF" stroke-opacity="1.000000" stroke-width="4.000000" stroke-linecap="square"></path><path id="Vector 1441" d="M210 206.39L221.95 206.39" stroke="#FFFFFF" stroke-opacity="1.000000" stroke-width="4.000000" stroke-linecap="square"></path><path id="Vector 1442" d="M204.29 212.57L204.29 225.03" stroke="#FFFFFF" stroke-opacity="1.000000" stroke-width="4.000000" stroke-linecap="square"></path></g><rect id="Frame 61" rx="-1.500000" width="263.000000" height="263.000000" transform="translate(1.500000 1.500000)" stroke="#FFFFFF" stroke-opacity="0" stroke-width="3.000000" stroke-dasharray="16 16"></rect></svg> 