<?xml version="1.0" encoding="UTF-8"?> <svg xmlns="http://www.w3.org/2000/svg" xmlns:xlink="http://www.w3.org/1999/xlink" width="45.000000" height="45.000000" viewBox="0 0 45 45" fill="none"><desc> Created with Pixso. </desc><defs></defs><path id="Union" d="M45 22.5C45 34.92 34.92 45 22.5 45C10.07 45 0 34.92 0 22.5C0 10.07 10.07 0 22.5 0C34.92 0 45 10.07 45 22.5ZM24.51 16.06L9.36 22.3C6.69 23.34 8.25 24.32 8.25 24.32C8.25 24.32 10.53 25.1 12.48 25.68C14.43 26.27 15.47 25.62 15.47 25.62L24.64 19.44C27.89 17.23 27.11 19.05 26.33 19.83C24.64 21.52 21.84 24.19 19.5 26.33C18.46 27.24 18.98 28.02 19.44 28.41C20.76 29.53 23.88 31.57 25.29 32.49C25.69 32.75 25.95 32.92 26.01 32.96C26.33 33.22 28.15 34.39 29.26 34.14C30.36 33.87 30.49 32.38 30.49 32.38L32.12 22.17C32.26 21.21 32.41 20.28 32.54 19.4C32.89 17.13 33.18 15.28 33.22 14.63C33.42 12.42 31.08 13.33 31.08 13.33C31.08 13.33 26.01 15.41 24.51 16.06Z" fill="#FFFFFF" fill-opacity="1.000000" fill-rule="evenodd"></path></svg> 