<?xml version="1.0" encoding="UTF-8"?> <svg xmlns="http://www.w3.org/2000/svg" xmlns:xlink="http://www.w3.org/1999/xlink" width="300.000000" height="309.000000" viewBox="0 0 300 309" fill="none"><desc> Created with Pixso. </desc><defs></defs><path id="Vector 2163" d="" fill="#37C8D2" fill-opacity="1.000000" fill-rule="nonzero"></path><path id="Vector 2163" d="M47.89 250.73L93.3 191.22L138.74 167.55L184.17 178.82L226.73 204.75L273.68 191.22" stroke="#5F37EB" stroke-opacity="1.000000" stroke-width="3.126008"></path><rect id="Frame 141066" width="241.000000" height="12.000000" transform="translate(43.000000 286.000000)" fill="#FFFFFF" fill-opacity="0"></rect><path id="июнь" d="M264.62 290.45L264.62 296L265.57 296L265.57 293.54L266.6 293.54Q266.67 294.4 267.09 295.01Q267.23 295.22 267.41 295.4Q267.69 295.69 268.04 295.86Q268.56 296.12 269.21 296.12Q269.96 296.12 270.52 295.8Q270.84 295.61 271.11 295.31Q271.24 295.16 271.35 295Q271.82 294.27 271.82 293.22Q271.82 292.18 271.35 291.45Q271.24 291.28 271.11 291.14Q270.84 290.84 270.52 290.65Q269.96 290.33 269.21 290.33Q268.56 290.33 268.04 290.59Q267.74 290.74 267.48 290.98Q267.31 291.14 267.17 291.32Q266.74 291.89 266.62 292.69L265.57 292.69L265.57 290.45L264.62 290.45ZM258.28 290.45L258.28 296L259.21 296L262.04 291.91L262.04 296L262.97 296L262.97 290.45L262.04 290.45L259.21 294.54L259.21 290.45L258.28 290.45ZM273.15 290.45L273.15 296L274.09 296L274.09 293.54L276.83 293.54L276.83 296L277.78 296L277.78 290.45L276.83 290.45L276.83 292.69L274.09 292.69L274.09 290.45L273.15 290.45ZM279.42 290.45L279.42 296L281.6 296Q282.26 296 282.73 295.7Q282.88 295.6 283.02 295.46Q283.22 295.26 283.35 295.03Q283.56 294.62 283.56 294.1Q283.56 293.58 283.34 293.18Q283.22 292.95 283.02 292.77Q282.9 292.65 282.76 292.55Q282.28 292.25 281.61 292.25L280.37 292.25L280.37 290.45L279.42 290.45ZM267.99 291.76Q268 291.76 268 291.75Q268.2 291.51 268.45 291.37Q268.78 291.19 269.21 291.19Q269.64 291.19 269.97 291.37Q270.22 291.51 270.41 291.75Q270.41 291.75 270.42 291.75Q270.86 292.31 270.86 293.22Q270.86 294.13 270.42 294.69Q270.41 294.7 270.41 294.7Q270.22 294.94 269.97 295.07Q269.64 295.26 269.21 295.26Q268.78 295.26 268.45 295.08Q268.2 294.94 268 294.7Q268 294.69 267.99 294.69Q267.55 294.13 267.55 293.22Q267.55 292.32 267.99 291.76ZM281.49 295.16L280.37 295.16L280.37 293.08L281.49 293.08Q281.99 293.08 282.28 293.32Q282.3 293.34 282.32 293.36Q282.41 293.45 282.47 293.55Q282.62 293.78 282.62 294.1Q282.62 294.41 282.49 294.64Q282.42 294.76 282.32 294.86Q282.28 294.9 282.23 294.94Q281.95 295.16 281.49 295.16Z" fill="#FFFFFF" fill-opacity="1.000000" fill-rule="evenodd"></path><path id="май" d="M230.93 287.91L230.08 287.91Q230.09 288.47 230.35 288.87Q230.45 289.02 230.58 289.15Q230.71 289.28 230.86 289.37Q231.27 289.63 231.83 289.63Q232.4 289.63 232.81 289.37Q232.96 289.28 233.09 289.15Q233.22 289.02 233.32 288.87Q233.57 288.47 233.58 287.91L232.73 287.91Q232.73 288.23 232.6 288.46Q232.55 288.54 232.5 288.6Q232.43 288.68 232.36 288.73Q232.15 288.88 231.83 288.88Q231.52 288.88 231.31 288.73Q231.23 288.68 231.17 288.6Q231.11 288.54 231.07 288.46Q230.93 288.23 230.93 287.91ZM223.51 293.57Q223.3 293.93 223.3 294.41Q223.3 294.9 223.51 295.26Q223.64 295.48 223.84 295.65Q223.95 295.75 224.08 295.83Q224.55 296.12 225.21 296.12Q225.65 296.12 226.05 295.98Q226.13 295.95 226.21 295.92Q226.52 295.79 226.75 295.58Q226.88 295.47 226.99 295.33L226.99 296L227.88 296L227.88 292.32Q227.88 291.66 227.58 291.2Q227.46 291.01 227.29 290.86Q227.22 290.8 227.14 290.74Q226.58 290.33 225.72 290.33Q224.84 290.33 224.27 290.75Q224.25 290.76 224.23 290.77Q223.88 291.04 223.69 291.4Q223.56 291.63 223.51 291.9L224.42 291.9Q224.47 291.78 224.54 291.67Q224.67 291.49 224.87 291.37Q225.18 291.17 225.7 291.17Q226.19 291.17 226.52 291.4Q226.56 291.43 226.6 291.46Q226.68 291.53 226.74 291.61Q226.95 291.89 226.95 292.32L226.95 292.7L225.48 292.7Q224.46 292.7 223.88 293.15Q223.65 293.34 223.51 293.57ZM215.67 290.45L215.67 296L216.59 296L216.59 291.97L218.44 296L219.23 296L221.07 291.97L221.07 296L221.99 296L221.99 290.45L220.85 290.45L218.83 294.87L216.83 290.45L215.67 290.45ZM229.48 290.45L229.48 296L230.41 296L233.24 291.91L233.24 296L234.17 296L234.17 290.45L233.24 290.45L230.41 294.54L230.41 290.45L229.48 290.45ZM224.38 294.86Q224.25 294.67 224.25 294.4Q224.25 294.16 224.36 293.99Q224.44 293.84 224.6 293.73Q224.95 293.5 225.53 293.5L226.95 293.5L226.95 293.91Q226.95 294.25 226.81 294.51Q226.7 294.74 226.48 294.91Q226.37 295 226.25 295.07Q225.85 295.29 225.33 295.29Q224.86 295.29 224.56 295.07Q224.56 295.06 224.55 295.06Q224.45 294.97 224.38 294.86Z" fill="#FFFFFF" fill-opacity="1.000000" fill-rule="evenodd"></path><path id="апр" d="M174.06 293.57Q173.85 293.93 173.85 294.41Q173.85 294.9 174.06 295.26Q174.19 295.48 174.39 295.65Q174.51 295.75 174.63 295.83Q175.11 296.12 175.76 296.12Q176.21 296.12 176.6 295.98Q176.69 295.95 176.77 295.92Q177.07 295.79 177.31 295.58Q177.44 295.47 177.55 295.33L177.55 296L178.44 296L178.44 292.32Q178.44 291.66 178.13 291.2Q178.01 291.01 177.85 290.86Q177.78 290.8 177.7 290.74Q177.14 290.33 176.27 290.33Q175.39 290.33 174.82 290.75Q174.8 290.76 174.78 290.77Q174.43 291.04 174.24 291.4Q174.12 291.63 174.06 291.9L174.97 291.9Q175.02 291.78 175.1 291.67Q175.22 291.49 175.42 291.37Q175.74 291.17 176.25 291.17Q176.75 291.17 177.08 291.4Q177.12 291.43 177.16 291.46Q177.24 291.53 177.3 291.61Q177.5 291.89 177.5 292.32L177.5 292.7L176.03 292.7Q175.02 292.7 174.43 293.15Q174.2 293.34 174.06 293.57ZM186.28 290.45L186.28 298.1L187.23 298.1L187.23 295.31Q187.44 295.66 187.89 295.89Q188.34 296.12 188.97 296.12Q189.27 296.12 189.56 296.05Q189.73 296.01 189.91 295.94Q190.01 295.9 190.11 295.84Q190.44 295.68 190.71 295.41Q191.07 295.07 191.29 294.5Q191.5 293.93 191.5 293.22Q191.5 292.52 191.29 291.96Q191.08 291.39 190.72 291.04Q190.44 290.77 190.11 290.6Q190.02 290.55 189.93 290.51Q189.71 290.42 189.49 290.38Q189.26 290.33 189.01 290.33Q188.34 290.33 187.88 290.59Q187.41 290.85 187.19 291.24L187.19 290.45L186.28 290.45ZM180.03 290.45L180.03 296L180.98 296L180.98 291.3L183.69 291.3L183.69 296L184.63 296L184.63 290.45L180.03 290.45ZM187.63 294.68Q187.19 294.14 187.19 293.25L187.19 293.2Q187.19 292.31 187.63 291.77Q187.64 291.75 187.66 291.74Q187.84 291.51 188.08 291.38Q188.43 291.19 188.89 291.19Q189.28 291.19 189.59 291.35Q189.87 291.49 190.08 291.75Q190.1 291.77 190.11 291.79Q190.53 292.35 190.53 293.22Q190.53 294.1 190.11 294.65Q190.1 294.67 190.08 294.7Q189.87 294.96 189.59 295.1Q189.28 295.26 188.89 295.26Q188.43 295.26 188.08 295.06Q187.84 294.93 187.66 294.71Q187.64 294.7 187.63 294.68ZM174.93 294.86Q174.81 294.67 174.81 294.4Q174.81 294.16 174.91 293.99Q175 293.84 175.15 293.73Q175.5 293.5 176.09 293.5L177.5 293.5L177.5 293.91Q177.5 294.25 177.37 294.51Q177.25 294.74 177.04 294.91Q176.93 295 176.81 295.07Q176.41 295.29 175.89 295.29Q175.42 295.29 175.12 295.07Q175.11 295.06 175.11 295.06Q175 294.97 174.93 294.86Z" fill="#FFFFFF" fill-opacity="1.000000" fill-rule="evenodd"></path><path id="март" d="M134.21 293.57Q134 293.93 134 294.41Q134 294.9 134.21 295.26Q134.33 295.48 134.54 295.65Q134.65 295.75 134.78 295.83Q135.25 296.12 135.91 296.12Q136.35 296.12 136.75 295.98Q136.83 295.95 136.91 295.92Q137.21 295.79 137.45 295.58Q137.58 295.47 137.69 295.33L137.69 296L138.58 296L138.58 292.32Q138.58 291.66 138.28 291.2Q138.16 291.01 137.99 290.86Q137.92 290.8 137.84 290.74Q137.28 290.33 136.42 290.33Q135.54 290.33 134.96 290.75Q134.95 290.76 134.93 290.77Q134.57 291.04 134.38 291.4Q134.26 291.63 134.21 291.9L135.12 291.9Q135.17 291.78 135.24 291.67Q135.37 291.49 135.56 291.37Q135.88 291.17 136.4 291.17Q136.89 291.17 137.22 291.4Q137.26 291.43 137.3 291.46Q137.38 291.53 137.44 291.61Q137.65 291.89 137.65 292.32L137.65 292.7L136.18 292.7Q135.16 292.7 134.58 293.15Q134.35 293.34 134.21 293.57ZM140.18 290.45L140.18 298.1L141.12 298.1L141.12 295.31Q141.34 295.66 141.79 295.89Q142.24 296.12 142.87 296.12Q143.17 296.12 143.45 296.05Q143.63 296.01 143.8 295.94Q143.91 295.9 144.01 295.84Q144.34 295.68 144.61 295.41Q144.97 295.07 145.18 294.5Q145.4 293.93 145.4 293.22Q145.4 292.52 145.19 291.96Q144.97 291.39 144.62 291.04Q144.34 290.77 144.01 290.6Q143.92 290.55 143.83 290.51Q143.61 290.42 143.39 290.38Q143.15 290.33 142.91 290.33Q142.24 290.33 141.78 290.59Q141.31 290.85 141.09 291.24L141.09 290.45L140.18 290.45ZM126.37 290.45L126.37 296L127.29 296L127.29 291.97L129.14 296L129.93 296L131.77 291.97L131.77 296L132.69 296L132.69 290.45L131.55 290.45L129.53 294.87L127.52 290.45L126.37 290.45ZM145.97 290.45L145.97 291.3L147.83 291.3L147.83 296L148.78 296L148.78 291.3L150.65 291.3L150.65 290.45L145.97 290.45ZM141.53 294.68Q141.09 294.14 141.09 293.25L141.09 293.2Q141.09 292.31 141.53 291.77Q141.54 291.75 141.55 291.74Q141.74 291.51 141.98 291.38Q142.32 291.19 142.78 291.19Q143.18 291.19 143.49 291.35Q143.77 291.49 143.98 291.75Q144 291.77 144.01 291.79Q144.43 292.35 144.43 293.22Q144.43 294.1 144.01 294.65Q144 294.67 143.98 294.7Q143.77 294.96 143.49 295.1Q143.18 295.26 142.78 295.26Q142.32 295.26 141.98 295.06Q141.74 294.93 141.55 294.71Q141.54 294.7 141.53 294.68ZM135.07 294.86Q134.95 294.67 134.95 294.4Q134.95 294.16 135.06 293.99Q135.14 293.84 135.3 293.73Q135.64 293.5 136.23 293.5L137.65 293.5L137.65 293.91Q137.65 294.25 137.51 294.51Q137.39 294.74 137.18 294.91Q137.07 295 136.95 295.07Q136.55 295.29 136.03 295.29Q135.56 295.29 135.26 295.07Q135.26 295.06 135.25 295.06Q135.14 294.97 135.07 294.86Z" fill="#FFFFFF" fill-opacity="1.000000" fill-rule="evenodd"></path><path id="фев" d="M84.54 294.71Q84.71 295.01 84.98 295.27Q85.22 295.51 85.5 295.68Q86.16 296.07 87.04 296.1L87.04 298.1L87.97 298.1L87.97 296.1Q88.85 296.07 89.51 295.67Q89.79 295.5 90.03 295.27Q90.29 295.01 90.47 294.71Q90.83 294.07 90.83 293.22Q90.83 292.5 90.55 291.91Q90.51 291.82 90.46 291.74Q90.26 291.39 89.98 291.12Q89.74 290.89 89.44 290.73Q89.4 290.71 89.36 290.69Q88.74 290.37 87.97 290.34L87.97 288.25L87.04 288.25L87.04 290.34Q86.17 290.37 85.51 290.76Q85.22 290.93 84.98 291.17Q84.71 291.44 84.53 291.75Q84.17 292.38 84.17 293.22Q84.17 294.07 84.54 294.71ZM92.37 295.11Q92.46 295.23 92.56 295.33Q92.79 295.58 93.06 295.75Q93.67 296.12 94.51 296.12Q95.02 296.12 95.45 295.97Q95.87 295.82 96.14 295.58Q96.4 295.35 96.57 295.09Q96.73 294.83 96.79 294.57L95.83 294.57Q95.74 294.82 95.39 295.05Q95.04 295.27 94.52 295.27Q94.02 295.27 93.64 295.06Q93.45 294.94 93.29 294.78Q93.13 294.61 93.02 294.41Q92.81 294.03 92.81 293.53L92.81 293.51L96.85 293.51L96.85 293.03Q96.85 291.9 96.31 291.19Q96.25 291.12 96.2 291.06Q95.98 290.82 95.73 290.66Q95.18 290.33 94.43 290.33Q93.71 290.33 93.15 290.64Q92.82 290.82 92.55 291.11Q92.46 291.21 92.38 291.31Q91.82 292.06 91.82 293.22Q91.82 294.37 92.37 295.11ZM98.17 290.45L98.17 296L100.65 296Q101.48 296 101.97 295.59Q101.99 295.57 102.01 295.55Q102.23 295.35 102.36 295.11Q102.51 294.8 102.51 294.42Q102.51 293.94 102.28 293.6Q102.25 293.57 102.22 293.53Q102.04 293.3 101.8 293.17Q101.68 293.11 101.53 293.07Q101.59 293.05 101.64 293.02Q101.88 292.89 102.05 292.64Q102.26 292.34 102.26 291.88Q102.26 291.52 102.11 291.24Q102 291.02 101.81 290.85Q101.37 290.45 100.52 290.45L98.17 290.45ZM95.89 292.71L92.83 292.71Q92.88 292.15 93.16 291.77Q93.22 291.68 93.31 291.6Q93.42 291.48 93.55 291.4Q93.91 291.18 94.41 291.18Q94.91 291.18 95.26 291.41Q95.37 291.49 95.47 291.58Q95.49 291.61 95.52 291.64Q95.86 292.04 95.89 292.71ZM85.47 292Q85.56 291.87 85.67 291.76Q85.88 291.55 86.14 291.42Q86.54 291.21 87.04 291.2L87.04 295.25Q86.54 295.24 86.14 295.03Q85.88 294.9 85.67 294.69Q85.56 294.58 85.47 294.45Q85.13 293.95 85.13 293.22Q85.13 292.49 85.47 292ZM88.88 295.03Q88.48 295.24 87.97 295.25L87.97 291.2Q88.48 291.21 88.88 291.42Q89.13 291.55 89.33 291.76Q89.44 291.87 89.53 292Q89.88 292.49 89.88 293.22Q89.88 293.96 89.53 294.45Q89.44 294.58 89.33 294.69Q89.13 294.9 88.88 295.03ZM100.43 292.75L99.11 292.75L99.11 291.26L100.43 291.26Q100.87 291.26 101.1 291.45Q101.16 291.5 101.2 291.56Q101.33 291.73 101.33 291.99Q101.33 292.24 101.21 292.42Q101.16 292.49 101.09 292.55Q100.86 292.75 100.43 292.75ZM100.55 295.18L99.11 295.18L99.11 293.55L100.55 293.55Q101.17 293.55 101.41 293.85Q101.56 294.04 101.56 294.35Q101.56 294.64 101.42 294.83Q101.37 294.9 101.3 294.96Q101.05 295.18 100.55 295.18Z" fill="#FFFFFF" fill-opacity="1.000000" fill-rule="evenodd"></path><path id="янв" d="M44.79 294L43.27 296L44.37 296L45.8 294.12L46.79 294.12L46.79 296L47.74 296L47.74 290.45L45.54 290.45Q44.78 290.45 44.29 290.81Q44.19 290.89 44.1 290.97Q43.9 291.18 43.77 291.43Q43.58 291.81 43.58 292.28Q43.58 292.66 43.71 292.99Q43.79 293.17 43.9 293.34Q44.02 293.52 44.18 293.65Q44.44 293.88 44.79 294ZM49.39 290.45L49.39 296L50.33 296L50.33 293.54L53.07 293.54L53.07 296L54.02 296L54.02 290.45L53.07 290.45L53.07 292.69L50.33 292.69L50.33 290.45L49.39 290.45ZM55.67 290.45L55.67 296L58.15 296Q58.98 296 59.47 295.59Q59.49 295.57 59.51 295.55Q59.73 295.35 59.85 295.11Q60 294.8 60 294.42Q60 293.94 59.77 293.6Q59.75 293.57 59.72 293.53Q59.53 293.3 59.3 293.17Q59.17 293.11 59.03 293.07Q59.08 293.05 59.13 293.02Q59.37 292.89 59.54 292.64Q59.75 292.34 59.75 291.88Q59.75 291.52 59.61 291.24Q59.5 291.02 59.31 290.85Q58.86 290.45 58.02 290.45L55.67 290.45ZM57.93 292.75L56.6 292.75L56.6 291.26L57.93 291.26Q58.36 291.26 58.59 291.45Q58.65 291.5 58.69 291.56Q58.82 291.73 58.82 291.99Q58.82 292.24 58.7 292.42Q58.66 292.49 58.59 292.55Q58.36 292.75 57.93 292.75ZM44.65 292.79Q44.53 292.57 44.53 292.28Q44.53 292 44.64 291.78Q44.71 291.66 44.83 291.55Q44.85 291.53 44.88 291.5Q45.18 291.27 45.65 291.27L46.79 291.27L46.79 293.29L45.65 293.29Q45.18 293.29 44.88 293.06Q44.85 293.04 44.83 293.01Q44.72 292.91 44.65 292.79ZM58.04 295.18L56.6 295.18L56.6 293.55L58.04 293.55Q58.66 293.55 58.9 293.85Q59.05 294.04 59.05 294.35Q59.05 294.64 58.91 294.83Q58.86 294.9 58.79 294.96Q58.54 295.18 58.04 295.18Z" fill="#FFFFFF" fill-opacity="1.000000" fill-rule="evenodd"></path><circle id="Oval 11" cx="49.909424" cy="248.604980" r="9.000000" fill="#37C8D2" fill-opacity="1.000000"></circle><circle id="Oval 12" cx="93.975708" cy="191.768066" r="9.000000" fill="#37C8D2" fill-opacity="1.000000"></circle><circle id="Oval 13" cx="140.938232" cy="167.082275" r="9.000000" fill="#37C8D2" fill-opacity="1.000000"></circle><circle id="Oval 14" cx="185.174805" cy="179.533691" r="9.000000" fill="#37C8D2" fill-opacity="1.000000"></circle><circle id="Oval 15" cx="226.357666" cy="204.113525" r="9.000000" fill="#37C8D2" fill-opacity="1.000000"></circle><circle id="Oval 17" cx="270.705811" cy="192.819580" r="9.000000" fill="#37C8D2" fill-opacity="1.000000"></circle><path id="25,1" d="M39.04 224.91Q38.74 225.4 38.67 226.04L39.93 226.04Q40.01 225.65 40.24 225.38Q40.32 225.28 40.41 225.2Q40.45 225.17 40.48 225.15Q40.84 224.89 41.38 224.89Q41.84 224.89 42.16 225.1Q42.24 225.15 42.32 225.22Q42.48 225.37 42.56 225.55Q42.68 225.78 42.68 226.07Q42.68 226.45 42.53 226.76Q42.49 226.85 42.43 226.93Q42.19 227.3 41.63 227.81L38.7 230.51L38.7 231.6L44.17 231.6L44.17 230.43L40.49 230.43L42.54 228.59Q42.81 228.34 43 228.16Q43.18 227.98 43.39 227.72Q43.6 227.46 43.72 227.22Q43.84 226.99 43.93 226.68Q43.93 226.67 43.94 226.65Q44.01 226.36 44.01 226.05Q44.01 225.71 43.92 225.4Q43.88 225.27 43.83 225.14Q43.72 224.89 43.55 224.67Q43.45 224.53 43.32 224.41Q42.99 224.09 42.5 223.91Q42 223.73 41.42 223.73Q40.43 223.73 39.75 224.18Q39.63 224.27 39.52 224.37Q39.23 224.61 39.04 224.91ZM46.8 229.54L45.49 229.54Q45.54 229.93 45.71 230.27Q45.94 230.74 46.39 231.11Q46.5 231.2 46.61 231.27Q47.33 231.73 48.33 231.73Q49.07 231.73 49.68 231.45Q49.71 231.43 49.75 231.41Q50.03 231.27 50.25 231.07Q50.54 230.82 50.75 230.47Q50.79 230.42 50.82 230.36Q51.13 229.78 51.13 229.04Q51.13 228.45 50.92 227.96Q50.71 227.47 50.35 227.16Q50.22 227.04 50.07 226.94Q49.83 226.78 49.55 226.68Q49.43 226.63 49.31 226.6Q48.97 226.51 48.61 226.51Q47.83 226.51 47.27 226.86Q47.03 227.01 46.84 227.22L47.03 225.02L50.69 225.02L50.69 223.86L45.93 223.86L45.56 228.36L46.86 228.36Q47.07 228.04 47.37 227.86Q47.78 227.61 48.33 227.61Q48.71 227.61 49.01 227.76Q49.21 227.85 49.38 228.01Q49.52 228.13 49.61 228.29Q49.81 228.62 49.81 229.06Q49.81 229.55 49.59 229.91Q49.5 230.04 49.39 230.16Q49.26 230.29 49.11 230.38Q48.77 230.58 48.31 230.58Q47.71 230.58 47.34 230.29Q47.32 230.28 47.3 230.27Q46.95 229.98 46.83 229.62Q46.81 229.58 46.8 229.54ZM54.56 225.17L54.56 226.49L56.41 225.32L56.41 231.6L57.71 231.6L57.71 223.86L56.54 223.86L54.56 225.17ZM52.83 231.63L52.21 233.36L53.16 233.36L53.86 231.54Q53.96 231.22 53.96 230.96Q53.96 230.77 53.89 230.61Q53.83 230.48 53.72 230.38Q53.61 230.27 53.49 230.21Q53.33 230.14 53.13 230.14Q52.89 230.14 52.7 230.24Q52.62 230.29 52.55 230.36Q52.45 230.45 52.4 230.56Q52.31 230.72 52.31 230.92Q52.31 231.15 52.42 231.32Q52.44 231.35 52.46 231.37Q52.51 231.44 52.58 231.49Q52.69 231.58 52.83 231.63Z" fill="#FFFFFF" fill-opacity="1.000000" fill-rule="evenodd"></path><path id="35,3" d="M83.57 174.15L82.27 174.15Q82.32 174.67 82.56 175.1Q82.64 175.24 82.74 175.37Q82.89 175.56 83.06 175.71Q83.37 175.98 83.78 176.15Q84.4 176.42 85.18 176.42Q86.19 176.42 86.9 175.96Q87.05 175.86 87.18 175.75Q87.6 175.39 87.79 174.94Q87.96 174.55 87.96 174.08Q87.96 173.66 87.83 173.32Q87.69 172.97 87.46 172.76Q87.23 172.54 87 172.41Q86.77 172.27 86.55 172.22Q86.57 172.21 86.59 172.2Q87.01 172.02 87.34 171.61Q87.4 171.54 87.45 171.46Q87.69 171.08 87.69 170.55Q87.69 170.09 87.52 169.71Q87.34 169.32 86.98 169.01Q86.95 168.98 86.91 168.95Q86.21 168.41 85.1 168.41Q84.4 168.41 83.82 168.65Q83.55 168.77 83.32 168.94Q83.05 169.13 82.84 169.4Q82.75 169.52 82.68 169.64Q82.42 170.06 82.36 170.59L83.63 170.59Q83.69 170.34 83.83 170.14Q83.95 169.97 84.12 169.84Q84.14 169.83 84.16 169.82Q84.53 169.56 85.08 169.56Q85.67 169.56 86.02 169.86Q86.02 169.86 86.02 169.86Q86.16 169.98 86.25 170.13Q86.37 170.36 86.37 170.65Q86.37 170.9 86.27 171.1Q86.18 171.29 86.01 171.44Q85.64 171.75 85.02 171.75L84.21 171.75L84.21 172.87L85.12 172.87Q85.79 172.87 86.22 173.17Q86.39 173.29 86.5 173.45Q86.65 173.69 86.65 174.03Q86.65 174.31 86.54 174.54Q86.43 174.75 86.23 174.92Q86.16 174.97 86.09 175.02Q85.71 175.26 85.18 175.26Q84.53 175.26 84.1 174.95Q83.86 174.78 83.72 174.55Q83.61 174.37 83.57 174.15ZM100.3 174.15L99 174.15Q99.06 174.67 99.3 175.1Q99.38 175.24 99.48 175.37Q99.62 175.56 99.8 175.71Q100.11 175.98 100.51 176.15Q101.14 176.42 101.92 176.42Q102.93 176.42 103.64 175.96Q103.78 175.86 103.92 175.75Q104.34 175.39 104.53 174.94Q104.7 174.55 104.7 174.08Q104.7 173.66 104.56 173.32Q104.42 172.97 104.2 172.76Q103.97 172.54 103.74 172.41Q103.51 172.27 103.28 172.22Q103.3 172.21 103.32 172.2Q103.75 172.02 104.08 171.61Q104.14 171.54 104.19 171.46Q104.43 171.08 104.43 170.55Q104.43 170.09 104.25 169.71Q104.08 169.32 103.72 169.01Q103.68 168.98 103.64 168.95Q102.95 168.41 101.83 168.41Q101.14 168.41 100.55 168.65Q100.28 168.77 100.05 168.94Q99.79 169.13 99.57 169.4Q99.49 169.52 99.41 169.64Q99.16 170.06 99.09 170.59L100.37 170.59Q100.43 170.34 100.57 170.14Q100.68 169.97 100.86 169.84Q100.88 169.83 100.89 169.82Q101.26 169.56 101.81 169.56Q102.41 169.56 102.76 169.86L102.76 169.86Q102.9 169.98 102.98 170.13Q103.11 170.36 103.11 170.65Q103.11 170.9 103.01 171.1Q102.92 171.29 102.74 171.44Q102.38 171.75 101.75 171.75L100.94 171.75L100.94 172.87L101.85 172.87Q102.53 172.87 102.96 173.17Q103.13 173.29 103.23 173.45Q103.39 173.69 103.39 174.03Q103.39 174.31 103.27 174.54Q103.17 174.75 102.97 174.92Q102.9 174.97 102.82 175.02Q102.45 175.26 101.92 175.26Q101.26 175.26 100.83 174.95Q100.59 174.78 100.45 174.55Q100.35 174.37 100.3 174.15ZM90.56 174.22L89.25 174.22Q89.3 174.62 89.46 174.95Q89.69 175.42 90.14 175.79Q90.25 175.88 90.37 175.96Q91.08 176.42 92.09 176.42Q92.83 176.42 93.43 176.13Q93.47 176.11 93.51 176.09Q93.78 175.95 94.01 175.75Q94.3 175.5 94.51 175.15Q94.54 175.1 94.58 175.04Q94.88 174.46 94.88 173.72Q94.88 173.13 94.67 172.64Q94.46 172.15 94.11 171.84Q93.98 171.72 93.83 171.62Q93.58 171.46 93.31 171.36Q93.19 171.31 93.07 171.28Q92.73 171.19 92.36 171.19Q91.58 171.19 91.02 171.54Q90.79 171.69 90.59 171.9L90.79 169.7L94.44 169.7L94.44 168.54L89.69 168.54L89.31 173.04L90.61 173.04Q90.83 172.72 91.13 172.54Q91.53 172.29 92.09 172.29Q92.46 172.29 92.77 172.44Q92.97 172.53 93.13 172.69Q93.27 172.82 93.36 172.97Q93.56 173.3 93.56 173.74Q93.56 174.23 93.34 174.59Q93.26 174.72 93.15 174.84Q93.02 174.97 92.87 175.06Q92.52 175.26 92.06 175.26Q91.47 175.26 91.09 174.98Q91.07 174.96 91.05 174.95Q90.7 174.66 90.58 174.3Q90.57 174.26 90.56 174.22ZM96.59 176.31L95.96 178.04L96.92 178.04L97.61 176.22Q97.72 175.91 97.72 175.64Q97.72 175.45 97.64 175.29Q97.58 175.16 97.48 175.06Q97.37 174.95 97.24 174.89Q97.08 174.82 96.89 174.82Q96.64 174.82 96.46 174.92Q96.37 174.97 96.3 175.04Q96.21 175.13 96.15 175.24Q96.07 175.4 96.07 175.6Q96.07 175.84 96.18 176Q96.19 176.03 96.21 176.05Q96.27 176.12 96.34 176.18Q96.45 176.26 96.59 176.31Z" fill="#FFFFFF" fill-opacity="1.000000" fill-rule="evenodd"></path><path id="42,9" d="M135.94 145.26Q135.63 145.75 135.56 146.38L136.82 146.38Q136.91 146 137.13 145.72Q137.21 145.63 137.31 145.55Q137.34 145.52 137.37 145.5Q137.73 145.24 138.28 145.24Q138.73 145.24 139.05 145.45Q139.14 145.5 139.21 145.57Q139.37 145.72 139.46 145.9Q139.57 146.13 139.57 146.42Q139.57 146.8 139.42 147.11Q139.38 147.2 139.33 147.28Q139.08 147.65 138.52 148.16L135.59 150.86L135.59 151.95L141.06 151.95L141.06 150.78L137.39 150.78L139.43 148.94Q139.71 148.69 139.89 148.51Q140.07 148.33 140.28 148.07Q140.5 147.81 140.62 147.57Q140.74 147.33 140.82 147.03Q140.82 147.01 140.83 147Q140.9 146.71 140.9 146.39Q140.9 146.06 140.81 145.74Q140.77 145.62 140.72 145.49Q140.61 145.23 140.44 145.02Q140.34 144.88 140.21 144.75Q139.88 144.44 139.39 144.26Q138.89 144.07 138.31 144.07Q137.33 144.07 136.65 144.53Q136.52 144.61 136.41 144.71Q136.13 144.96 135.94 145.26ZM145.7 145.43Q145.38 146.01 145.38 146.77Q145.38 147.36 145.61 147.85Q145.67 147.98 145.75 148.1Q146.02 148.54 146.4 148.82Q146.53 148.91 146.68 148.99Q146.87 149.09 147.08 149.16Q147.48 149.28 147.91 149.28Q148.46 149.28 148.92 149.1Q149.03 149.06 149.13 149.01Q149.36 148.89 149.56 148.73Q149.82 148.5 150 148.19Q149.96 149.61 149.46 150.27Q149.21 150.6 148.88 150.77Q148.55 150.93 148.14 150.93Q147.6 150.93 147.27 150.67Q147.01 150.48 146.88 150.21Q146.84 150.14 146.82 150.06L145.52 150.06Q145.57 150.36 145.69 150.64Q145.91 151.12 146.36 151.49Q146.49 151.6 146.63 151.69Q147.27 152.08 148.14 152.08Q148.81 152.08 149.37 151.84Q149.37 151.84 149.38 151.83Q149.5 151.78 149.62 151.71Q150.03 151.47 150.36 151.09Q150.79 150.61 151.02 149.82Q151.26 149.03 151.26 148.01Q151.26 146.82 150.91 145.94Q150.63 145.25 150.14 144.8Q150 144.67 149.85 144.57Q149.76 144.5 149.67 144.45Q149.02 144.07 148.14 144.07Q147.32 144.07 146.7 144.42Q146.41 144.59 146.16 144.83Q145.88 145.1 145.7 145.43ZM128.22 149.21L128.22 150.27L132.03 150.27L132.03 151.95L133.31 151.95L133.31 150.27L134.39 150.27L134.39 149.16L133.31 149.16L133.31 144.2L131.71 144.2L128.22 149.21ZM146.88 147.46Q146.7 147.14 146.7 146.72Q146.7 146.28 146.9 145.94Q146.99 145.78 147.13 145.64Q147.29 145.49 147.48 145.39Q147.79 145.23 148.19 145.23Q148.58 145.23 148.88 145.38Q149.09 145.48 149.26 145.65Q149.43 145.81 149.53 146Q149.7 146.32 149.7 146.72Q149.7 147.15 149.51 147.48Q149.41 147.64 149.26 147.78Q149.09 147.94 148.89 148.04Q148.59 148.19 148.2 148.19Q147.8 148.19 147.48 148.02Q147.29 147.93 147.13 147.78Q146.98 147.64 146.88 147.46ZM132.03 149.16L129.57 149.16L132.03 145.64L132.03 149.16ZM142.99 151.98L142.37 153.71L143.32 153.71L144.01 151.88Q144.12 151.57 144.12 151.31Q144.12 151.12 144.05 150.96Q143.99 150.83 143.88 150.72Q143.77 150.62 143.64 150.56Q143.48 150.49 143.29 150.49Q143.05 150.49 142.86 150.59Q142.78 150.64 142.7 150.71Q142.61 150.8 142.55 150.91Q142.47 151.07 142.47 151.27Q142.47 151.5 142.58 151.67Q142.6 151.7 142.62 151.72Q142.67 151.79 142.74 151.84Q142.85 151.93 142.99 151.98Z" fill="#FFFFFF" fill-opacity="1.000000" fill-rule="evenodd"></path><path id="42,6" d="M180.61 157.28Q180.31 157.77 180.24 158.41L181.5 158.41Q181.58 158.02 181.81 157.75Q181.89 157.65 181.99 157.57Q182.02 157.55 182.05 157.52Q182.41 157.26 182.96 157.26Q183.41 157.26 183.73 157.47Q183.81 157.53 183.89 157.6Q184.05 157.74 184.14 157.92Q184.25 158.15 184.25 158.44Q184.25 158.82 184.1 159.13Q184.06 159.22 184.01 159.3Q183.76 159.67 183.2 160.19L180.27 162.88L180.27 163.97L185.74 163.97L185.74 162.81L182.06 162.81L184.11 160.96Q184.39 160.71 184.57 160.53Q184.75 160.35 184.96 160.09Q185.17 159.83 185.3 159.6Q185.42 159.36 185.5 159.05Q185.5 159.04 185.51 159.02Q185.58 158.73 185.58 158.42Q185.58 158.08 185.49 157.77Q185.45 157.64 185.4 157.52Q185.29 157.26 185.12 157.04Q185.02 156.9 184.89 156.78Q184.56 156.46 184.07 156.28Q183.57 156.1 182.99 156.1Q182 156.1 181.33 156.55Q181.2 156.64 181.09 156.74Q180.81 156.98 180.61 157.28ZM190.11 158.36Q189.87 159.15 189.87 160.16Q189.87 161.98 190.68 163.04Q190.97 163.42 191.35 163.67Q192.03 164.11 192.99 164.11Q193.78 164.11 194.39 163.77Q194.7 163.61 194.96 163.35Q195.24 163.07 195.42 162.74Q195.74 162.16 195.74 161.41Q195.74 160.82 195.52 160.33Q195.45 160.2 195.38 160.07Q195.11 159.64 194.72 159.36Q194.59 159.27 194.45 159.19Q194.25 159.09 194.04 159.02Q193.65 158.89 193.21 158.89Q192.7 158.89 192.25 159.06Q192.12 159.11 192 159.17Q191.77 159.29 191.57 159.46Q191.32 159.68 191.14 159.99Q191.18 158.57 191.67 157.91Q191.91 157.59 192.23 157.42Q192.57 157.25 192.99 157.25Q193.53 157.25 193.87 157.51Q194.15 157.72 194.27 158Q194.29 158.06 194.31 158.12L195.61 158.12Q195.57 157.82 195.45 157.56Q195.24 157.07 194.78 156.69Q194.66 156.59 194.52 156.5Q193.88 156.1 192.99 156.1Q192.31 156.1 191.75 156.35Q191.63 156.4 191.51 156.47Q191.1 156.7 190.77 157.08Q190.34 157.57 190.11 158.36ZM172.9 161.23L172.9 162.29L176.71 162.29L176.71 163.97L177.99 163.97L177.99 162.29L179.07 162.29L179.07 161.18L177.99 161.18L177.99 156.23L176.39 156.23L172.9 161.23ZM176.71 161.18L174.24 161.18L176.71 157.67L176.71 161.18ZM191.63 160.69Q191.73 160.53 191.87 160.39Q192.03 160.25 192.21 160.15Q192.53 159.99 192.94 159.99Q193.34 159.99 193.65 160.15Q193.84 160.25 194 160.4Q194.14 160.54 194.24 160.71Q194.42 161.03 194.42 161.45Q194.42 161.9 194.23 162.24Q194.14 162.4 194 162.53Q193.84 162.7 193.64 162.8Q193.33 162.95 192.95 162.95Q192.55 162.95 192.23 162.79Q192.04 162.69 191.87 162.53Q191.72 162.38 191.62 162.2Q191.44 161.87 191.44 161.45Q191.44 161.02 191.63 160.69ZM187.67 164L187.04 165.73L188 165.73L188.69 163.91Q188.8 163.6 188.8 163.33Q188.8 163.14 188.73 162.98Q188.67 162.85 188.56 162.75Q188.45 162.64 188.32 162.58Q188.16 162.51 187.97 162.51Q187.72 162.51 187.54 162.62Q187.45 162.66 187.38 162.73Q187.29 162.82 187.23 162.93Q187.15 163.09 187.15 163.29Q187.15 163.53 187.26 163.69Q187.28 163.72 187.3 163.74Q187.35 163.81 187.42 163.87Q187.53 163.95 187.67 164Z" fill="#FFFFFF" fill-opacity="1.000000" fill-rule="evenodd"></path><path id="38,3" d="M216.22 186.42L214.92 186.42Q214.98 186.94 215.22 187.37Q215.3 187.51 215.4 187.64Q215.54 187.83 215.72 187.98Q216.03 188.25 216.43 188.42Q217.06 188.69 217.84 188.69Q218.85 188.69 219.56 188.23Q219.7 188.13 219.84 188.02Q220.26 187.66 220.45 187.21Q220.62 186.82 220.62 186.35Q220.62 185.93 220.48 185.59Q220.34 185.24 220.12 185.03Q219.89 184.81 219.66 184.68Q219.43 184.55 219.2 184.49Q219.22 184.48 219.24 184.47Q219.67 184.29 220 183.88Q220.06 183.81 220.11 183.73Q220.35 183.35 220.35 182.82Q220.35 182.36 220.17 181.98Q220 181.59 219.64 181.28Q219.6 181.25 219.56 181.22Q218.87 180.68 217.75 180.68Q217.05 180.68 216.47 180.92Q216.2 181.04 215.97 181.21Q215.71 181.4 215.49 181.67Q215.41 181.79 215.33 181.91Q215.08 182.33 215.01 182.86L216.29 182.86Q216.35 182.61 216.49 182.41Q216.6 182.24 216.78 182.11Q216.8 182.1 216.81 182.09Q217.18 181.83 217.73 181.83Q218.33 181.83 218.68 182.13Q218.68 182.13 218.68 182.13Q218.82 182.25 218.9 182.4Q219.03 182.63 219.03 182.92Q219.03 183.17 218.93 183.37Q218.84 183.56 218.66 183.71Q218.3 184.02 217.67 184.02L216.86 184.02L216.86 185.14L217.77 185.14Q218.45 185.14 218.88 185.44Q219.05 185.56 219.15 185.72Q219.31 185.96 219.31 186.3Q219.31 186.58 219.19 186.81Q219.09 187.02 218.89 187.19Q218.82 187.24 218.74 187.29Q218.37 187.53 217.84 187.53Q217.18 187.53 216.75 187.23Q216.51 187.05 216.37 186.82Q216.27 186.64 216.22 186.42ZM221.93 185.68Q221.8 186.02 221.8 186.42Q221.8 186.88 221.97 187.27Q222.17 187.71 222.61 188.05Q222.63 188.07 222.65 188.09Q223.45 188.69 224.7 188.69Q225.92 188.69 226.71 188.1Q226.74 188.08 226.78 188.05Q227.21 187.71 227.41 187.27Q227.58 186.89 227.58 186.42Q227.58 186.02 227.45 185.68Q227.31 185.34 227.1 185.11Q226.88 184.88 226.64 184.74Q226.41 184.59 226.16 184.52Q226.38 184.43 226.58 184.29Q226.77 184.15 226.95 183.95Q227.14 183.74 227.24 183.45Q227.35 183.15 227.35 182.8Q227.35 182.41 227.22 182.08Q227.04 181.64 226.62 181.29Q226.58 181.25 226.53 181.22Q225.82 180.68 224.7 180.68Q223.53 180.68 222.81 181.25Q222.78 181.27 222.76 181.28Q222.35 181.63 222.17 182.06Q222.03 182.4 222.03 182.8Q222.03 183.15 222.14 183.45Q222.24 183.74 222.43 183.95Q222.61 184.15 222.81 184.29Q223 184.43 223.23 184.52Q222.98 184.59 222.75 184.74Q222.51 184.88 222.29 185.11Q222.07 185.34 221.93 185.68ZM233.11 186.42L231.81 186.42Q231.87 186.94 232.1 187.37Q232.19 187.51 232.29 187.64Q232.43 187.83 232.6 187.98Q232.91 188.25 233.32 188.42Q233.95 188.69 234.73 188.69Q235.73 188.69 236.45 188.23Q236.59 188.13 236.72 188.02Q237.14 187.66 237.34 187.21Q237.51 186.82 237.51 186.35Q237.51 185.93 237.37 185.59Q237.23 185.24 237 185.03Q236.78 184.81 236.55 184.68Q236.32 184.55 236.09 184.49Q236.11 184.48 236.13 184.47Q236.56 184.29 236.89 183.88Q236.95 183.81 237 183.73Q237.23 183.35 237.23 182.82Q237.23 182.36 237.06 181.98Q236.88 181.59 236.53 181.28Q236.49 181.25 236.45 181.22Q235.76 180.68 234.64 180.68Q233.94 180.68 233.36 180.92Q233.09 181.04 232.86 181.21Q232.59 181.4 232.38 181.67Q232.29 181.79 232.22 181.91Q231.97 182.33 231.9 182.86L233.17 182.86Q233.23 182.61 233.37 182.41Q233.49 182.24 233.66 182.11Q233.68 182.1 233.7 182.09Q234.07 181.83 234.62 181.83Q235.22 181.83 235.56 182.13L235.57 182.13Q235.71 182.25 235.79 182.4Q235.91 182.63 235.91 182.92Q235.91 183.17 235.81 183.37Q235.72 183.56 235.55 183.71Q235.19 184.02 234.56 184.02L233.75 184.02L233.75 185.14L234.66 185.14Q235.34 185.14 235.77 185.44Q235.94 185.56 236.04 185.72Q236.19 185.96 236.19 186.3Q236.19 186.58 236.08 186.81Q235.98 187.02 235.78 187.19Q235.71 187.24 235.63 187.29Q235.25 187.53 234.73 187.53Q234.07 187.53 233.64 187.23Q233.4 187.05 233.26 186.82Q233.15 186.64 233.11 186.42ZM223.4 183.34Q223.32 183.15 223.32 182.93Q223.32 182.63 223.45 182.4Q223.54 182.23 223.7 182.11Q223.7 182.1 223.7 182.1Q224.08 181.8 224.7 181.8Q225.28 181.8 225.64 182.08Q225.66 182.09 225.68 182.11Q225.83 182.23 225.92 182.39Q226.05 182.62 226.05 182.93Q226.05 183.15 225.97 183.34Q225.87 183.56 225.66 183.73Q225.57 183.81 225.47 183.87Q225.13 184.05 224.7 184.05Q224.22 184.05 223.87 183.84Q223.79 183.79 223.72 183.73Q223.5 183.56 223.4 183.34ZM223.23 186.82Q223.12 186.6 223.12 186.33Q223.12 186.04 223.24 185.81Q223.35 185.59 223.56 185.42Q223.58 185.41 223.6 185.39Q224.03 185.08 224.7 185.08Q225.32 185.08 225.73 185.37Q225.77 185.39 225.81 185.42Q226.03 185.6 226.14 185.82Q226.25 186.05 226.25 186.33Q226.25 186.6 226.14 186.82Q226.04 187.05 225.82 187.22Q225.82 187.22 225.81 187.23Q225.39 187.56 224.7 187.56Q223.99 187.56 223.56 187.22Q223.34 187.04 223.23 186.82ZM229.39 188.58L228.77 190.31L229.73 190.31L230.42 188.49Q230.53 188.18 230.53 187.91Q230.53 187.72 230.45 187.56Q230.39 187.43 230.28 187.33Q230.18 187.22 230.05 187.16Q229.89 187.09 229.69 187.09Q229.45 187.09 229.26 187.19Q229.18 187.24 229.11 187.31Q229.01 187.4 228.96 187.51Q228.88 187.67 228.88 187.87Q228.88 188.11 228.98 188.27Q229 188.3 229.02 188.32Q229.08 188.39 229.14 188.45Q229.25 188.53 229.39 188.58Z" fill="#FFFFFF" fill-opacity="1.000000" fill-rule="evenodd"></path><path id="39,4" d="M261.86 172.4L260.56 172.4Q260.62 172.92 260.86 173.34Q260.94 173.49 261.04 173.62Q261.19 173.8 261.36 173.96Q261.67 174.23 262.07 174.4Q262.7 174.66 263.48 174.66Q264.49 174.66 265.2 174.2Q265.35 174.11 265.48 174Q265.9 173.64 266.09 173.19Q266.26 172.8 266.26 172.33Q266.26 171.91 266.12 171.56Q265.98 171.22 265.76 171Q265.53 170.79 265.3 170.65Q265.07 170.52 264.85 170.47Q264.87 170.46 264.89 170.45Q265.31 170.27 265.64 169.86Q265.7 169.79 265.75 169.71Q265.99 169.33 265.99 168.8Q265.99 168.34 265.82 167.95Q265.64 167.57 265.28 167.26Q265.24 167.23 265.2 167.2Q264.51 166.66 263.4 166.66Q262.7 166.66 262.11 166.9Q261.84 167.02 261.61 167.19Q261.35 167.38 261.14 167.65Q261.05 167.76 260.98 167.88Q260.72 168.31 260.66 168.84L261.93 168.84Q261.99 168.59 262.13 168.39Q262.25 168.22 262.42 168.09Q262.44 168.08 262.45 168.07Q262.82 167.81 263.37 167.81Q263.97 167.81 264.32 168.11Q264.32 168.11 264.32 168.11Q264.46 168.23 264.54 168.38Q264.67 168.6 264.67 168.89Q264.67 169.15 264.57 169.35Q264.48 169.54 264.31 169.69Q263.94 170 263.31 170L262.5 170L262.5 171.12L263.42 171.12Q264.09 171.12 264.52 171.41Q264.69 171.53 264.8 171.7Q264.95 171.94 264.95 172.27Q264.95 172.56 264.83 172.79Q264.73 173 264.53 173.16Q264.46 173.22 264.39 173.27Q264.01 173.51 263.48 173.51Q262.83 173.51 262.4 173.2Q262.15 173.03 262.02 172.8Q261.91 172.61 261.86 172.4ZM267.7 168.01Q267.38 168.59 267.38 169.35Q267.38 169.94 267.6 170.43Q267.67 170.56 267.74 170.68Q268.01 171.12 268.4 171.4Q268.53 171.49 268.68 171.57Q268.87 171.67 269.08 171.74Q269.47 171.87 269.91 171.87Q270.45 171.87 270.92 171.68Q271.02 171.64 271.12 171.59Q271.36 171.47 271.55 171.31Q271.81 171.08 271.99 170.77Q271.96 172.19 271.46 172.85Q271.21 173.18 270.87 173.35Q270.55 173.51 270.14 173.51Q269.59 173.51 269.26 173.25Q269.01 173.06 268.88 172.8Q268.84 172.72 268.81 172.64L267.51 172.64Q267.56 172.95 267.69 173.22Q267.91 173.7 268.36 174.08Q268.49 174.18 268.63 174.27Q269.26 174.66 270.14 174.66Q270.81 174.66 271.37 174.42Q271.37 174.42 271.37 174.41Q271.5 174.36 271.62 174.29Q272.03 174.05 272.36 173.68Q272.78 173.19 273.02 172.4Q273.26 171.61 273.26 170.59Q273.26 169.4 272.9 168.52Q272.63 167.83 272.14 167.38Q272 167.26 271.84 167.15Q271.76 167.09 271.67 167.03Q271.01 166.66 270.14 166.66Q269.32 166.66 268.7 167.01Q268.41 167.17 268.16 167.41Q267.88 167.68 267.7 168.01ZM277.02 171.79L277.02 172.85L280.83 172.85L280.83 174.53L282.11 174.53L282.11 172.85L283.19 172.85L283.19 171.74L282.11 171.74L282.11 166.78L280.51 166.78L277.02 171.79ZM268.88 170.04Q268.7 169.72 268.7 169.3Q268.7 168.86 268.89 168.52Q268.99 168.36 269.13 168.23Q269.29 168.07 269.47 167.97Q269.79 167.81 270.19 167.81Q270.57 167.81 270.88 167.96Q271.09 168.06 271.26 168.23Q271.43 168.39 271.53 168.58Q271.69 168.9 271.69 169.3Q271.69 169.73 271.51 170.06Q271.41 170.22 271.26 170.36Q271.09 170.52 270.89 170.62Q270.58 170.77 270.2 170.77Q269.79 170.77 269.47 170.6Q269.29 170.51 269.13 170.36Q268.98 170.22 268.88 170.04ZM280.83 171.74L278.36 171.74L280.83 168.22L280.83 171.74ZM274.81 174.56L274.19 176.29L275.15 176.29L275.84 174.46Q275.95 174.15 275.95 173.89Q275.95 173.7 275.87 173.54Q275.81 173.41 275.71 173.3Q275.6 173.2 275.47 173.14Q275.31 173.07 275.12 173.07Q274.87 173.07 274.69 173.17Q274.6 173.22 274.53 173.29Q274.44 173.38 274.38 173.49Q274.3 173.65 274.3 173.85Q274.3 174.08 274.41 174.25Q274.42 174.28 274.44 174.3Q274.5 174.37 274.57 174.42Q274.67 174.51 274.81 174.56Z" fill="#FFFFFF" fill-opacity="1.000000" fill-rule="evenodd"></path><path id="Rectangle 1005213" d="M34 110.93L281 110.93" stroke="#FFFFFF" stroke-opacity="1.000000" stroke-width="1.000000"></path><path id="диапазон негативных оценок" d="M137.29 122.97Q137.07 123.35 137.07 123.86Q137.07 124.37 137.29 124.75Q137.42 124.97 137.62 125.14Q137.75 125.25 137.89 125.34Q138.37 125.62 139.01 125.62Q139.55 125.62 140 125.42Q140.29 125.29 140.51 125.09Q140.64 124.98 140.75 124.85L140.75 125.49L141.92 125.49L141.92 121.79Q141.92 121.09 141.59 120.61Q141.47 120.43 141.3 120.28Q141.26 120.25 141.23 120.22Q140.62 119.74 139.63 119.74Q138.65 119.74 138.04 120.22Q138.03 120.22 138.03 120.22Q137.66 120.51 137.47 120.89Q137.34 121.14 137.29 121.42L138.47 121.42Q138.51 121.33 138.56 121.24Q138.67 121.08 138.85 120.95Q139.13 120.77 139.59 120.77Q140.02 120.77 140.31 120.98Q140.35 121.01 140.38 121.03Q140.46 121.1 140.52 121.18Q140.69 121.41 140.69 121.77L140.69 122.09L139.32 122.09Q138.27 122.09 137.67 122.56Q137.43 122.74 137.29 122.97ZM149.68 122.97Q149.46 123.35 149.46 123.86Q149.46 124.37 149.68 124.75Q149.81 124.97 150.01 125.14Q150.14 125.25 150.28 125.34Q150.76 125.62 151.4 125.62Q151.94 125.62 152.39 125.42Q152.68 125.29 152.9 125.09Q153.03 124.98 153.14 124.85L153.14 125.49L154.31 125.49L154.31 121.79Q154.31 121.09 153.98 120.61Q153.86 120.43 153.69 120.28Q153.65 120.25 153.62 120.22Q153.01 119.74 152.02 119.74Q151.04 119.74 150.43 120.22Q150.43 120.22 150.42 120.22Q150.06 120.51 149.86 120.89Q149.73 121.14 149.68 121.42L150.86 121.42Q150.9 121.33 150.95 121.24Q151.06 121.08 151.24 120.95Q151.52 120.77 151.98 120.77Q152.41 120.77 152.7 120.98Q152.74 121.01 152.77 121.03Q152.85 121.1 152.91 121.18Q153.08 121.41 153.08 121.77L153.08 122.09L151.71 122.09Q150.66 122.09 150.06 122.56Q149.83 122.74 149.68 122.97ZM156.64 123.84L155.42 123.84Q155.48 124.32 155.73 124.68Q155.9 124.95 156.18 125.15Q156.18 125.15 156.19 125.16Q156.84 125.62 157.82 125.62Q158.84 125.62 159.48 125.14Q159.82 124.88 159.98 124.54Q160.12 124.24 160.12 123.87Q160.12 123.57 160.03 123.33Q159.92 123.09 159.77 122.94Q159.61 122.79 159.44 122.7Q159.27 122.61 159.09 122.57Q159.27 122.49 159.42 122.38Q159.56 122.27 159.67 122.13Q159.9 121.83 159.9 121.35Q159.9 121.01 159.77 120.73Q159.63 120.42 159.32 120.19Q159.29 120.17 159.26 120.15Q158.69 119.74 157.84 119.74Q156.97 119.74 156.35 120.13Q156.3 120.16 156.26 120.19Q155.96 120.4 155.78 120.68Q155.57 121.01 155.52 121.45L156.71 121.45Q156.74 121.33 156.8 121.24Q156.89 121.08 157.06 120.96Q157.34 120.77 157.77 120.77Q158.18 120.77 158.43 120.95Q158.54 121.03 158.6 121.14Q158.67 121.27 158.67 121.45Q158.67 121.66 158.58 121.81Q158.52 121.89 158.44 121.96Q158.2 122.14 157.76 122.14L157 122.14L157 123.13L157.83 123.13Q158.56 123.13 158.78 123.47Q158.87 123.61 158.87 123.81Q158.87 124.02 158.78 124.17Q158.72 124.29 158.59 124.38Q158.3 124.58 157.82 124.58Q157.35 124.58 157.04 124.39Q156.89 124.3 156.79 124.17Q156.69 124.02 156.64 123.84ZM161.48 124.42Q161.61 124.62 161.78 124.8Q162.04 125.08 162.36 125.27Q162.97 125.62 163.78 125.62Q164.59 125.62 165.19 125.27Q165.51 125.08 165.78 124.8Q165.94 124.62 166.08 124.42Q166.54 123.7 166.54 122.68Q166.54 121.67 166.08 120.95Q165.94 120.74 165.78 120.56Q165.51 120.28 165.19 120.1Q164.59 119.74 163.78 119.74Q162.97 119.74 162.36 120.1Q162.04 120.28 161.78 120.56Q161.61 120.74 161.48 120.95Q161.02 121.67 161.02 122.68Q161.02 123.7 161.48 124.42ZM183.24 120.76Q182.68 121.52 182.68 122.69Q182.68 123.84 183.23 124.58Q183.32 124.71 183.44 124.83Q183.65 125.05 183.9 125.21Q184.55 125.62 185.45 125.62Q186 125.62 186.45 125.46Q186.89 125.31 187.17 125.06Q187.45 124.8 187.62 124.53Q187.79 124.25 187.84 123.97L186.61 123.97Q186.54 124.19 186.23 124.38Q185.93 124.57 185.47 124.57Q185.03 124.57 184.7 124.38Q184.53 124.29 184.39 124.14Q184.23 123.98 184.13 123.78Q183.97 123.46 183.97 123.06L183.97 123.04L187.91 123.04L187.91 122.53Q187.91 121.42 187.39 120.7Q187.31 120.6 187.22 120.5Q187 120.26 186.73 120.09Q186.16 119.74 185.37 119.74Q184.59 119.74 184 120.08Q183.69 120.26 183.42 120.54Q183.33 120.65 183.24 120.76ZM193.85 122.97Q193.63 123.35 193.63 123.86Q193.63 124.37 193.86 124.75Q193.98 124.97 194.18 125.14Q194.31 125.25 194.45 125.34Q194.93 125.62 195.57 125.62Q196.12 125.62 196.56 125.42Q196.85 125.29 197.08 125.09Q197.21 124.98 197.31 124.85L197.31 125.49L198.48 125.49L198.48 121.79Q198.48 121.09 198.15 120.61Q198.03 120.43 197.86 120.28Q197.82 120.25 197.79 120.22Q197.18 119.74 196.19 119.74Q195.21 119.74 194.6 120.22L194.6 120.22Q194.23 120.51 194.03 120.89Q193.9 121.14 193.85 121.42L195.04 121.42Q195.07 121.33 195.12 121.24Q195.23 121.08 195.42 120.95Q195.69 120.77 196.15 120.77Q196.59 120.77 196.88 120.98Q196.91 121.01 196.94 121.03Q197.02 121.1 197.08 121.18Q197.25 121.41 197.25 121.77L197.25 122.09L195.89 122.09Q194.83 122.09 194.23 122.56Q194 122.74 193.85 122.97ZM240.35 124.42Q240.48 124.62 240.65 124.8Q240.92 125.08 241.23 125.27Q241.84 125.62 242.65 125.62Q243.46 125.62 244.07 125.27Q244.39 125.08 244.65 124.8Q244.82 124.62 244.95 124.42Q245.41 123.7 245.41 122.68Q245.41 121.67 244.95 120.95Q244.82 120.74 244.65 120.56Q244.39 120.28 244.07 120.1Q243.46 119.74 242.65 119.74Q241.84 119.74 241.23 120.1Q240.92 120.28 240.65 120.56Q240.48 120.74 240.35 120.95Q239.89 121.67 239.89 122.68Q239.89 123.7 240.35 124.42ZM253.57 120.76Q253.01 121.52 253.01 122.69Q253.01 123.84 253.55 124.58Q253.65 124.71 253.76 124.83Q253.98 125.05 254.23 125.21Q254.87 125.62 255.78 125.62Q256.33 125.62 256.77 125.46Q257.22 125.31 257.5 125.06Q257.78 124.8 257.95 124.53Q258.11 124.25 258.17 123.97L256.94 123.97Q256.87 124.19 256.56 124.38Q256.26 124.57 255.8 124.57Q255.36 124.57 255.02 124.38Q254.86 124.29 254.71 124.14Q254.56 123.98 254.46 123.78Q254.3 123.46 254.3 123.06L254.3 123.04L258.24 123.04L258.24 122.53Q258.24 121.42 257.72 120.7Q257.64 120.6 257.55 120.5Q257.33 120.26 257.06 120.09Q256.49 119.74 255.7 119.74Q254.92 119.74 254.33 120.08Q254.01 120.26 253.75 120.54Q253.66 120.65 253.57 120.76ZM266.01 124.42Q266.15 124.62 266.32 124.8Q266.58 125.08 266.9 125.27Q267.5 125.62 268.31 125.62Q269.13 125.62 269.73 125.27Q270.05 125.08 270.31 124.8Q270.48 124.62 270.61 124.42Q271.07 123.7 271.07 122.68Q271.07 121.67 270.61 120.95Q270.48 120.74 270.31 120.56Q270.05 120.28 269.73 120.1Q269.13 119.74 268.31 119.74Q267.5 119.74 266.9 120.1Q266.58 120.28 266.32 120.56Q266.15 120.74 266.01 120.95Q265.55 121.67 265.55 122.68Q265.55 123.7 266.01 124.42ZM123.91 124.38L123.46 124.38L123.46 126.89L124.66 126.89L124.66 125.49L128.62 125.49L128.62 126.89L129.84 126.89L129.84 124.38L129.02 124.38L129.02 119.88L124.74 119.88L124.53 122.64Q124.4 124.11 123.91 124.38ZM130.89 119.88L130.89 125.49L132.11 125.49L134.65 121.76L134.65 125.49L135.88 125.49L135.88 119.88L134.67 119.88L132.13 123.62L132.13 119.88L130.89 119.88ZM143.39 119.88L143.39 125.49L144.64 125.49L144.64 120.97L147.02 120.97L147.02 125.49L148.28 125.49L148.28 119.88L143.39 119.88ZM167.73 119.88L167.73 125.49L168.99 125.49L168.99 123.14L171.39 123.14L171.39 125.49L172.65 125.49L172.65 119.88L171.39 119.88L171.39 122.03L168.99 122.03L168.99 119.88L167.73 119.88ZM176.56 119.88L176.56 125.49L177.82 125.49L177.82 123.14L180.22 123.14L180.22 125.49L181.48 125.49L181.48 119.88L180.22 119.88L180.22 122.03L177.82 122.03L177.82 119.88L176.56 119.88ZM189.11 119.88L189.11 125.49L190.36 125.49L190.36 120.97L192.96 120.97L192.96 119.88L189.11 119.88ZM199.41 119.88L199.41 120.97L201.21 120.97L201.21 125.49L202.46 125.49L202.46 120.97L204.26 120.97L204.26 119.88L199.41 119.88ZM205.33 119.88L205.33 125.49L206.54 125.49L209.08 121.76L209.08 125.49L210.31 125.49L210.31 119.88L209.1 119.88L206.56 123.62L206.56 119.88L205.33 119.88ZM211.83 119.88L211.83 125.49L214.46 125.49Q215.39 125.49 215.91 125.04Q216.14 124.83 216.27 124.58Q216.42 124.27 216.42 123.89Q216.42 123.42 216.21 123.1Q216.18 123.05 216.13 123Q215.97 122.8 215.76 122.67Q215.6 122.58 215.41 122.53Q215.54 122.48 215.65 122.4Q215.84 122.28 215.97 122.09Q215.98 122.08 215.99 122.07Q216.19 121.77 216.19 121.33Q216.19 120.97 216.05 120.69Q215.93 120.46 215.72 120.28Q215.25 119.88 214.35 119.88L211.83 119.88ZM217.62 119.88L217.62 125.49L218.88 125.49L218.88 123.14L221.29 123.14L221.29 125.49L222.54 125.49L222.54 119.88L221.29 119.88L221.29 122.03L218.88 122.03L218.88 119.88L217.62 119.88ZM224.06 119.88L224.06 125.49L226.43 125.49Q227.12 125.49 227.61 125.17Q227.77 125.07 227.92 124.93Q228.13 124.71 228.27 124.46Q228.48 124.04 228.48 123.51Q228.48 122.97 228.26 122.56Q228.13 122.32 227.92 122.12Q227.81 122.02 227.69 121.93Q227.18 121.58 226.43 121.58L225.3 121.58L225.3 119.88L224.06 119.88ZM229.2 119.88L229.2 125.49L230.44 125.49L230.44 119.88L229.2 119.88ZM233.34 122.68L231.39 125.49L232.79 125.49L234.09 123.55L235.41 125.49L236.86 125.49L234.9 122.71L236.84 119.88L235.45 119.88L234.17 121.84L232.85 119.88L231.42 119.88L233.34 122.68ZM246.6 119.88L246.6 125.49L251.07 125.49L251.07 126.89L252.27 126.89L252.27 124.38L251.47 124.38L251.47 119.88L250.21 119.88L250.21 124.38L247.86 124.38L247.86 119.88L246.6 119.88ZM259.44 119.88L259.44 125.49L260.69 125.49L260.69 123.14L263.1 123.14L263.1 125.49L264.36 125.49L264.36 119.88L263.1 119.88L263.1 122.03L260.69 122.03L260.69 119.88L259.44 119.88ZM272.27 119.88L272.27 125.49L273.52 125.49L273.52 122.87L275.68 125.49L277.2 125.49L274.74 122.5L277.17 119.88L275.68 119.88L273.52 122.21L273.52 119.88L272.27 119.88ZM186.66 122.1L183.98 122.1Q184.03 121.61 184.28 121.29Q184.34 121.21 184.41 121.15Q184.51 121.05 184.62 120.98Q184.93 120.79 185.36 120.79Q185.83 120.79 186.14 121.01Q186.22 121.07 186.29 121.14Q186.32 121.17 186.35 121.2Q186.63 121.54 186.66 122.1ZM256.99 122.1L254.31 122.1Q254.35 121.61 254.61 121.29Q254.67 121.21 254.74 121.15Q254.84 121.05 254.95 120.98Q255.26 120.79 255.69 120.79Q256.16 120.79 256.47 121.01Q256.55 121.07 256.62 121.14Q256.65 121.17 256.68 121.2Q256.96 121.54 256.99 122.1ZM214.2 122.14L213.06 122.14L213.06 120.84L214.2 120.84Q214.65 120.84 214.83 121.07Q214.96 121.22 214.96 121.48Q214.96 121.7 214.87 121.85Q214.82 121.91 214.76 121.96Q214.56 122.14 214.2 122.14ZM162.29 122.68Q162.29 121.86 162.69 121.36Q162.85 121.15 163.07 121.03Q163.37 120.86 163.78 120.86Q164.17 120.86 164.47 121.02Q164.69 121.15 164.86 121.36Q165.26 121.86 165.26 122.68Q165.26 123.5 164.86 124.01Q164.69 124.22 164.47 124.34Q164.17 124.51 163.78 124.51Q163.37 124.51 163.07 124.33Q162.85 124.21 162.69 124.01Q162.29 123.5 162.29 122.68ZM241.16 122.68Q241.16 121.86 241.56 121.36Q241.73 121.15 241.94 121.03Q242.25 120.86 242.65 120.86Q243.05 120.86 243.35 121.02Q243.57 121.15 243.73 121.36Q244.13 121.86 244.13 122.68Q244.13 123.5 243.73 124.01Q243.57 124.22 243.35 124.34Q243.05 124.51 242.65 124.51Q242.25 124.51 241.94 124.33Q241.73 124.21 241.56 124.01Q241.16 123.5 241.16 122.68ZM266.83 122.68Q266.83 121.86 267.23 121.36Q267.39 121.15 267.6 121.03Q267.91 120.86 268.31 120.86Q268.71 120.86 269.01 121.02Q269.23 121.15 269.4 121.36Q269.8 121.86 269.8 122.68Q269.8 123.5 269.4 124.01Q269.23 124.22 269.01 124.34Q268.71 124.51 268.31 124.51Q267.91 124.51 267.6 124.33Q267.39 124.21 267.23 124.01Q266.83 123.5 266.83 122.68ZM127.77 124.38L125.25 124.38Q125.48 124.13 125.58 123.72Q125.67 123.31 125.72 122.68L125.85 120.97L127.77 120.97L127.77 124.38ZM226.27 124.44L225.3 124.44L225.3 122.64L226.27 122.64Q226.69 122.64 226.94 122.85Q226.96 122.86 226.98 122.88Q227.06 122.96 227.12 123.05Q227.24 123.25 227.24 123.51Q227.24 123.78 227.12 123.98Q227.07 124.09 226.98 124.18Q226.93 124.22 226.88 124.26Q226.64 124.44 226.27 124.44ZM138.41 123.47Q138.49 123.33 138.62 123.24Q138.92 123.03 139.41 123.03L140.69 123.03L140.69 123.37Q140.69 123.68 140.56 123.91Q140.46 124.11 140.28 124.26Q140.16 124.36 140.02 124.43Q139.7 124.59 139.29 124.59Q138.86 124.59 138.59 124.39Q138.5 124.31 138.43 124.21Q138.33 124.05 138.33 123.81Q138.33 123.62 138.41 123.47ZM150.8 123.47Q150.88 123.33 151.02 123.24Q151.31 123.03 151.8 123.03L153.08 123.03L153.08 123.37Q153.08 123.68 152.95 123.91Q152.85 124.11 152.67 124.26Q152.55 124.36 152.41 124.43Q152.09 124.59 151.68 124.59Q151.25 124.59 150.99 124.39Q150.89 124.31 150.82 124.21Q150.72 124.05 150.72 123.81Q150.72 123.62 150.8 123.47ZM194.98 123.47Q195.05 123.33 195.19 123.24Q195.48 123.03 195.97 123.03L197.25 123.03L197.25 123.37Q197.25 123.68 197.13 123.91Q197.03 124.11 196.84 124.26Q196.72 124.36 196.58 124.43Q196.26 124.59 195.85 124.59Q195.42 124.59 195.16 124.39Q195.06 124.31 195 124.21Q194.89 124.05 194.89 123.81Q194.89 123.62 194.98 123.47ZM214.3 124.52L213.06 124.52L213.06 123.09L214.3 123.09Q214.73 123.09 214.95 123.27Q215.01 123.32 215.06 123.39Q215.17 123.55 215.17 123.79Q215.17 124.04 215.06 124.21Q215.01 124.27 214.95 124.33Q214.73 124.52 214.3 124.52Z" fill="#FFFFFF" fill-opacity="1.000000" fill-rule="evenodd"></path><path id="диапазон позитивных оценок" d="M131.54 22.24Q131.32 22.61 131.32 23.12Q131.32 23.63 131.54 24.02Q131.67 24.23 131.87 24.4Q132 24.51 132.14 24.6Q132.62 24.88 133.26 24.88Q133.8 24.88 134.25 24.68Q134.54 24.55 134.76 24.35Q134.89 24.24 135 24.11L135 24.75L136.17 24.75L136.17 21.05Q136.17 20.35 135.84 19.87Q135.72 19.69 135.55 19.55Q135.51 19.52 135.48 19.49Q134.87 19.01 133.88 19.01Q132.9 19.01 132.29 19.48Q132.29 19.48 132.28 19.48Q131.91 19.77 131.72 20.15Q131.59 20.4 131.54 20.69L132.72 20.69Q132.76 20.59 132.81 20.51Q132.92 20.34 133.1 20.22Q133.38 20.04 133.84 20.04Q134.27 20.04 134.56 20.24Q134.6 20.27 134.63 20.29Q134.71 20.36 134.77 20.44Q134.94 20.68 134.94 21.03L134.94 21.35L133.57 21.35Q132.52 21.35 131.92 21.82Q131.69 22 131.54 22.24ZM143.93 22.24Q143.71 22.61 143.71 23.12Q143.71 23.63 143.93 24.02Q144.06 24.23 144.26 24.4Q144.39 24.51 144.53 24.6Q145.01 24.88 145.65 24.88Q146.2 24.88 146.64 24.68Q146.93 24.55 147.16 24.35Q147.28 24.24 147.39 24.11L147.39 24.75L148.56 24.75L148.56 21.05Q148.56 20.35 148.23 19.87Q148.11 19.69 147.94 19.55Q147.9 19.52 147.87 19.49Q147.26 19.01 146.27 19.01Q145.29 19.01 144.68 19.48Q144.68 19.48 144.67 19.48Q144.31 19.77 144.11 20.15Q143.98 20.4 143.93 20.69L145.12 20.69Q145.15 20.59 145.2 20.51Q145.31 20.34 145.49 20.22Q145.77 20.04 146.23 20.04Q146.66 20.04 146.96 20.24Q146.99 20.27 147.02 20.29Q147.1 20.36 147.16 20.44Q147.33 20.68 147.33 21.03L147.33 21.35L145.96 21.35Q144.91 21.35 144.31 21.82Q144.08 22 143.93 22.24ZM150.89 23.1L149.67 23.1Q149.73 23.58 149.98 23.95Q150.15 24.21 150.43 24.41Q150.43 24.41 150.44 24.42Q151.09 24.88 152.07 24.88Q153.09 24.88 153.73 24.4Q154.07 24.14 154.23 23.8Q154.38 23.5 154.38 23.13Q154.38 22.84 154.28 22.59Q154.18 22.35 154.02 22.2Q153.86 22.05 153.69 21.96Q153.52 21.87 153.34 21.83Q153.52 21.76 153.67 21.64Q153.81 21.53 153.92 21.39Q154.16 21.09 154.16 20.61Q154.16 20.27 154.02 19.99Q153.88 19.68 153.57 19.45Q153.54 19.43 153.51 19.41Q152.94 19.01 152.09 19.01Q151.22 19.01 150.6 19.39Q150.55 19.42 150.51 19.45Q150.21 19.66 150.03 19.94Q149.82 20.27 149.77 20.71L150.96 20.71Q150.99 20.6 151.05 20.5Q151.14 20.34 151.31 20.22Q151.59 20.04 152.02 20.04Q152.43 20.04 152.68 20.21Q152.79 20.29 152.85 20.4Q152.92 20.53 152.92 20.71Q152.92 20.92 152.83 21.07Q152.77 21.16 152.69 21.22Q152.45 21.4 152.01 21.4L151.25 21.4L151.25 22.39L152.08 22.39Q152.81 22.39 153.03 22.73Q153.12 22.87 153.12 23.08Q153.12 23.28 153.04 23.43Q152.97 23.55 152.84 23.64Q152.55 23.84 152.07 23.84Q151.6 23.84 151.29 23.65Q151.14 23.56 151.05 23.43Q150.94 23.29 150.89 23.1ZM155.73 23.68Q155.86 23.88 156.03 24.07Q156.29 24.35 156.61 24.53Q157.22 24.88 158.03 24.88Q158.84 24.88 159.45 24.53Q159.76 24.35 160.03 24.07Q160.2 23.88 160.33 23.68Q160.79 22.96 160.79 21.94Q160.79 20.93 160.33 20.21Q160.2 20 160.03 19.82Q159.76 19.54 159.45 19.36Q158.84 19.01 158.03 19.01Q157.22 19.01 156.61 19.36Q156.29 19.54 156.03 19.82Q155.86 20 155.73 20.21Q155.27 20.93 155.27 21.94Q155.27 22.96 155.73 23.68ZM177.35 23.68Q177.48 23.88 177.65 24.07Q177.92 24.35 178.23 24.53Q178.84 24.88 179.65 24.88Q180.46 24.88 181.07 24.53Q181.39 24.35 181.65 24.07Q181.82 23.88 181.95 23.68Q182.41 22.96 182.41 21.94Q182.41 20.93 181.95 20.21Q181.82 20 181.65 19.82Q181.39 19.54 181.07 19.36Q180.46 19.01 179.65 19.01Q178.84 19.01 178.23 19.36Q177.92 19.54 177.65 19.82Q177.48 20 177.35 20.21Q176.89 20.93 176.89 21.94Q176.89 22.96 177.35 23.68ZM184.41 23.1L183.19 23.1Q183.25 23.58 183.5 23.95Q183.68 24.21 183.95 24.41Q183.96 24.41 183.96 24.42Q184.61 24.88 185.59 24.88Q186.61 24.88 187.25 24.4Q187.6 24.14 187.75 23.8Q187.9 23.5 187.9 23.13Q187.9 22.84 187.8 22.59Q187.7 22.35 187.54 22.2Q187.38 22.05 187.21 21.96Q187.04 21.87 186.87 21.83Q187.04 21.76 187.19 21.64Q187.33 21.53 187.45 21.39Q187.68 21.09 187.68 20.61Q187.68 20.27 187.54 19.99Q187.4 19.68 187.09 19.45Q187.06 19.43 187.03 19.41Q186.46 19.01 185.61 19.01Q184.74 19.01 184.12 19.39Q184.07 19.42 184.03 19.45Q183.73 19.66 183.55 19.94Q183.34 20.27 183.29 20.71L184.49 20.71Q184.51 20.6 184.57 20.5Q184.66 20.34 184.83 20.22Q185.11 20.04 185.54 20.04Q185.95 20.04 186.2 20.21Q186.31 20.29 186.37 20.4Q186.45 20.53 186.45 20.71Q186.45 20.92 186.35 21.07Q186.29 21.16 186.21 21.22Q185.97 21.4 185.53 21.4L184.78 21.4L184.78 22.39L185.6 22.39Q186.33 22.39 186.55 22.73Q186.64 22.87 186.64 23.08Q186.64 23.28 186.56 23.43Q186.49 23.55 186.36 23.64Q186.08 23.84 185.59 23.84Q185.12 23.84 184.81 23.65Q184.66 23.56 184.57 23.43Q184.46 23.29 184.41 23.1ZM236.1 23.68Q236.23 23.88 236.4 24.07Q236.66 24.35 236.98 24.53Q237.59 24.88 238.4 24.88Q239.21 24.88 239.82 24.53Q240.14 24.35 240.4 24.07Q240.57 23.88 240.7 23.68Q241.16 22.96 241.16 21.94Q241.16 20.93 240.7 20.21Q240.57 20 240.4 19.82Q240.14 19.54 239.82 19.36Q239.21 19.01 238.4 19.01Q237.59 19.01 236.98 19.36Q236.66 19.54 236.4 19.82Q236.23 20 236.1 20.21Q235.64 20.93 235.64 21.94Q235.64 22.96 236.1 23.68ZM249.32 20.02Q248.76 20.78 248.76 21.95Q248.76 23.1 249.3 23.84Q249.4 23.97 249.51 24.09Q249.73 24.31 249.98 24.47Q250.62 24.88 251.53 24.88Q252.08 24.88 252.52 24.73Q252.97 24.57 253.25 24.32Q253.53 24.07 253.7 23.79Q253.86 23.51 253.92 23.23L252.69 23.23Q252.62 23.45 252.31 23.64Q252.01 23.83 251.55 23.83Q251.11 23.83 250.77 23.64Q250.61 23.55 250.46 23.4Q250.31 23.24 250.21 23.04Q250.05 22.72 250.05 22.32L250.05 22.3L253.99 22.3L253.99 21.79Q253.99 20.68 253.46 19.96Q253.39 19.86 253.3 19.76Q253.08 19.52 252.81 19.35Q252.24 19.01 251.45 19.01Q250.67 19.01 250.08 19.34Q249.76 19.52 249.5 19.8Q249.4 19.91 249.32 20.02ZM261.76 23.68Q261.9 23.88 262.07 24.07Q262.33 24.35 262.65 24.53Q263.25 24.88 264.06 24.88Q264.87 24.88 265.48 24.53Q265.8 24.35 266.06 24.07Q266.23 23.88 266.36 23.68Q266.82 22.96 266.82 21.94Q266.82 20.93 266.36 20.21Q266.23 20 266.06 19.82Q265.8 19.54 265.48 19.36Q264.87 19.01 264.06 19.01Q263.25 19.01 262.65 19.36Q262.33 19.54 262.07 19.82Q261.9 20 261.76 20.21Q261.3 20.93 261.3 21.94Q261.3 22.96 261.76 23.68ZM118.16 23.65L117.71 23.65L117.71 26.15L118.92 26.15L118.92 24.75L122.87 24.75L122.87 26.15L124.09 26.15L124.09 23.65L123.27 23.65L123.27 19.14L118.99 19.14L118.78 21.9Q118.65 23.37 118.16 23.65ZM125.15 19.14L125.15 24.75L126.36 24.75L128.9 21.02L128.9 24.75L130.13 24.75L130.13 19.14L128.92 19.14L126.38 22.88L126.38 19.14L125.15 19.14ZM137.64 19.14L137.64 24.75L138.89 24.75L138.89 20.24L141.27 20.24L141.27 24.75L142.53 24.75L142.53 19.14L137.64 19.14ZM161.98 19.14L161.98 24.75L163.24 24.75L163.24 22.41L165.64 22.41L165.64 24.75L166.9 24.75L166.9 19.14L165.64 19.14L165.64 21.29L163.24 21.29L163.24 19.14L161.98 19.14ZM170.81 19.14L170.81 24.75L172.07 24.75L172.07 20.24L174.44 20.24L174.44 24.75L175.7 24.75L175.7 19.14L170.81 19.14ZM189.1 19.14L189.1 24.75L190.32 24.75L192.86 21.02L192.86 24.75L194.09 24.75L194.09 19.14L192.88 19.14L190.34 22.88L190.34 19.14L189.1 19.14ZM195.16 19.14L195.16 20.24L196.96 20.24L196.96 24.75L198.21 24.75L198.21 20.24L200.01 20.24L200.01 19.14L195.16 19.14ZM201.08 19.14L201.08 24.75L202.29 24.75L204.83 21.02L204.83 24.75L206.06 24.75L206.06 19.14L204.85 19.14L202.31 22.88L202.31 19.14L201.08 19.14ZM207.58 19.14L207.58 24.75L210.21 24.75Q211.14 24.75 211.66 24.3Q211.89 24.1 212.02 23.84Q212.17 23.53 212.17 23.15Q212.17 22.69 211.96 22.36Q211.92 22.31 211.88 22.26Q211.72 22.06 211.51 21.94Q211.35 21.84 211.16 21.79Q211.29 21.74 211.4 21.67Q211.59 21.54 211.72 21.35Q211.73 21.34 211.74 21.33Q211.94 21.03 211.94 20.59Q211.94 20.23 211.8 19.95Q211.68 19.72 211.47 19.54Q211 19.14 210.1 19.14L207.58 19.14ZM213.37 19.14L213.37 24.75L214.63 24.75L214.63 22.41L217.03 22.41L217.03 24.75L218.29 24.75L218.29 19.14L217.03 19.14L217.03 21.29L214.63 21.29L214.63 19.14L213.37 19.14ZM219.81 19.14L219.81 24.75L222.17 24.75Q222.87 24.75 223.36 24.43Q223.52 24.33 223.67 24.19Q223.88 23.98 224.02 23.72Q224.23 23.3 224.23 22.78Q224.23 22.24 224.01 21.82Q223.88 21.58 223.67 21.38Q223.56 21.28 223.44 21.19Q222.93 20.84 222.17 20.84L221.05 20.84L221.05 19.14L219.81 19.14ZM224.95 19.14L224.95 24.75L226.19 24.75L226.19 19.14L224.95 19.14ZM229.09 21.94L227.14 24.75L228.54 24.75L229.84 22.81L231.16 24.75L232.61 24.75L230.65 21.98L232.59 19.14L231.2 19.14L229.91 21.11L228.6 19.14L227.16 19.14L229.09 21.94ZM242.35 19.14L242.35 24.75L246.82 24.75L246.82 26.15L248.02 26.15L248.02 23.65L247.22 23.65L247.22 19.14L245.96 19.14L245.96 23.65L243.61 23.65L243.61 19.14L242.35 19.14ZM255.19 19.14L255.19 24.75L256.44 24.75L256.44 22.41L258.85 22.41L258.85 24.75L260.1 24.75L260.1 19.14L258.85 19.14L258.85 21.29L256.44 21.29L256.44 19.14L255.19 19.14ZM268.02 19.14L268.02 24.75L269.27 24.75L269.27 22.13L271.43 24.75L272.95 24.75L270.49 21.77L272.92 19.14L271.43 19.14L269.27 21.47L269.27 19.14L268.02 19.14ZM252.74 21.36L250.06 21.36Q250.1 20.88 250.36 20.55Q250.41 20.48 250.49 20.41Q250.59 20.31 250.7 20.24Q251.01 20.05 251.44 20.05Q251.91 20.05 252.22 20.27Q252.3 20.33 252.37 20.4Q252.4 20.43 252.43 20.46Q252.71 20.8 252.74 21.36ZM209.94 21.4L208.81 21.4L208.81 20.11L209.94 20.11Q210.4 20.11 210.58 20.33Q210.71 20.48 210.71 20.75Q210.71 20.96 210.62 21.11Q210.57 21.17 210.51 21.23Q210.31 21.4 209.94 21.4ZM156.54 21.94Q156.54 21.12 156.94 20.62Q157.1 20.41 157.32 20.29Q157.62 20.12 158.03 20.12Q158.42 20.12 158.72 20.29Q158.94 20.41 159.11 20.62Q159.51 21.12 159.51 21.94Q159.51 22.77 159.11 23.27Q158.94 23.48 158.72 23.6Q158.42 23.77 158.03 23.77Q157.62 23.77 157.32 23.59Q157.1 23.47 156.94 23.27Q156.54 22.77 156.54 21.94ZM178.16 21.94Q178.16 21.12 178.56 20.62Q178.73 20.41 178.94 20.29Q179.25 20.12 179.65 20.12Q180.05 20.12 180.35 20.29Q180.57 20.41 180.73 20.62Q181.13 21.12 181.13 21.94Q181.13 22.77 180.73 23.27Q180.57 23.48 180.35 23.6Q180.05 23.77 179.65 23.77Q179.25 23.77 178.94 23.59Q178.73 23.47 178.56 23.27Q178.16 22.77 178.16 21.94ZM236.91 21.94Q236.91 21.12 237.31 20.62Q237.48 20.41 237.69 20.29Q238 20.12 238.4 20.12Q238.8 20.12 239.1 20.29Q239.31 20.41 239.48 20.62Q239.88 21.12 239.88 21.94Q239.88 22.77 239.48 23.27Q239.31 23.48 239.1 23.6Q238.8 23.77 238.4 23.77Q238 23.77 237.69 23.59Q237.48 23.47 237.31 23.27Q236.91 22.77 236.91 21.94ZM262.58 21.94Q262.58 21.12 262.98 20.62Q263.14 20.41 263.35 20.29Q263.66 20.12 264.06 20.12Q264.46 20.12 264.76 20.29Q264.98 20.41 265.15 20.62Q265.55 21.12 265.55 21.94Q265.55 22.77 265.15 23.27Q264.98 23.48 264.76 23.6Q264.46 23.77 264.06 23.77Q263.66 23.77 263.35 23.59Q263.14 23.47 262.98 23.27Q262.58 22.77 262.58 21.94ZM122.02 23.65L119.5 23.65Q119.73 23.39 119.83 22.98Q119.93 22.57 119.97 21.94L120.1 20.24L122.02 20.24L122.02 23.65ZM222.02 23.7L221.05 23.7L221.05 21.9L222.02 21.9Q222.44 21.9 222.69 22.11Q222.71 22.13 222.73 22.14Q222.81 22.22 222.87 22.32Q222.99 22.51 222.99 22.78Q222.99 23.04 222.87 23.25Q222.82 23.35 222.73 23.44Q222.68 23.48 222.63 23.52Q222.39 23.7 222.02 23.7ZM132.66 22.73Q132.74 22.6 132.87 22.5Q133.17 22.29 133.66 22.29L134.94 22.29L134.94 22.64Q134.94 22.94 134.81 23.17Q134.71 23.37 134.53 23.52Q134.41 23.62 134.27 23.69Q133.95 23.86 133.54 23.86Q133.11 23.86 132.85 23.65Q132.75 23.58 132.68 23.48Q132.58 23.31 132.58 23.08Q132.58 22.88 132.66 22.73ZM145.05 22.73Q145.13 22.6 145.27 22.5Q145.56 22.29 146.05 22.29L147.33 22.29L147.33 22.64Q147.33 22.94 147.21 23.17Q147.1 23.37 146.92 23.52Q146.8 23.62 146.66 23.69Q146.34 23.86 145.93 23.86Q145.5 23.86 145.24 23.65Q145.14 23.58 145.08 23.48Q144.97 23.31 144.97 23.08Q144.97 22.88 145.05 22.73ZM210.05 23.78L208.81 23.78L208.81 22.35L210.05 22.35Q210.48 22.35 210.7 22.53Q210.76 22.59 210.81 22.65Q210.92 22.81 210.92 23.06Q210.92 23.3 210.81 23.47Q210.76 23.54 210.7 23.59Q210.48 23.78 210.05 23.78Z" fill="#FFFFFF" fill-opacity="1.000000" fill-rule="evenodd"></path><path id="100" d="M10.56 20.87Q10.56 22.04 10.9 22.94Q11.21 23.75 11.79 24.25Q11.85 24.31 11.91 24.35Q12.13 24.53 12.38 24.64Q12.88 24.87 13.49 24.87Q14.09 24.87 14.59 24.64Q14.84 24.53 15.06 24.35Q15.13 24.3 15.19 24.25Q15.76 23.75 16.07 22.94Q16.41 22.04 16.41 20.87Q16.41 19.71 16.07 18.81Q15.76 18 15.19 17.5Q15.13 17.45 15.06 17.4Q14.84 17.23 14.6 17.12Q14.1 16.88 13.49 16.88Q12.88 16.88 12.38 17.12Q12.13 17.23 11.91 17.4Q11.85 17.45 11.79 17.49Q11.21 17.99 10.9 18.81Q10.56 19.71 10.56 20.87ZM17.73 20.87Q17.73 22.04 18.07 22.94Q18.38 23.75 18.96 24.25Q19.02 24.31 19.08 24.35Q19.3 24.53 19.55 24.64Q20.05 24.87 20.66 24.87Q21.26 24.87 21.76 24.64Q22.01 24.53 22.23 24.35Q22.3 24.3 22.36 24.25Q22.94 23.75 23.24 22.94Q23.58 22.04 23.58 20.87Q23.58 19.71 23.24 18.81Q22.93 18 22.36 17.5Q22.3 17.45 22.23 17.4Q22.01 17.23 21.77 17.12Q21.27 16.88 20.66 16.88Q20.05 16.88 19.55 17.12Q19.3 17.23 19.08 17.4Q19.02 17.45 18.96 17.49Q18.38 17.99 18.07 18.81Q17.73 19.71 17.73 20.87ZM5.6 18.34L5.6 19.37L7.55 18.15L7.55 24.75L8.52 24.75L8.52 17L7.65 17L5.6 18.34ZM11.56 20.87Q11.56 19.99 11.77 19.3Q11.98 18.61 12.43 18.2Q12.63 18.01 12.88 17.9Q13.16 17.79 13.49 17.79Q13.82 17.79 14.1 17.91Q14.34 18.01 14.54 18.2Q14.99 18.61 15.2 19.3Q15.41 19.99 15.41 20.87Q15.41 21.76 15.2 22.45Q14.99 23.14 14.54 23.55Q14.34 23.74 14.1 23.85Q13.82 23.97 13.49 23.97Q13.16 23.97 12.88 23.85Q12.63 23.75 12.43 23.55Q11.98 23.14 11.77 22.45Q11.56 21.76 11.56 20.87ZM18.73 20.87Q18.73 19.99 18.94 19.3Q19.15 18.61 19.6 18.2Q19.8 18.01 20.05 17.9Q20.33 17.79 20.66 17.79Q20.99 17.79 21.27 17.91Q21.51 18.01 21.72 18.2Q22.16 18.61 22.37 19.3Q22.58 19.99 22.58 20.87Q22.58 21.76 22.37 22.45Q22.16 23.14 21.72 23.55Q21.51 23.74 21.27 23.85Q20.99 23.97 20.66 23.97Q20.33 23.97 20.05 23.85Q19.8 23.75 19.6 23.55Q19.15 23.14 18.94 22.45Q18.73 21.76 18.73 20.87Z" fill="#FFFFFF" fill-opacity="1.000000" fill-rule="evenodd"></path><path id="50" d="M12.5 111.06Q12.5 112.22 12.84 113.12Q13.15 113.93 13.74 114.44Q13.79 114.49 13.85 114.53Q14.08 114.71 14.33 114.82Q14.83 115.05 15.43 115.05Q16.04 115.05 16.53 114.82Q16.78 114.71 17.01 114.53Q17.07 114.48 17.13 114.43Q17.71 113.93 18.01 113.12Q18.35 112.22 18.35 111.06Q18.35 109.89 18.01 108.99Q17.71 108.18 17.13 107.68Q17.07 107.63 17.01 107.58Q16.79 107.41 16.54 107.3Q16.04 107.06 15.43 107.06Q14.82 107.06 14.32 107.3Q14.07 107.41 13.85 107.58Q13.8 107.63 13.74 107.68Q13.16 108.18 12.84 108.99Q12.5 109.89 12.5 111.06ZM6.77 112.95L5.76 112.95Q5.81 113.27 5.94 113.56Q6.16 114.06 6.63 114.44Q6.74 114.54 6.87 114.62Q7.54 115.05 8.5 115.05Q9.16 115.05 9.71 114.81Q9.79 114.77 9.87 114.73Q10.14 114.59 10.36 114.39Q10.65 114.14 10.85 113.8Q10.89 113.72 10.93 113.65Q11.21 113.09 11.21 112.4Q11.21 111.76 10.96 111.25Q10.91 111.14 10.84 111.04Q10.56 110.58 10.15 110.3Q10.04 110.22 9.91 110.15Q9.7 110.04 9.48 109.98Q9.1 109.86 8.68 109.86Q7.87 109.86 7.29 110.22Q7.03 110.38 6.82 110.6L7.04 108.09L10.78 108.09L10.78 107.18L6.2 107.18L5.83 111.61L6.82 111.61Q7.13 111.19 7.54 110.97Q7.97 110.75 8.52 110.75Q8.94 110.75 9.29 110.91Q9.52 111.02 9.72 111.2Q9.88 111.35 9.98 111.53Q10.21 111.9 10.21 112.41Q10.21 112.99 9.95 113.4Q9.86 113.55 9.74 113.67Q9.61 113.8 9.45 113.9Q9.05 114.15 8.49 114.15Q7.82 114.15 7.38 113.83Q7.35 113.81 7.32 113.78Q6.91 113.44 6.79 113.02Q6.78 112.98 6.77 112.95ZM13.5 111.06Q13.5 110.17 13.72 109.48Q13.93 108.79 14.37 108.38Q14.58 108.19 14.82 108.09Q15.1 107.97 15.43 107.97Q15.77 107.97 16.05 108.09Q16.29 108.19 16.49 108.38Q16.93 108.79 17.14 109.48Q17.35 110.17 17.35 111.06Q17.35 111.94 17.14 112.63Q16.93 113.32 16.49 113.74Q16.29 113.93 16.05 114.03Q15.77 114.15 15.43 114.15Q15.1 114.15 14.82 114.03Q14.58 113.93 14.37 113.74Q13.93 113.32 13.72 112.63Q13.5 111.94 13.5 111.06Z" fill="#FFFFFF" fill-opacity="1.000000" fill-rule="evenodd"></path><path id="0" d="M5.66 259.73Q5.66 260.89 6 261.79Q6.31 262.6 6.89 263.11Q6.95 263.16 7.01 263.21Q7.23 263.38 7.48 263.49Q7.98 263.72 8.58 263.72Q9.19 263.72 9.69 263.49Q9.94 263.38 10.16 263.21Q10.22 263.16 10.29 263.1Q10.86 262.6 11.17 261.79Q11.5 260.89 11.5 259.73Q11.5 258.56 11.17 257.67Q10.86 256.85 10.28 256.35Q10.22 256.3 10.16 256.25Q9.94 256.08 9.69 255.97Q9.19 255.74 8.58 255.74Q7.97 255.74 7.47 255.97Q7.23 256.08 7.01 256.25Q6.95 256.3 6.89 256.35Q6.31 256.85 6 257.67Q5.66 258.56 5.66 259.73ZM6.65 259.73Q6.65 258.84 6.87 258.15Q7.08 257.47 7.52 257.05Q7.73 256.86 7.97 256.76Q8.25 256.64 8.58 256.64Q8.92 256.64 9.2 256.76Q9.44 256.86 9.64 257.05Q10.08 257.47 10.29 258.15Q10.51 258.84 10.51 259.73Q10.51 260.61 10.29 261.3Q10.08 261.99 9.64 262.41Q9.44 262.6 9.2 262.7Q8.92 262.82 8.58 262.82Q8.25 262.82 7.97 262.7Q7.73 262.6 7.52 262.41Q7.08 261.99 6.87 261.3Q6.65 260.61 6.65 259.73Z" fill="#FFFFFF" fill-opacity="1.000000" fill-rule="evenodd"></path></svg> 