<?xml version="1.0" encoding="UTF-8"?> <svg xmlns="http://www.w3.org/2000/svg" xmlns:xlink="http://www.w3.org/1999/xlink" width="266.000000" height="266.000000" viewBox="0 0 266 266" fill="none"><desc> Created with Pixso. </desc><defs><clipPath id="clip223_1071"><rect id="Frame 141037" rx="-1.500000" width="263.000000" height="263.000000" transform="translate(1.500000 1.500000)" fill="white" fill-opacity="0"></rect></clipPath></defs><g clip-path="url(#clip223_1071)"><path id="Vector" d="M174.24 107.7L140.92 176.29L207.92 176.29L174.24 107.7Z" fill="#FFFFFF" fill-opacity="1.000000" fill-rule="evenodd"></path><path id="Vector" d="M49.5 35.55L16.19 104.15L83.19 104.15L49.5 35.55Z" fill="#FFFFFF" fill-opacity="1.000000" fill-rule="evenodd"></path><rect id="Rectangle 1002063" x="104.616211" y="61.115234" width="15.272985" height="175.638458" fill="#9173FA" fill-opacity="1.000000"></rect><rect id="Rectangle 1002064" x="49.450195" y="35.592285" width="13.962742" height="144.066544" transform="rotate(-60.0352 49.450195 35.592285)" fill="#9173FA" fill-opacity="1.000000"></rect><path id="Rectangle 1005194" d="M140.92 176.29L207.91 176.29L207.91 176.3C207.91 194.8 192.92 209.8 174.42 209.8C155.92 209.8 140.92 194.8 140.92 176.3L140.92 176.29Z" fill="#9173FA" fill-opacity="1.000000" fill-rule="evenodd"></path><path id="Rectangle 1005195" d="M16.18 104.15L83.18 104.15L83.18 104.15C83.18 122.65 68.18 137.65 49.68 137.65C31.18 137.65 16.18 122.65 16.18 104.15L16.18 104.15Z" fill="#9173FA" fill-opacity="1.000000" fill-rule="evenodd"></path><rect id="Rectangle 1005193" x="67.928711" y="236.752930" width="88.646790" height="12.966815" fill="#9173FA" fill-opacity="1.000000"></rect><path id="Vector 2022" d="M208.5 71.37L211.11 23.73L221.84 66.67L244.32 42.84L229.61 76.43L256.65 69.47L229.64 88.48L251.52 109.09L222.99 100.15" stroke="#FFFFFF" stroke-opacity="1.000000" stroke-width="4.000000"></path></g><rect id="Frame 141037" rx="-1.500000" width="263.000000" height="263.000000" transform="translate(1.500000 1.500000)" stroke="#FFFFFF" stroke-opacity="0" stroke-width="3.000000" stroke-dasharray="16 16"></rect></svg> 