<?xml version="1.0" encoding="UTF-8"?> <svg xmlns="http://www.w3.org/2000/svg" xmlns:xlink="http://www.w3.org/1999/xlink" width="32.000000" height="32.000000" viewBox="0 0 32 32" fill="none"><desc> Created with Pixso. </desc><defs><clipPath id="clip355_1271"><rect id="favicon32" width="32.000000" height="32.000000" fill="white" fill-opacity="0"></rect></clipPath></defs><g clip-path="url(#clip355_1271)"><path id="Subtract" d="M10.167 2.49997L31.0005 2.49997L31.0005 23.3333L21.8335 23.3333L21.8335 29.1667L1 29.1667L1 8.33331L10.167 8.33331L10.167 2.49997Z" clip-rule="evenodd" fill="#3216B5" fill-opacity="1.000000" fill-rule="evenodd"></path><path id="Vector" d="M23.64 15.14L23.64 16.54L17.77 16.54L17.77 15.26C17.77 15.26 18.99 14.64 19.77 14.21C20.81 13.65 21.92 12.89 22.01 11.84C22.08 11.03 21.4 10.42 20.58 10.42C19.64 10.42 19.13 10.97 18.84 11.86L17.56 11.36C17.95 10.28 18.84 9.09 20.57 9.09C22.3 9.09 23.53 10.35 23.53 11.83C23.53 13.7 21.46 14.6 20.28 15.13L20.28 15.14L23.64 15.14ZM7.18 22.17L7.18 15.14L9.37 15.14L11.42 20.18L13.46 15.14L15.67 15.14L15.67 22.17L14.14 22.17L14.14 16.9L12.01 22.17L10.86 22.17L8.69 16.9L8.69 22.17L7.18 22.17Z" fill="#FFFFFF" fill-opacity="1.000000" fill-rule="evenodd"></path></g></svg> 