<?xml version="1.0" encoding="UTF-8"?> <svg xmlns="http://www.w3.org/2000/svg" xmlns:xlink="http://www.w3.org/1999/xlink" width="72.000000" height="64.000000" viewBox="0 0 72 64" fill="none"><desc> Created with Pixso. </desc><defs></defs><path d="M22 0L72 0L72 50L50 50L50 64L0 64L0 14L22 14L22 0Z" clip-rule="evenodd" fill="#FFFFFF" fill-opacity="1.000000" fill-rule="evenodd"></path><path d="M54.34 30.34L54.34 33.71L40.26 33.71L40.26 30.63C40.26 30.63 43.18 29.15 45.07 28.12C47.54 26.76 50.23 24.94 50.43 22.42C50.59 20.48 48.97 19.01 47 19.01C44.75 19.01 43.53 20.32 42.83 22.48L39.75 21.27C40.69 18.69 42.81 15.82 46.98 15.82C51.14 15.82 54.09 18.85 54.09 22.39C54.09 26.88 49.12 29.04 46.27 30.31L46.27 30.34L54.34 30.34ZM14.83 47.2L14.83 30.35L20.1 30.35L25.02 42.44L29.91 30.35L35.21 30.35L35.21 47.2L31.55 47.2L31.55 34.56L26.43 47.2L23.67 47.2L18.47 34.56L18.47 47.2L14.83 47.2Z" fill="#5F37EB" fill-opacity="1.000000" fill-rule="evenodd"></path></svg> 