<?xml version="1.0" encoding="UTF-8"?> <svg xmlns="http://www.w3.org/2000/svg" xmlns:xlink="http://www.w3.org/1999/xlink" width="266.000000" height="266.000000" viewBox="0 0 266 266" fill="none"><desc> Created with Pixso. </desc><defs><clipPath id="clip223_1085"><rect id="1_circle" width="265.718750" height="265.718750" transform="translate(0.140625 0.139648)" fill="white" fill-opacity="0"></rect></clipPath><clipPath id="clip223_1081"><rect id="Frame 141056" width="266.000000" height="266.000000" fill="white" fill-opacity="0"></rect></clipPath></defs><g clip-path="url(#clip223_1081)"><rect id="Rectangle 1003724" x="0.140625" width="265.718781" height="265.718781" fill="#B1B1B1" fill-opacity="0"></rect><g clip-path="url(#clip223_1085)"><path id="Subtract" d="M163.6 55.77L85.11 55.77L64.4 55.77L20.32 105.43L20.32 143.97L20.32 232.17L163.6 232.17L163.6 55.77Z" fill="#FFFFFF" fill-opacity="1.000000" fill-rule="nonzero"></path><path id="Rectangle 1001480" d="M64.36 105.39L64.36 55.78L20.27 105.39L64.36 105.39Z" fill="#3216B5" fill-opacity="1.000000" fill-rule="nonzero"></path><path id="Vector 2126" d="M132.52 156.41L118.9 169.93L105.31 156.37L105.24 175.56L86.05 175.58L99.57 189.2L86.01 202.79L105.21 202.85L105.23 222.05L118.85 208.52L132.43 222.08L132.5 202.89L151.69 202.87L138.17 189.25L151.73 175.67L132.53 175.6L132.52 156.41Z" fill="#9173FA" fill-opacity="1.000000" fill-rule="evenodd"></path><path id="Vector 2136" d="M154.3 44.66L157.4 29.39" stroke="#FFFFFF" stroke-opacity="1.000000" stroke-width="4.000000"></path><path id="Vector 2138" d="M179.3 63.68L193.42 57.35" stroke="#FFFFFF" stroke-opacity="1.000000" stroke-width="4.000000"></path><path id="Vector 2137" d="M169.3 51.66L183.92 35.33" stroke="#FFFFFF" stroke-opacity="1.000000" stroke-width="4.000000"></path></g></g></svg> 