<?xml version="1.0" encoding="UTF-8"?> <svg xmlns="http://www.w3.org/2000/svg" xmlns:xlink="http://www.w3.org/1999/xlink" width="390.000000" height="390.000000" viewBox="0 0 390 390" fill="none"><desc> Created with Pixso. </desc><defs><clipPath id="clip223_2790"><rect id="Frame 141085" rx="-1.500000" width="387.000000" height="387.000000" transform="translate(1.500000 1.500000)" fill="white" fill-opacity="0"></rect></clipPath></defs><g clip-path="url(#clip223_2790)"><circle id="Ellipse 1244" cx="190.072266" cy="-121.927734" r="5.072276" fill="#FFFFFF" fill-opacity="1.000000"></circle><rect id="Rectangle 1004345" x="185.351562" y="-112.747314" width="9.442446" height="23.288050" fill="#FFFFFF" fill-opacity="1.000000"></rect><rect id="Прямоугольник 61" x="184.000000" y="17.000000" width="162.000000" height="162.000000" fill="#9173FA" fill-opacity="1.000000"></rect><path id="Subtract" d="M216.5 38.5L269.62 38.5L283.63 38.5L313.47 71.99L313.47 98L313.47 157.5L216.5 157.5L216.5 38.5Z" fill="#FFFFFF" fill-opacity="1.000000" fill-rule="nonzero"></path><path id="Rectangle 1001480" d="M283.66 71.97L283.66 38.5L313.5 71.97L283.66 71.97Z" fill="#5F37EB" fill-opacity="1.000000" fill-rule="nonzero"></path><rect id="Прямоугольник 62" x="12.000000" y="189.000000" width="162.000000" height="162.000000" fill="#37C8D2" fill-opacity="1.000000"></rect><path id="Union" d="M138.79 224.18L47.18 224.18L47.18 315.79L78.65 284.32L110.14 315.81L138.81 287.14L107.32 255.65L138.79 224.18Z" fill="#AAF0F0" fill-opacity="1.000000" fill-rule="nonzero"></path><rect id="Прямоугольник 60" x="12.000000" y="17.500000" width="162.000000" height="162.000000" fill="#3216B5" fill-opacity="1.000000"></rect><path id="verified_user" d="M137.94 53.5C137.94 61.14 137.94 87.14 137.94 107.77C137.93 124.59 128.55 139.98 113.61 147.7L92.95 158.37L72.33 147.71C57.4 139.99 48.03 124.59 48.03 107.78C48.03 87.16 48.03 61.15 48.03 53.52L92.95 38.54L137.94 53.5Z" fill="#9173FA" fill-opacity="1.000000" fill-rule="nonzero"></path><path id="verified_user" d="M137.96 53.51L137.96 107.82C137.96 124.62 128.59 140.02 113.67 147.75L93.01 158.45L93.01 38.58L137.96 53.51Z" fill="#5F37EB" fill-opacity="1.000000" fill-rule="nonzero"></path><path id="Vector 1896" d="M245.16 262.63C244.13 265.66 236.73 268.58 233.99 262.89C230.89 256.46 234.31 249.68 236.26 246.88" stroke="#FFFFFF" stroke-opacity="1.000000" stroke-width="3.000000" stroke-linecap="square"></path><path id="Vector 1895" d="M224.68 224.55L220.43 238.23C216.82 249.4 217.78 256.48 223.97 257.72C230.15 258.96 233.14 250.9 236.39 245.6" stroke="#FFFFFF" stroke-opacity="1.000000" stroke-width="3.000000" stroke-linecap="square"></path><path id="Vector" d="M242.57 197.1Q247.33 190.15 256.29 191.65Q264.08 192.96 270.17 199.49L270.23 199.55L293.73 230.76L291.33 232.56L267.88 201.42L269.07 200.52L267.98 201.54Q262.58 195.75 255.79 194.61Q248.72 193.42 245.05 198.8L242.57 197.1ZM245.06 198.78L244.2 200.03L241.72 198.34L242.58 197.08L245.06 198.78ZM293.72 230.74L294.63 231.95L292.23 233.76L291.32 232.55L293.72 230.74Z" fill="#FFFFFF" fill-opacity="1.000000" fill-rule="evenodd"></path><path id="Vector" d="M271.38 201.4Q276.26 198.38 281.99 198.81Q287.95 199.26 291.86 203.27L291.91 203.32L311.19 227L308.86 228.89L289.63 205.27L290.79 204.32L289.72 205.37Q286.59 202.17 281.77 201.8Q277.01 201.44 272.96 203.95L271.38 201.4ZM311.18 226.98L312.14 228.16L309.81 230.05L308.85 228.87L311.18 226.98ZM272.97 203.94L271.68 204.74L270.1 202.18L271.4 201.39L272.97 203.94Z" fill="#FFFFFF" fill-opacity="1.000000" fill-rule="evenodd"></path><path id="Vector" d="M292.08 204.94Q296.13 199.5 304.08 202.15Q311.78 204.72 321.72 214.75Q327.89 221.21 335.83 230.86Q351.72 250.16 360.71 266.26Q374.99 291.8 398.71 331.96L396.13 333.49Q372.39 293.29 358.09 267.72Q349.23 251.86 333.51 232.76Q325.65 223.21 319.59 216.86Q310.15 207.34 303.13 205Q297.24 203.03 294.49 206.73L292.08 204.94ZM294.5 206.71L293.6 207.93L291.19 206.14L292.09 204.92L294.5 206.71ZM398.7 331.94L399.47 333.25L396.89 334.78L396.12 333.47L398.7 331.94Z" fill="#FFFFFF" fill-opacity="1.000000" fill-rule="evenodd"></path><path id="Vector 908" d="M268.62 296.54C252.82 288.34 217.95 271.04 204.94 267.38C193.91 264.28 183.7 267.05 184.29 275.6C184.53 279.14 187.03 282.01 189.73 284.3C209.98 301.43 228.91 307.59 260.93 335.42C269.64 342.36 290.94 356.25 313.42 352.58L325.56 363.28" stroke="#FFFFFF" stroke-opacity="1.000000" stroke-width="3.000000" stroke-linejoin="round" stroke-linecap="square"></path><path id="Vector" d="M263.66 294.2L237.5 249.31L207.08 192.54L208.4 191.83L207.12 192.61Q203.67 186.96 201.68 180.43Q197.47 166.62 205.53 161.7Q211.66 157.96 222.11 168.63Q227.01 173.63 230.87 179.27L229.63 180.12L230.84 179.23L274.18 237.95L271.76 239.73L228.43 181.01Q228.41 180.99 228.39 180.96Q224.69 175.54 219.97 170.73Q211.19 161.76 207.09 164.26Q201.02 167.97 204.55 179.55Q206.43 185.72 209.68 191.05L209.7 191.08L240.13 247.86L238.81 248.57L240.1 247.82L266.26 292.69L263.66 294.2ZM274.17 237.94L275.07 239.16L272.66 240.94L271.75 239.72L274.17 237.94ZM266.25 292.67L267.01 293.99L264.42 295.5L263.65 294.18L266.25 292.67Z" fill="#FFFFFF" fill-opacity="1.000000" fill-rule="evenodd"></path></g><rect id="Frame 141085" rx="-1.500000" width="387.000000" height="387.000000" transform="translate(1.500000 1.500000)" stroke="#FFFFFF" stroke-opacity="0" stroke-width="3.000000" stroke-dasharray="16 16"></rect></svg> 