<?xml version="1.0" encoding="UTF-8"?> <svg xmlns="http://www.w3.org/2000/svg" xmlns:xlink="http://www.w3.org/1999/xlink" width="150.000000" height="150.000000" viewBox="0 0 150 150" fill="none"><desc> Created with Pixso. </desc><defs><clipPath id="clip365_1074"><rect id="Frame 61" rx="-1.500000" width="147.000000" height="147.000000" transform="translate(1.500000 1.500000)" fill="white" fill-opacity="0"></rect></clipPath></defs><g clip-path="url(#clip365_1074)"><rect id="Rectangle 1002133" x="18.203125" y="28.079590" rx="53.478348" width="106.956718" height="106.956696" fill="#37C8D2" fill-opacity="1.000000"></rect><path id="Vector" d="M46.26 100.16L90.24 56.09L97.09 62.95L53.11 107.02L46.26 100.16ZM46.38 67.73C46.38 74.09 51.53 79.25 57.88 79.25C64.23 79.25 69.37 74.09 69.37 67.73C69.37 61.37 64.23 56.21 57.88 56.21C51.53 56.21 46.38 61.37 46.38 67.73ZM85.6 106.94C79.25 106.94 74.1 101.78 74.1 95.42C74.1 89.06 79.25 83.9 85.6 83.9C91.94 83.9 97.09 89.06 97.09 95.42C97.09 101.78 91.94 106.94 85.6 106.94Z" fill="#FFFFFF" fill-opacity="1.000000" fill-rule="evenodd"></path><path id="Vector 1439" d="M21.56 14.96C21.56 15.05 21.56 24.35 21.56 24.35" stroke="#FFFFFF" stroke-opacity="1.000000" stroke-width="2.000000"></path><path id="Vector 1440" d="M7.4 30.02C10.07 30.02 12.75 30.02 15.42 30.02" stroke="#FFFFFF" stroke-opacity="1.000000" stroke-width="2.000000"></path><path id="Vector 1441" d="M26.74 30.02L37.58 30.02" stroke="#FFFFFF" stroke-opacity="1.000000" stroke-width="2.000000" stroke-linecap="square"></path><path id="Vector 1442" d="M21.56 35.63L21.56 46.93" stroke="#FFFFFF" stroke-opacity="1.000000" stroke-width="2.000000" stroke-linecap="square"></path><path id="Vector 1439" d="M115.2 107.02C115.2 107.07 115.2 112.86 115.2 112.86" stroke="#FFFFFF" stroke-opacity="1.000000" stroke-width="2.000000"></path><path id="Vector 1440" d="M106.39 116.38C108.06 116.38 109.72 116.38 111.38 116.38" stroke="#FFFFFF" stroke-opacity="1.000000" stroke-width="2.000000"></path><path id="Vector 1441" d="M118.42 116.38L125.16 116.38" stroke="#FFFFFF" stroke-opacity="1.000000" stroke-width="2.000000" stroke-linecap="square"></path><path id="Vector 1442" d="M115.2 119.87L115.2 126.9" stroke="#FFFFFF" stroke-opacity="1.000000" stroke-width="2.000000" stroke-linecap="square"></path></g><rect id="Frame 61" rx="-1.500000" width="147.000000" height="147.000000" transform="translate(1.500000 1.500000)" stroke="#FFFFFF" stroke-opacity="0" stroke-width="3.000000" stroke-dasharray="16 16"></rect></svg> 